<?xml version="1.0" encoding="UTF-8"?>
<svg id="Layer_1" data-name="Layer 1" xmlns="http://www.w3.org/2000/svg" xmlns:xlink="http://www.w3.org/1999/xlink" viewBox="0 0 36 34">
  <defs>
    <style>
      .cls-1 {
        fill: url(#linear-gradient);
      }

      .cls-1, .cls-2, .cls-3, .cls-4, .cls-5, .cls-6 {
        stroke-width: 0px;
      }

      .cls-2 {
        fill: url(#linear-gradient-6);
      }

      .cls-3 {
        fill: url(#linear-gradient-5);
      }

      .cls-4 {
        fill: url(#linear-gradient-2);
      }

      .cls-5 {
        fill: url(#linear-gradient-3);
      }

      .cls-6 {
        fill: url(#linear-gradient-4);
      }
    </style>
    <linearGradient id="linear-gradient" x1="2.51" y1="2.47" x2="28.04" y2="31.82" gradientUnits="userSpaceOnUse">
      <stop offset="0" stop-color="#0049e7"/>
      <stop offset=".11" stop-color="#0648e7"/>
      <stop offset=".26" stop-color="#1647e9"/>
      <stop offset=".46" stop-color="#3144eb"/>
      <stop offset=".66" stop-color="#5740ee"/>
      <stop offset=".79" stop-color="#883bf3"/>
      <stop offset=".98" stop-color="#c236f7"/>
      <stop offset="1" stop-color="#c835f8"/>
    </linearGradient>
    <linearGradient id="linear-gradient-2" x1="2.88" y1="2.15" x2="28.41" y2="31.5" xlink:href="#linear-gradient"/>
    <linearGradient id="linear-gradient-3" x1="8.34" y1="-2.6" x2="33.87" y2="26.74" xlink:href="#linear-gradient"/>
    <linearGradient id="linear-gradient-4" x1="9.27" y1="-3.41" x2="34.8" y2="25.94" xlink:href="#linear-gradient"/>
    <linearGradient id="linear-gradient-5" x1="6.2" y1="-.75" x2="31.74" y2="28.6" xlink:href="#linear-gradient"/>
    <linearGradient id="linear-gradient-6" x1="-1.65" y1="6.08" x2="23.89" y2="35.43" xlink:href="#linear-gradient"/>
  </defs>
  <path class="cls-1" d="M5.96,7.16c-.34,0-.68,0-1.02,0-.42-.01-.72-.31-.72-.7,0-.39.3-.69.73-.7.69,0,1.38-.01,2.07,0,.42,0,.72.31.72.7,0,.39-.3.69-.73.7-.35,0-.7,0-1.05,0Z"/>
  <path class="cls-4" d="M34.11,7.87c-.2-.02-.22-.09-.22-.25.01-.36.01-.73,0-1.09-.01-1.67-1.22-2.88-2.88-2.89h-6.61c-.77,0-1.45.25-2,.79-.15.14-.22.12-.36,0-.55-.53-1.21-.78-1.97-.78h-6.68c-.42,0-.82.07-1.19.26-.23.13-.27.06-.32-.17-.27-1.25-1.38-2.18-2.66-2.19-1.24-.01-2.48-.02-3.72-.01H1.97C.89,1.53,0,2.41,0,3.49v27.01c0,.13.02.25.04.38.18.9.98,1.59,1.93,1.59h31.84c1.28,0,2.19-.91,2.19-2.2V10.06c0-1.18-.73-2.03-1.89-2.19ZM22.86,6.52c0-.85.7-1.54,1.55-1.54h6.6c.85,0,1.54.69,1.54,1.54v1.11c0,.13-.11.24-.24.24h-9.21c-.13,0-.24-.11-.24-.24v-1.11ZM11.91,6.52c0-.85.69-1.54,1.55-1.54h6.6c.85,0,1.54.69,1.54,1.54v1.11c0,.13-.11.24-.24.24h-9.21c-.13,0-.24-.11-.24-.24v-1.11ZM34.64,30.18c0,.68-.23.92-.9.92H2.28c-.68,0-.91-.23-.91-.9-.01-8.59-.01-17.18,0-25.77,0-.95.58-1.53,1.53-1.53h6.1c.95,0,1.53.58,1.53,1.54v3.8c0,.8.2,1,1,1h22.21c.67,0,.9.23.9.92v20.02Z"/>
  <g>
    <path class="cls-5" d="M31.65,17.38c0,.21-.13.4-.27.4h-11.29c-.15,0-.27-.18-.27-.4s.13-.4.27-.4h11.29c.15,0,.27.18.27.4Z"/>
    <path class="cls-6" d="M31.65,15.51c0,.21-.13.4-.27.4h-11.29c-.15,0-.27-.18-.27-.4s.13-.4.27-.4h11.29c.15,0,.27.18.27.4Z"/>
  </g>
  <path class="cls-3" d="M30.71,24.65h-10.09c-.62,0-1.12-.5-1.12-1.12v-3.82c0-.62.5-1.12,1.12-1.12h10.09c.62,0,1.12.5,1.12,1.12v3.82c0,.62-.5,1.12-1.12,1.12ZM20.62,19.2c-.28,0-.52.23-.52.52v3.82c0,.28.23.52.52.52h10.09c.28,0,.52-.23.52-.52v-3.82c0-.28-.23-.52-.52-.52h-10.09Z"/>
  <path class="cls-2" d="M14.79,14.76H5.66c-.91,0-1.65.74-1.65,1.65v6.63c0,.91.74,1.66,1.65,1.66h9.13c.92,0,1.66-.75,1.66-1.66v-6.63c0-.91-.74-1.65-1.66-1.65ZM4.71,16.41c0-.52.43-.95.95-.95h9.13c.53,0,.96.43.96.95v4.38l-2.02-1.13c-.3-.17-.67-.18-.98-.02l-2.6,1.29c-.16.08-.34.06-.48-.04l-1.79-1.37c-.32-.25-.76-.28-1.12-.09l-2.05,1.07v-4.09ZM15.75,23.04c0,.53-.43.96-.96.96H5.66c-.52,0-.95-.43-.95-.96v-1.87l2.32-1.21c.16-.08.35-.07.49.04l1.79,1.37c.32.24.74.28,1.1.1l2.6-1.3c.14-.06.3-.06.43,0l2.31,1.31v1.55Z"/>
</svg>