<?xml version="1.0" encoding="UTF-8"?>
<svg id="Layer_1" data-name="Layer 1" xmlns="http://www.w3.org/2000/svg" xmlns:xlink="http://www.w3.org/1999/xlink" viewBox="0 0 36 34">
  <defs>
    <style>
      .cls-1 {
        fill: url(#linear-gradient);
        stroke-width: 0px;
      }
    </style>
    <linearGradient id="linear-gradient" x1="-13.89" y1="21.06" x2="25.31" y2="16.78" gradientUnits="userSpaceOnUse">
      <stop offset="0" stop-color="#0049e7"/>
      <stop offset=".11" stop-color="#0648e7"/>
      <stop offset=".26" stop-color="#1647e9"/>
      <stop offset=".51" stop-color="#3144eb"/>
      <stop offset=".98" stop-color="#c236f7"/>
      <stop offset="1" stop-color="#c835f8"/>
    </linearGradient>
  </defs>
  <path class="cls-1" d="M34.95,26.49h-3.16v-3.16c0-.58-.47-1.05-1.05-1.05h-11.67v-2.11h5.27c.58,0,1.05-.47,1.05-1.05s-.47-1.05-1.05-1.05-1.05-.47-1.05-1.05v-2.11c0-1.72-.83-3.26-2.11-4.22,1.28-.96,2.11-2.5,2.11-4.22v-2.11c0-.58.47-1.05,1.05-1.05s1.05-.47,1.05-1.05-.47-1.05-1.05-1.05h-12.66c-.58,0-1.05.47-1.05,1.05s.47,1.05,1.05,1.05,1.05.47,1.05,1.05v2.11c0,1.72.83,3.26,2.11,4.22-1.28.96-2.11,2.5-2.11,4.22v2.11c0,.58-.47,1.05-1.05,1.05s-1.05.47-1.05,1.05.47,1.05,1.05,1.05h5.27v2.11H5.27c-.58,0-1.05.47-1.05,1.05v3.16H1.05c-.58,0-1.05.47-1.05,1.05v4.22c0,.58.47,1.05,1.05,1.05h8.44c.58,0,1.05-.47,1.05-1.05v-4.22c0-.58-.47-1.05-1.05-1.05h-3.16v-2.11h10.62v2.11h-3.16c-.58,0-1.05.47-1.05,1.05v4.22c0,.58.47,1.05,1.05,1.05h8.44c.58,0,1.05-.47,1.05-1.05v-4.22c0-.58-.47-1.05-1.05-1.05h-3.16v-2.11h10.62v2.11h-3.16c-.58,0-1.05.47-1.05,1.05v4.22c0,.58.47,1.05,1.05,1.05h8.44c.58,0,1.05-.47,1.05-1.05v-4.22c0-.58-.47-1.05-1.05-1.05ZM8.44,28.6v2.11H2.11v-2.11h6.33ZM14.84,6.45v-2.11c0-.37-.06-.72-.18-1.05h6.69c-.12.33-.18.68-.18,1.05v2.11c0,1.74-1.42,3.16-3.16,3.16s-3.16-1.42-3.16-3.16ZM21.16,28.6v2.11h-6.33v-2.11h6.33ZM14.65,18.05c.12-.33.18-.68.18-1.05v-2.11c0-1.74,1.42-3.16,3.16-3.16s3.16,1.42,3.16,3.16v2.11c0,.37.06.72.18,1.05h-6.69ZM33.89,30.71h-6.33v-2.11h6.33v2.11Z"/>
</svg>