<?xml version="1.0" encoding="UTF-8"?>
<svg id="Layer_1" data-name="Layer 1" xmlns="http://www.w3.org/2000/svg" xmlns:xlink="http://www.w3.org/1999/xlink" viewBox="0 0 36 34">
  <defs>
    <style>
      .cls-1 {
        fill: #953af4;
      }

      .cls-1, .cls-2, .cls-3, .cls-4, .cls-5, .cls-6, .cls-7, .cls-8, .cls-9, .cls-10, .cls-11, .cls-12, .cls-13, .cls-14, .cls-15, .cls-16, .cls-17, .cls-18, .cls-19, .cls-20, .cls-21, .cls-22, .cls-23, .cls-24, .cls-25, .cls-26, .cls-27, .cls-28, .cls-29, .cls-30, .cls-31, .cls-32, .cls-33, .cls-34, .cls-35, .cls-36, .cls-37, .cls-38, .cls-39, .cls-40, .cls-41, .cls-42, .cls-43, .cls-44, .cls-45, .cls-46, .cls-47, .cls-48, .cls-49, .cls-50, .cls-51, .cls-52, .cls-53, .cls-54, .cls-55, .cls-56, .cls-57, .cls-58, .cls-59, .cls-60, .cls-61, .cls-62, .cls-63, .cls-64, .cls-65, .cls-66, .cls-67, .cls-68, .cls-69, .cls-70, .cls-71, .cls-72, .cls-73, .cls-74, .cls-75, .cls-76, .cls-77, .cls-78, .cls-79, .cls-80, .cls-81, .cls-82, .cls-83, .cls-84, .cls-85, .cls-86, .cls-87, .cls-88, .cls-89, .cls-90, .cls-91, .cls-92, .cls-93, .cls-94, .cls-95, .cls-96, .cls-97, .cls-98, .cls-99, .cls-100, .cls-101, .cls-102, .cls-103, .cls-104, .cls-105, .cls-106, .cls-107, .cls-108, .cls-109, .cls-110, .cls-111, .cls-112, .cls-113, .cls-114, .cls-115, .cls-116, .cls-117, .cls-118, .cls-119, .cls-120, .cls-121, .cls-122, .cls-123, .cls-124, .cls-125, .cls-126, .cls-127, .cls-128, .cls-129, .cls-130, .cls-131, .cls-132, .cls-133, .cls-134, .cls-135, .cls-136, .cls-137, .cls-138, .cls-139, .cls-140, .cls-141, .cls-142, .cls-143, .cls-144, .cls-145, .cls-146, .cls-147, .cls-148, .cls-149, .cls-150, .cls-151, .cls-152, .cls-153, .cls-154, .cls-155, .cls-156, .cls-157, .cls-158, .cls-159, .cls-160, .cls-161, .cls-162, .cls-163, .cls-164, .cls-165, .cls-166, .cls-167, .cls-168, .cls-169, .cls-170, .cls-171, .cls-172, .cls-173, .cls-174, .cls-175, .cls-176, .cls-177, .cls-178, .cls-179, .cls-180, .cls-181, .cls-182, .cls-183, .cls-184, .cls-185, .cls-186 {
        stroke-width: 0px;
      }

      .cls-2 {
        fill: #2c45eb;
      }

      .cls-3 {
        fill: #4042ec;
      }

      .cls-4 {
        fill: #3c43ec;
      }

      .cls-5 {
        fill: #7f3cf2;
      }

      .cls-6 {
        fill: #ae38f6;
      }

      .cls-7 {
        fill: #623fef;
      }

      .cls-8 {
        fill: #5f3fef;
      }

      .cls-9 {
        fill: #9c39f4;
      }

      .cls-10 {
        fill: url(#linear-gradient);
      }

      .cls-11 {
        fill: #1747e9;
      }

      .cls-12 {
        fill: #763df1;
      }

      .cls-13 {
        fill: #9b39f4;
      }

      .cls-14 {
        fill: #4542ed;
      }

      .cls-15 {
        fill: #2545ea;
      }

      .cls-16 {
        fill: #5740ee;
      }

      .cls-17 {
        fill: #b637f6;
      }

      .cls-18 {
        fill: #b537f6;
      }

      .cls-19 {
        fill: #5241ee;
      }

      .cls-20 {
        fill: #4342ec;
      }

      .cls-21 {
        fill: #723df1;
      }

      .cls-22 {
        fill: #8f3af3;
      }

      .cls-23 {
        fill: #8a3bf3;
      }

      .cls-24 {
        fill: #ab38f5;
      }

      .cls-25 {
        fill: #3643eb;
      }

      .cls-26 {
        fill: #9e39f5;
      }

      .cls-27 {
        fill: #793df1;
      }

      .cls-28 {
        fill: #873bf3;
      }

      .cls-29 {
        fill: #9a39f4;
      }

      .cls-30 {
        fill: #1347e9;
      }

      .cls-31 {
        fill: url(#linear-gradient-6);
      }

      .cls-32 {
        fill: #3843ec;
      }

      .cls-33 {
        fill: #4b41ed;
      }

      .cls-34 {
        fill: #bb37f7;
      }

      .cls-35 {
        fill: #b038f6;
      }

      .cls-36 {
        fill: #8b3bf3;
      }

      .cls-37 {
        fill: #6d3ef0;
      }

      .cls-38 {
        fill: #863bf3;
      }

      .cls-39 {
        fill: #bd36f7;
      }

      .cls-40 {
        fill: #973af4;
      }

      .cls-41 {
        fill: #c236f7;
      }

      .cls-42 {
        fill: #7b3cf2;
      }

      .cls-43 {
        fill: #4742ed;
      }

      .cls-44 {
        fill: #7a3cf2;
      }

      .cls-45 {
        fill: #b437f6;
      }

      .cls-46 {
        fill: #a738f5;
      }

      .cls-47 {
        fill: #4f41ed;
      }

      .cls-187 {
        clip-path: url(#clippath-2);
      }

      .cls-48 {
        fill: #1a47e9;
      }

      .cls-49 {
        fill: #1947e9;
      }

      .cls-50 {
        fill: #5840ee;
      }

      .cls-51 {
        fill: #4d41ed;
      }

      .cls-52 {
        fill: #5540ee;
      }

      .cls-53 {
        fill: #1d46ea;
      }

      .cls-54 {
        fill: #2645ea;
      }

      .cls-55 {
        fill: #933af4;
      }

      .cls-56 {
        fill: #613fef;
      }

      .cls-57 {
        fill: #4c41ed;
      }

      .cls-58 {
        fill: #a239f5;
      }

      .cls-59 {
        fill: #653fef;
      }

      .cls-188 {
        clip-path: url(#clippath-6);
      }

      .cls-60 {
        fill: #5d3fef;
      }

      .cls-61 {
        fill: #773df1;
      }

      .cls-62 {
        fill: #8d3bf3;
      }

      .cls-63 {
        fill: #903af4;
      }

      .cls-64 {
        fill: #4e41ed;
      }

      .cls-65 {
        fill: #5a40ee;
      }

      .cls-66 {
        fill: #b937f6;
      }

      .cls-67 {
        fill: #4842ed;
      }

      .cls-68 {
        fill: url(#linear-gradient-5);
      }

      .cls-69 {
        fill: #c835f8;
      }

      .cls-70 {
        fill: #823cf2;
      }

      .cls-71 {
        fill: none;
      }

      .cls-72 {
        fill: #703ef1;
      }

      .cls-73 {
        fill: #683ef0;
      }

      .cls-74 {
        fill: #1f46ea;
      }

      .cls-75 {
        fill: #c136f7;
      }

      .cls-76 {
        fill: #8e3af3;
      }

      .cls-77 {
        fill: #2945ea;
      }

      .cls-78 {
        fill: #c036f7;
      }

      .cls-79 {
        fill: #6e3ef0;
      }

      .cls-80 {
        fill: #5041ed;
      }

      .cls-81 {
        fill: #913af4;
      }

      .cls-82 {
        fill: #5640ee;
      }

      .cls-83 {
        fill: #7c3cf2;
      }

      .cls-84 {
        fill: #663ef0;
      }

      .cls-189 {
        clip-path: url(#clippath-1);
      }

      .cls-190 {
        clip-path: url(#clippath-4);
      }

      .cls-85 {
        fill: #993af4;
      }

      .cls-86 {
        fill: #923af4;
      }

      .cls-87 {
        fill: #1447e9;
      }

      .cls-88 {
        fill: #803cf2;
      }

      .cls-89 {
        fill: #4a41ed;
      }

      .cls-90 {
        fill: #a838f5;
      }

      .cls-91 {
        fill: #833cf2;
      }

      .cls-92 {
        fill: #c735f8;
      }

      .cls-93 {
        fill: #ad38f6;
      }

      .cls-94 {
        fill: #2d44eb;
      }

      .cls-95 {
        fill: #5e3fef;
      }

      .cls-96 {
        fill: #9d39f4;
      }

      .cls-97 {
        fill: #2845ea;
      }

      .cls-98 {
        fill: #aa38f5;
      }

      .cls-99 {
        fill: #3044eb;
      }

      .cls-100 {
        fill: #1647e9;
      }

      .cls-101 {
        fill: #3e43ec;
      }

      .cls-102 {
        fill: #2745ea;
      }

      .cls-103 {
        fill: #733df1;
      }

      .cls-104 {
        fill: #6c3ef0;
      }

      .cls-105 {
        fill: url(#linear-gradient-2);
      }

      .cls-106 {
        fill: #6b3ef0;
      }

      .cls-107 {
        fill: #2a45ea;
      }

      .cls-108 {
        fill: #bf36f7;
      }

      .cls-109 {
        fill: #b337f6;
      }

      .cls-110 {
        fill: #a638f5;
      }

      .cls-111 {
        fill: #633fef;
      }

      .cls-112 {
        fill: #4642ed;
      }

      .cls-113 {
        fill: #a039f5;
      }

      .cls-114 {
        fill: #ac38f5;
      }

      .cls-115 {
        fill: #b237f6;
      }

      .cls-116 {
        fill: #983af4;
      }

      .cls-117 {
        fill: #3244eb;
      }

      .cls-118 {
        fill: #be36f7;
      }

      .cls-119 {
        fill: #783df1;
      }

      .cls-120 {
        fill: url(#linear-gradient-7);
      }

      .cls-121 {
        fill: #4942ed;
      }

      .cls-122 {
        fill: url(#linear-gradient-3);
      }

      .cls-123 {
        fill: #3f42ec;
      }

      .cls-124 {
        fill: #5c3fef;
      }

      .cls-125 {
        fill: #2e44eb;
      }

      .cls-126 {
        fill: #3a43ec;
      }

      .cls-127 {
        fill: #1247e8;
      }

      .cls-128 {
        fill: #c436f7;
      }

      .cls-129 {
        fill: #ba37f6;
      }

      .cls-191 {
        clip-path: url(#clippath);
      }

      .cls-130 {
        fill: #6a3ef0;
      }

      .cls-131 {
        fill: #5b40ee;
      }

      .cls-132 {
        fill: #673ef0;
      }

      .cls-133 {
        fill: #713df1;
      }

      .cls-134 {
        fill: #5940ee;
      }

      .cls-135 {
        fill: #743df1;
      }

      .cls-136 {
        fill: #c635f8;
      }

      .cls-137 {
        fill: #7e3cf2;
      }

      .cls-138 {
        fill: #2246ea;
      }

      .cls-139 {
        fill: #5340ee;
      }

      .cls-192 {
        clip-path: url(#clippath-3);
      }

      .cls-140 {
        fill: #2446ea;
      }

      .cls-141 {
        fill: #813cf2;
      }

      .cls-142 {
        fill: #1e46ea;
      }

      .cls-143 {
        fill: #a938f5;
      }

      .cls-144 {
        fill: #843bf3;
      }

      .cls-145 {
        fill: #b137f6;
      }

      .cls-146 {
        fill: #1b46e9;
      }

      .cls-147 {
        fill: #3943ec;
      }

      .cls-148 {
        fill: #af38f6;
      }

      .cls-149 {
        fill: #a339f5;
      }

      .cls-150 {
        fill: #b837f6;
      }

      .cls-151 {
        fill: #883bf3;
      }

      .cls-152 {
        fill: #2146ea;
      }

      .cls-153 {
        fill: #b737f6;
      }

      .cls-154 {
        fill: #a139f5;
      }

      .cls-155 {
        fill: #3b43ec;
      }

      .cls-156 {
        fill: #c336f7;
      }

      .cls-157 {
        fill: #603fef;
      }

      .cls-158 {
        fill: #753df1;
      }

      .cls-159 {
        fill: #7d3cf2;
      }

      .cls-160 {
        fill: #3444eb;
      }

      .cls-161 {
        fill: #893bf3;
      }

      .cls-162 {
        fill: #943af4;
      }

      .cls-193 {
        clip-path: url(#clippath-5);
      }

      .cls-163 {
        fill: #5141ee;
      }

      .cls-164 {
        fill: #4142ec;
      }

      .cls-165 {
        fill: #5440ee;
      }

      .cls-166 {
        fill: #a439f5;
      }

      .cls-167 {
        fill: #2b45eb;
      }

      .cls-168 {
        fill: #9f39f5;
      }

      .cls-169 {
        fill: #2f44eb;
      }

      .cls-170 {
        fill: #853bf3;
      }

      .cls-171 {
        fill: #3544eb;
      }

      .cls-172 {
        fill: #3144eb;
      }

      .cls-173 {
        fill: #bc37f7;
      }

      .cls-174 {
        fill: #3743eb;
      }

      .cls-175 {
        fill: #1547e9;
      }

      .cls-176 {
        fill: #963af4;
      }

      .cls-177 {
        fill: #1847e9;
      }

      .cls-178 {
        fill: #693ef0;
      }

      .cls-179 {
        fill: url(#linear-gradient-4);
      }

      .cls-180 {
        fill: #3d43ec;
      }

      .cls-181 {
        fill: #1c46e9;
      }

      .cls-182 {
        fill: #4242ec;
      }

      .cls-183 {
        fill: #8c3bf3;
      }

      .cls-184 {
        fill: #3344eb;
      }

      .cls-185 {
        fill: #643fef;
      }

      .cls-186 {
        fill: #2046ea;
      }
    </style>
    <clipPath id="clippath">
      <path class="cls-71" d="M30.78,9.26l-.99-.69V2.96c0-1.52-1.24-2.76-2.76-2.76h-12.6c-.89,0-1.72.35-2.35.97l-4.61,4.61c-.63.63-.97,1.46-.97,2.35v.23l-1.28.88c-1.47,1.02-2.36,2.69-2.39,4.47,0,0,0,0,0,0,0,0,0,0,0,0,0,.03,0,.06,0,.08v14.42c0,3.06,2.49,5.55,5.55,5.55h19.23c.99,0,1.96-.26,2.81-.76.23-.14.31-.44.17-.67-.14-.23-.44-.31-.67-.17-.7.41-1.5.63-2.31.63H8.38c-2.52,0-4.57-2.05-4.57-4.57v-11.46c.38.55.85,1.03,1.41,1.41l9.62,6.66c.95.65,2.05.98,3.16.98s2.22-.33,3.16-.98l9.62-6.66c.56-.39,1.03-.87,1.41-1.41v11.46c0,1.01-.32,1.97-.93,2.77-.16.22-.12.52.09.69.09.07.19.1.3.1.15,0,.29-.07.39-.19.74-.97,1.13-2.14,1.13-3.36v-14.42c0-1.82-.89-3.53-2.39-4.57h0ZM12.78,1.87s.04-.04.06-.05c-.04.17-.07.35-.07.53v2.35c0,.98-.8,1.77-1.77,1.77h-2.35c-.18,0-.36.02-.53.07.02-.02.03-.04.05-.06L12.78,1.87ZM20.6,24.05c-1.56,1.08-3.65,1.08-5.2,0l-7.92-5.48v-5.54c0-.27-.22-.49-.49-.49s-.49.22-.49.49v4.86l-.72-.5c-1.2-.83-1.94-2.2-1.97-3.66.03-1.46.76-2.83,1.97-3.67l.72-.5v1.48c0,.27.22.49.49.49s.49-.22.49-.49v-2.43c0-.64.52-1.16,1.16-1.16h2.35c1.52,0,2.76-1.24,2.76-2.76v-2.35c0-.64.52-1.16,1.16-1.16h12.11c.98,0,1.77.8,1.77,1.77v15.41l-8.2,5.68ZM30.22,17.39l-.43.3v-7.92l.43.3c1.21.83,1.94,2.2,1.97,3.66-.03,1.46-.76,2.84-1.97,3.67h0Z"/>
    </clipPath>
    <linearGradient id="linear-gradient" x1="-2.88" y1="5.54" x2="34.6" y2="26.79" gradientUnits="userSpaceOnUse">
      <stop offset="0" stop-color="#0049e7"/>
      <stop offset=".11" stop-color="#0648e7"/>
      <stop offset=".26" stop-color="#1647e9"/>
      <stop offset=".46" stop-color="#3144eb"/>
      <stop offset=".66" stop-color="#5740ee"/>
      <stop offset=".79" stop-color="#883bf3"/>
      <stop offset=".98" stop-color="#c236f7"/>
      <stop offset="1" stop-color="#c835f8"/>
    </linearGradient>
    <clipPath id="clippath-1">
      <path class="cls-71" d="M14.91,26.53l-8.19,3.67c-.25.11-.36.4-.25.65.08.18.26.29.45.29.07,0,.14-.01.2-.04l8.19-3.67c.25-.11.36-.4.25-.65s-.4-.36-.65-.25Z"/>
    </clipPath>
    <linearGradient id="linear-gradient-2" x1="-9.48" y1="17.18" x2="28" y2="38.43" xlink:href="#linear-gradient"/>
    <clipPath id="clippath-2">
      <path class="cls-71" d="M21.09,26.53c-.25-.11-.54,0-.65.25-.11.25,0,.54.25.65l8.19,3.67c.07.03.13.04.2.04.19,0,.37-.11.45-.29.11-.25,0-.54-.25-.65l-8.19-3.67Z"/>
    </clipPath>
    <linearGradient id="linear-gradient-3" x1="-6.09" y1="11.2" x2="31.39" y2="32.45" xlink:href="#linear-gradient"/>
    <clipPath id="clippath-3">
      <path class="cls-71" d="M18.14,20.13h-.41c-.36,0-.65-.29-.65-.65v-1.16c0-.69-.56-1.24-1.24-1.24s-1.24.56-1.24,1.24v.51c0,.14-.12.26-.26.26h-.07v-1.19c0-1.2-.98-2.17-2.17-2.17s-2.17.98-2.17,2.17.98,2.17,2.17,2.17h1.19v1.24c0,.27.22.49.49.49s.49-.22.49-.49v-1.24h.07c.69,0,1.24-.56,1.24-1.24v-.51c0-.14.12-.26.26-.26s.26.12.26.26v1.16c0,.9.73,1.64,1.64,1.64h.41c.27,0,.49-.22.49-.49s-.22-.49-.49-.49h0ZM10.9,17.88c0-.66.53-1.19,1.19-1.19s1.19.53,1.19,1.19v1.19h-1.19c-.66,0-1.19-.53-1.19-1.19Z"/>
    </clipPath>
    <linearGradient id="linear-gradient-4" x1="-4.52" y1="8.42" x2="32.96" y2="29.67" xlink:href="#linear-gradient"/>
    <clipPath id="clippath-4">
      <path class="cls-71" d="M24.82,9.9h-13.63c-.27,0-.49.22-.49.49s.22.49.49.49h13.63c.27,0,.49-.22.49-.49s-.22-.49-.49-.49h0Z"/>
    </clipPath>
    <linearGradient id="linear-gradient-5" x1=".12" y1=".25" x2="37.59" y2="21.5" xlink:href="#linear-gradient"/>
    <clipPath id="clippath-5">
      <path class="cls-71" d="M21.71,13.42h-10.53c-.27,0-.49.22-.49.49s.22.49.49.49h10.53c.27,0,.49-.22.49-.49s-.22-.49-.49-.49h0Z"/>
    </clipPath>
    <linearGradient id="linear-gradient-6" x1="-1.77" y1="3.58" x2="35.71" y2="24.83" xlink:href="#linear-gradient"/>
    <clipPath id="clippath-6">
      <path class="cls-71" d="M14.95,5.45h6.1c.27,0,.49-.22.49-.49s-.22-.49-.49-.49h-6.1c-.27,0-.49.22-.49.49s.22.49.49.49Z"/>
    </clipPath>
    <linearGradient id="linear-gradient-7" x1="2.45" y1="-3.86" x2="39.93" y2="17.39" xlink:href="#linear-gradient"/>
  </defs>
  <g>
    <g class="cls-191">
      <polygon class="cls-113" points="29.87 9.77 29.79 9.95 29.79 9.77 29.87 9.77"/>
      <polygon class="cls-154" points="30.04 9.77 29.79 10.28 29.79 9.95 29.87 9.77 30.04 9.77"/>
      <polygon class="cls-58" points="30.2 9.77 29.79 10.61 29.79 10.28 30.04 9.77 30.2 9.77"/>
      <polygon class="cls-149" points="30.36 9.77 29.79 10.95 29.79 10.61 30.2 9.77 30.36 9.77"/>
      <polygon class="cls-166" points="30.53 9.77 29.79 11.28 29.79 10.95 30.36 9.77 30.53 9.77"/>
      <polygon class="cls-110" points="30.69 9.77 29.79 11.61 29.79 11.28 30.53 9.77 30.69 9.77"/>
      <polygon class="cls-46" points="30.85 9.77 29.79 11.95 29.79 11.61 30.69 9.77 30.85 9.77"/>
      <polygon class="cls-90" points="31.02 9.77 29.79 12.28 29.79 11.95 30.85 9.77 31.02 9.77"/>
      <polygon class="cls-143" points="31.03 9.77 31.15 9.82 29.79 12.61 29.79 12.28 31.02 9.77 31.03 9.77"/>
      <polygon class="cls-98" points="31.15 9.82 31.28 9.89 29.79 12.95 29.79 12.61 31.15 9.82"/>
      <polygon class="cls-24" points="31.28 9.89 31.41 9.95 29.79 13.28 29.79 12.95 31.28 9.89"/>
      <polygon class="cls-114" points="31.41 9.95 31.54 10.02 29.79 13.61 29.79 13.28 31.41 9.95"/>
      <polygon class="cls-93" points="31.54 10.02 31.68 10.08 29.79 13.95 29.79 13.61 31.54 10.02"/>
      <polygon class="cls-6" points="31.68 10.08 31.81 10.15 29.79 14.28 29.79 13.95 31.68 10.08"/>
      <polygon class="cls-148" points="31.81 10.15 31.94 10.21 29.79 14.62 29.79 14.28 31.81 10.15"/>
      <polygon class="cls-35" points="31.94 10.21 32.07 10.28 29.79 14.95 29.79 14.62 31.94 10.21"/>
      <polygon class="cls-145" points="32.07 10.28 32.19 10.33 32.19 10.38 29.79 15.28 29.79 14.95 32.07 10.28"/>
      <polygon class="cls-115" points="32.19 10.71 29.79 15.62 29.79 15.28 32.19 10.38 32.19 10.71"/>
      <polygon class="cls-109" points="32.19 11.04 29.79 15.95 29.79 15.62 32.19 10.71 32.19 11.04"/>
      <polygon class="cls-45" points="32.19 11.38 29.79 16.28 29.79 15.95 32.19 11.04 32.19 11.38"/>
      <polygon class="cls-18" points="32.19 11.71 29.79 16.62 29.79 16.28 32.19 11.38 32.19 11.71"/>
      <polygon class="cls-17" points="32.19 12.04 29.79 16.95 29.79 16.62 32.19 11.71 32.19 12.04"/>
      <polygon class="cls-153" points="32.19 12.38 29.79 17.28 29.79 16.95 32.19 12.04 32.19 12.38"/>
      <polygon class="cls-150" points="32.19 12.71 29.79 17.62 29.79 17.28 32.19 12.38 32.19 12.71"/>
      <polygon class="cls-66" points="32.19 13.04 29.92 17.69 29.79 17.69 29.79 17.62 32.19 12.71 32.19 13.04"/>
      <polygon class="cls-129" points="32.19 13.38 30.08 17.69 29.92 17.69 32.19 13.04 32.19 13.38"/>
      <polygon class="cls-34" points="32.19 13.71 30.24 17.69 30.08 17.69 32.19 13.38 32.19 13.71"/>
      <polygon class="cls-173" points="32.19 14.05 30.4 17.69 30.24 17.69 32.19 13.71 32.19 14.05"/>
      <polygon class="cls-39" points="32.19 14.38 30.57 17.69 30.4 17.69 32.19 14.05 32.19 14.38"/>
      <polygon class="cls-118" points="32.19 14.71 30.73 17.69 30.57 17.69 32.19 14.38 32.19 14.71"/>
      <polygon class="cls-108" points="32.19 15.05 30.89 17.69 30.73 17.69 32.19 14.71 32.19 15.05"/>
      <polygon class="cls-78" points="32.19 15.38 31.06 17.69 30.89 17.69 32.19 15.05 32.19 15.38"/>
      <polygon class="cls-75" points="32.19 15.71 31.22 17.69 31.06 17.69 32.19 15.38 32.19 15.71"/>
      <polygon class="cls-41" points="32.19 16.05 31.38 17.69 31.22 17.69 32.19 15.71 32.19 16.05"/>
      <polygon class="cls-41" points="32.19 16.35 31.53 17.69 31.38 17.69 32.19 16.05 32.19 16.35"/>
      <polygon class="cls-156" points="32.19 16.66 31.68 17.69 31.53 17.69 32.19 16.35 32.19 16.66"/>
      <polygon class="cls-128" points="32.19 16.96 31.83 17.69 31.68 17.69 32.19 16.66 32.19 16.96"/>
      <polygon class="cls-136" points="32.19 17.27 31.98 17.69 31.83 17.69 32.19 16.96 32.19 17.27"/>
      <polygon class="cls-92" points="32.19 17.57 32.13 17.69 31.98 17.69 32.19 17.27 32.19 17.57"/>
      <polygon class="cls-69" points="32.13 17.69 32.19 17.57 32.19 17.69 32.13 17.69"/>
      <polygon class="cls-175" points="3.93 1.19 3.81 1.43 3.81 1.19 3.93 1.19"/>
      <polygon class="cls-100" points="4.37 1.19 3.81 2.32 3.81 1.43 3.93 1.19 4.37 1.19"/>
      <polygon class="cls-100" points="4.74 1.19 3.81 3.09 3.81 2.32 4.37 1.19 4.74 1.19"/>
      <polygon class="cls-11" points="5.12 1.19 3.81 3.85 3.81 3.09 4.74 1.19 5.12 1.19"/>
      <polygon class="cls-177" points="5.49 1.19 3.81 4.61 3.81 3.85 5.12 1.19 5.49 1.19"/>
      <polygon class="cls-49" points="5.86 1.19 3.81 5.38 3.81 4.61 5.49 1.19 5.86 1.19"/>
      <polygon class="cls-48" points="6.24 1.19 3.81 6.14 3.81 5.38 5.86 1.19 6.24 1.19"/>
      <polygon class="cls-146" points="6.61 1.19 3.81 6.9 3.81 6.14 6.24 1.19 6.61 1.19"/>
      <polygon class="cls-181" points="6.98 1.19 3.81 7.66 3.81 6.9 6.61 1.19 6.98 1.19"/>
      <polygon class="cls-53" points="7.35 1.19 3.81 8.43 3.81 7.66 6.98 1.19 7.35 1.19"/>
      <polygon class="cls-142" points="7.73 1.19 3.81 9.19 3.81 8.43 7.35 1.19 7.73 1.19"/>
      <polygon class="cls-74" points="8.1 1.19 3.81 9.95 3.81 9.19 7.73 1.19 8.1 1.19"/>
      <polygon class="cls-186" points="8.47 1.19 3.81 10.72 3.81 9.95 8.1 1.19 8.47 1.19"/>
      <polygon class="cls-152" points="8.85 1.19 3.81 11.48 3.81 10.72 8.47 1.19 8.85 1.19"/>
      <polygon class="cls-138" points="9.22 1.19 3.81 12.24 3.81 11.48 8.85 1.19 9.22 1.19"/>
      <polygon class="cls-140" points="9.59 1.19 3.81 13.01 3.81 12.24 9.22 1.19 9.59 1.19"/>
      <polygon class="cls-15" points="9.96 1.19 3.81 13.77 3.81 13.01 9.59 1.19 9.96 1.19"/>
      <polygon class="cls-54" points="10.34 1.19 3.81 14.53 3.81 13.77 9.96 1.19 10.34 1.19"/>
      <polygon class="cls-102" points="10.71 1.19 3.81 15.29 3.81 14.53 10.34 1.19 10.71 1.19"/>
      <polygon class="cls-97" points="11.08 1.19 3.81 16.06 3.81 15.29 10.71 1.19 11.08 1.19"/>
      <polygon class="cls-77" points="11.46 1.19 3.81 16.82 3.81 16.06 11.08 1.19 11.46 1.19"/>
      <polygon class="cls-107" points="11.83 1.19 3.81 17.58 3.81 16.82 11.46 1.19 11.83 1.19"/>
      <polygon class="cls-167" points="12.2 1.19 3.81 18.35 3.81 17.58 11.83 1.19 12.2 1.19"/>
      <polygon class="cls-2" points="12.58 1.19 3.81 19.11 3.81 18.35 12.2 1.19 12.58 1.19"/>
      <polygon class="cls-94" points="12.95 1.19 4.04 19.42 3.81 19.31 3.81 19.11 12.58 1.19 12.95 1.19"/>
      <polygon class="cls-125" points="13.32 1.19 4.34 19.57 4.04 19.42 12.95 1.19 13.32 1.19"/>
      <polygon class="cls-169" points="13.69 1.19 4.64 19.71 4.34 19.57 13.32 1.19 13.69 1.19"/>
      <polygon class="cls-99" points="14.07 1.19 4.94 19.86 4.64 19.71 13.69 1.19 14.07 1.19"/>
      <polygon class="cls-172" points="14.44 1.19 5.24 20.01 4.94 19.86 14.07 1.19 14.44 1.19"/>
      <polygon class="cls-172" points="14.69 1.19 5.44 20.1 5.24 20.01 14.44 1.19 14.69 1.19"/>
      <polygon class="cls-117" points="14.93 1.19 5.64 20.2 5.44 20.1 14.69 1.19 14.93 1.19"/>
      <polygon class="cls-184" points="15.18 1.19 5.84 20.3 5.64 20.2 14.93 1.19 15.18 1.19"/>
      <polygon class="cls-160" points="15.43 1.19 6.04 20.4 5.84 20.3 15.18 1.19 15.43 1.19"/>
      <polygon class="cls-171" points="15.68 1.19 6.24 20.49 6.04 20.4 15.43 1.19 15.68 1.19"/>
      <polygon class="cls-25" points="15.92 1.19 6.44 20.59 6.24 20.49 15.68 1.19 15.92 1.19"/>
      <polygon class="cls-174" points="16.17 1.19 6.64 20.69 6.44 20.59 15.92 1.19 16.17 1.19"/>
      <polygon class="cls-32" points="16.42 1.19 6.84 20.79 6.64 20.69 16.17 1.19 16.42 1.19"/>
      <polygon class="cls-147" points="16.66 1.19 7.04 20.88 6.84 20.79 16.42 1.19 16.66 1.19"/>
      <polygon class="cls-126" points="16.91 1.19 7.24 20.98 7.04 20.88 16.66 1.19 16.91 1.19"/>
      <polygon class="cls-155" points="17.16 1.19 7.44 21.08 7.24 20.98 16.91 1.19 17.16 1.19"/>
      <polygon class="cls-4" points="17.41 1.19 7.64 21.18 7.44 21.08 17.16 1.19 17.41 1.19"/>
      <polygon class="cls-180" points="17.65 1.19 7.83 21.27 7.64 21.18 17.41 1.19 17.65 1.19"/>
      <polygon class="cls-101" points="17.9 1.19 8.03 21.37 7.83 21.27 17.65 1.19 17.9 1.19"/>
      <polygon class="cls-123" points="18.15 1.19 8.23 21.47 8.03 21.37 17.9 1.19 18.15 1.19"/>
      <polygon class="cls-3" points="18.39 1.19 8.43 21.57 8.23 21.47 18.15 1.19 18.39 1.19"/>
      <polygon class="cls-164" points="18.64 1.19 8.63 21.66 8.43 21.57 18.39 1.19 18.64 1.19"/>
      <polygon class="cls-182" points="18.89 1.19 8.83 21.76 8.63 21.66 18.64 1.19 18.89 1.19"/>
      <polygon class="cls-20" points="19.14 1.19 9.03 21.86 8.83 21.76 18.89 1.19 19.14 1.19"/>
      <polygon class="cls-14" points="19.38 1.19 9.23 21.96 9.03 21.86 19.14 1.19 19.38 1.19"/>
      <polygon class="cls-112" points="19.63 1.19 9.43 22.05 9.23 21.96 19.38 1.19 19.63 1.19"/>
      <polygon class="cls-43" points="19.88 1.19 9.63 22.15 9.43 22.05 19.63 1.19 19.88 1.19"/>
      <polygon class="cls-67" points="20.12 1.19 9.83 22.25 9.63 22.15 19.88 1.19 20.12 1.19"/>
      <polygon class="cls-121" points="20.37 1.19 10.03 22.35 9.83 22.25 20.12 1.19 20.37 1.19"/>
      <polygon class="cls-89" points="20.62 1.19 10.23 22.44 10.03 22.35 20.37 1.19 20.62 1.19"/>
      <polygon class="cls-33" points="20.87 1.19 10.43 22.54 10.23 22.44 20.62 1.19 20.87 1.19"/>
      <polygon class="cls-57" points="21.11 1.19 10.63 22.64 10.43 22.54 20.87 1.19 21.11 1.19"/>
      <polygon class="cls-51" points="21.36 1.19 10.83 22.74 10.63 22.64 21.11 1.19 21.36 1.19"/>
      <polygon class="cls-64" points="21.61 1.19 11.03 22.83 10.83 22.74 21.36 1.19 21.61 1.19"/>
      <polygon class="cls-47" points="21.85 1.19 11.23 22.93 11.03 22.83 21.61 1.19 21.85 1.19"/>
      <polygon class="cls-80" points="22.1 1.19 11.43 23.03 11.23 22.93 21.85 1.19 22.1 1.19"/>
      <polygon class="cls-163" points="22.35 1.19 11.63 23.13 11.43 23.03 22.1 1.19 22.35 1.19"/>
      <polygon class="cls-19" points="22.6 1.19 11.82 23.22 11.63 23.13 22.35 1.19 22.6 1.19"/>
      <polygon class="cls-139" points="22.84 1.19 12.02 23.32 11.82 23.22 22.6 1.19 22.84 1.19"/>
      <polygon class="cls-165" points="23.09 1.19 12.22 23.42 12.02 23.32 22.84 1.19 23.09 1.19"/>
      <polygon class="cls-52" points="23.34 1.19 12.42 23.52 12.22 23.42 23.09 1.19 23.34 1.19"/>
      <polygon class="cls-82" points="23.58 1.19 12.62 23.61 12.42 23.52 23.34 1.19 23.58 1.19"/>
      <polygon class="cls-16" points="23.83 1.19 12.82 23.71 12.62 23.61 23.58 1.19 23.83 1.19"/>
      <polygon class="cls-16" points="23.96 1.19 12.92 23.76 12.82 23.71 23.83 1.19 23.96 1.19"/>
      <polygon class="cls-50" points="24.08 1.19 13.02 23.81 12.92 23.76 23.96 1.19 24.08 1.19"/>
      <polygon class="cls-134" points="24.21 1.19 13.13 23.86 13.02 23.81 24.08 1.19 24.21 1.19"/>
      <polygon class="cls-65" points="24.34 1.19 13.23 23.91 13.13 23.86 24.21 1.19 24.34 1.19"/>
      <polygon class="cls-131" points="24.46 1.19 13.33 23.96 13.23 23.91 24.34 1.19 24.46 1.19"/>
      <polygon class="cls-124" points="24.59 1.19 13.43 24.01 13.33 23.96 24.46 1.19 24.59 1.19"/>
      <polygon class="cls-60" points="24.71 1.19 13.53 24.06 13.43 24.01 24.59 1.19 24.71 1.19"/>
      <polygon class="cls-95" points="24.84 1.19 13.63 24.11 13.53 24.06 24.71 1.19 24.84 1.19"/>
      <polygon class="cls-8" points="24.96 1.19 13.74 24.16 13.63 24.11 24.84 1.19 24.96 1.19"/>
      <polygon class="cls-157" points="25.09 1.19 13.84 24.21 13.74 24.16 24.96 1.19 25.09 1.19"/>
      <polygon class="cls-56" points="25.22 1.19 13.94 24.26 13.84 24.21 25.09 1.19 25.22 1.19"/>
      <polygon class="cls-7" points="25.34 1.19 14.04 24.31 13.94 24.26 25.22 1.19 25.34 1.19"/>
      <polygon class="cls-111" points="25.47 1.19 14.14 24.36 14.04 24.31 25.34 1.19 25.47 1.19"/>
      <polygon class="cls-185" points="25.59 1.19 14.24 24.41 14.14 24.36 25.47 1.19 25.59 1.19"/>
      <polygon class="cls-59" points="25.72 1.19 14.34 24.46 14.24 24.41 25.59 1.19 25.72 1.19"/>
      <polygon class="cls-84" points="25.84 1.19 14.45 24.51 14.34 24.46 25.72 1.19 25.84 1.19"/>
      <polygon class="cls-132" points="25.97 1.19 14.55 24.55 14.45 24.51 25.84 1.19 25.97 1.19"/>
      <polygon class="cls-73" points="26.1 1.19 14.65 24.6 14.55 24.55 25.97 1.19 26.1 1.19"/>
      <polygon class="cls-178" points="26.22 1.19 14.75 24.65 14.65 24.6 26.1 1.19 26.22 1.19"/>
      <polygon class="cls-130" points="26.35 1.19 14.85 24.7 14.75 24.65 26.22 1.19 26.35 1.19"/>
      <polygon class="cls-106" points="26.47 1.19 14.95 24.75 14.85 24.7 26.35 1.19 26.47 1.19"/>
      <polygon class="cls-104" points="26.6 1.19 15.05 24.8 14.95 24.75 26.47 1.19 26.6 1.19"/>
      <polygon class="cls-37" points="26.72 1.19 15.16 24.85 15.05 24.8 26.6 1.19 26.72 1.19"/>
      <polygon class="cls-79" points="26.85 1.19 15.26 24.9 15.16 24.85 26.72 1.19 26.85 1.19"/>
      <polygon class="cls-72" points="26.98 1.19 15.36 24.95 15.26 24.9 26.85 1.19 26.98 1.19"/>
      <polygon class="cls-133" points="27.1 1.19 15.46 25 15.36 24.95 26.98 1.19 27.1 1.19"/>
      <polygon class="cls-21" points="27.23 1.19 15.56 25.05 15.46 25 27.1 1.19 27.23 1.19"/>
      <polygon class="cls-103" points="27.35 1.19 15.66 25.1 15.56 25.05 27.23 1.19 27.35 1.19"/>
      <polygon class="cls-135" points="27.48 1.19 15.78 25.12 15.71 25.12 15.66 25.1 27.35 1.19 27.48 1.19"/>
      <polygon class="cls-158" points="27.6 1.19 15.9 25.12 15.78 25.12 27.48 1.19 27.6 1.19"/>
      <polygon class="cls-12" points="27.73 1.19 16.03 25.12 15.9 25.12 27.6 1.19 27.73 1.19"/>
      <polygon class="cls-61" points="27.86 1.19 16.15 25.12 16.03 25.12 27.73 1.19 27.86 1.19"/>
      <polygon class="cls-119" points="27.98 1.19 16.28 25.12 16.15 25.12 27.86 1.19 27.98 1.19"/>
      <polygon class="cls-27" points="28.11 1.19 16.41 25.12 16.28 25.12 27.98 1.19 28.11 1.19"/>
      <polygon class="cls-44" points="28.23 1.19 16.53 25.12 16.41 25.12 28.11 1.19 28.23 1.19"/>
      <polygon class="cls-42" points="28.36 1.19 16.66 25.12 16.53 25.12 28.23 1.19 28.36 1.19"/>
      <polygon class="cls-83" points="28.48 1.19 16.78 25.12 16.66 25.12 28.36 1.19 28.48 1.19"/>
      <polygon class="cls-159" points="28.61 1.19 16.91 25.12 16.78 25.12 28.48 1.19 28.61 1.19"/>
      <polygon class="cls-137" points="28.74 1.19 17.03 25.12 16.91 25.12 28.61 1.19 28.74 1.19"/>
      <polygon class="cls-5" points="28.8 1.3 17.16 25.12 17.03 25.12 28.74 1.19 28.8 1.19 28.8 1.3"/>
      <polygon class="cls-88" points="28.8 1.56 17.29 25.12 17.16 25.12 28.8 1.3 28.8 1.56"/>
      <polygon class="cls-141" points="28.8 1.82 17.41 25.12 17.29 25.12 28.8 1.56 28.8 1.82"/>
      <polygon class="cls-70" points="28.8 2.08 17.54 25.12 17.41 25.12 28.8 1.82 28.8 2.08"/>
      <polygon class="cls-91" points="28.8 2.33 17.66 25.12 17.54 25.12 28.8 2.08 28.8 2.33"/>
      <polygon class="cls-144" points="28.8 2.59 17.79 25.12 17.66 25.12 28.8 2.33 28.8 2.59"/>
      <polygon class="cls-170" points="28.8 2.85 17.91 25.12 17.79 25.12 28.8 2.59 28.8 2.85"/>
      <polygon class="cls-38" points="28.8 3.1 18.04 25.12 17.91 25.12 28.8 2.85 28.8 3.1"/>
      <polygon class="cls-28" points="28.8 3.36 18.17 25.12 18.04 25.12 28.8 3.1 28.8 3.36"/>
      <polygon class="cls-151" points="28.8 3.62 18.29 25.12 18.17 25.12 28.8 3.36 28.8 3.62"/>
      <polygon class="cls-151" points="28.8 3.95 18.45 25.12 18.29 25.12 28.8 3.62 28.8 3.95"/>
      <polygon class="cls-161" points="28.8 4.29 18.62 25.12 18.45 25.12 28.8 3.95 28.8 4.29"/>
      <polygon class="cls-23" points="28.8 4.62 18.78 25.12 18.62 25.12 28.8 4.29 28.8 4.62"/>
      <polygon class="cls-36" points="28.8 4.95 18.94 25.12 18.78 25.12 28.8 4.62 28.8 4.95"/>
      <polygon class="cls-183" points="28.8 5.29 19.11 25.12 18.94 25.12 28.8 4.95 28.8 5.29"/>
      <polygon class="cls-62" points="28.8 5.62 19.27 25.12 19.11 25.12 28.8 5.29 28.8 5.62"/>
      <polygon class="cls-76" points="28.8 5.95 19.43 25.12 19.27 25.12 28.8 5.62 28.8 5.95"/>
      <polygon class="cls-22" points="28.8 6.29 19.6 25.12 19.43 25.12 28.8 5.95 28.8 6.29"/>
      <polygon class="cls-63" points="28.8 6.62 19.76 25.12 19.6 25.12 28.8 6.29 28.8 6.62"/>
      <polygon class="cls-81" points="28.8 6.96 19.92 25.12 19.76 25.12 28.8 6.62 28.8 6.96"/>
      <polygon class="cls-86" points="28.8 7.29 20.09 25.12 19.92 25.12 28.8 6.96 28.8 7.29"/>
      <polygon class="cls-55" points="28.8 7.62 20.25 25.12 20.09 25.12 28.8 7.29 28.8 7.62"/>
      <polygon class="cls-162" points="28.8 7.96 20.41 25.12 20.25 25.12 28.8 7.62 28.8 7.96"/>
      <polygon class="cls-1" points="28.8 8.29 20.57 25.12 20.41 25.12 28.8 7.96 28.8 8.29"/>
      <polygon class="cls-176" points="28.8 8.62 20.74 25.12 20.57 25.12 28.8 8.29 28.8 8.62"/>
      <polygon class="cls-40" points="28.8 8.96 20.9 25.12 20.74 25.12 28.8 8.62 28.8 8.96"/>
      <polygon class="cls-116" points="28.8 9.29 21.06 25.12 20.9 25.12 28.8 8.96 28.8 9.29"/>
      <polygon class="cls-85" points="28.8 9.62 21.23 25.12 21.06 25.12 28.8 9.29 28.8 9.62"/>
      <polygon class="cls-29" points="28.8 9.96 21.39 25.12 21.23 25.12 28.8 9.62 28.8 9.96"/>
      <polygon class="cls-13" points="28.8 10.29 21.55 25.12 21.39 25.12 28.8 9.96 28.8 10.29"/>
      <polygon class="cls-9" points="28.8 10.62 21.72 25.12 21.55 25.12 28.8 10.29 28.8 10.62"/>
      <polygon class="cls-96" points="28.8 10.96 21.88 25.12 21.72 25.12 28.8 10.62 28.8 10.96"/>
      <polygon class="cls-26" points="28.8 11.29 22.04 25.12 21.88 25.12 28.8 10.96 28.8 11.29"/>
      <polygon class="cls-168" points="28.8 11.63 22.2 25.12 22.04 25.12 28.8 11.29 28.8 11.63"/>
      <polygon class="cls-113" points="28.8 11.96 22.37 25.12 22.2 25.12 28.8 11.63 28.8 11.96"/>
      <polygon class="cls-154" points="28.8 12.29 22.53 25.12 22.37 25.12 28.8 11.96 28.8 12.29"/>
      <polygon class="cls-58" points="28.8 12.63 22.69 25.12 22.53 25.12 28.8 12.29 28.8 12.63"/>
      <polygon class="cls-149" points="28.8 12.96 22.86 25.12 22.69 25.12 28.8 12.63 28.8 12.96"/>
      <polygon class="cls-166" points="28.8 13.29 23.02 25.12 22.86 25.12 28.8 12.96 28.8 13.29"/>
      <polygon class="cls-110" points="28.8 13.63 23.18 25.12 23.02 25.12 28.8 13.29 28.8 13.63"/>
      <polygon class="cls-46" points="28.8 13.96 23.35 25.12 23.18 25.12 28.8 13.63 28.8 13.96"/>
      <polygon class="cls-90" points="28.8 14.29 23.51 25.12 23.35 25.12 28.8 13.96 28.8 14.29"/>
      <polygon class="cls-143" points="28.8 14.63 23.67 25.12 23.51 25.12 28.8 14.29 28.8 14.63"/>
      <polygon class="cls-98" points="28.8 14.96 23.84 25.12 23.67 25.12 28.8 14.63 28.8 14.96"/>
      <polygon class="cls-24" points="28.8 15.29 24 25.12 23.84 25.12 28.8 14.96 28.8 15.29"/>
      <polygon class="cls-114" points="28.8 15.63 24.16 25.12 24 25.12 28.8 15.29 28.8 15.63"/>
      <polygon class="cls-93" points="28.8 15.96 24.32 25.12 24.16 25.12 28.8 15.63 28.8 15.96"/>
      <polygon class="cls-6" points="28.8 16.3 24.49 25.12 24.32 25.12 28.8 15.96 28.8 16.3"/>
      <polygon class="cls-148" points="28.8 16.63 24.65 25.12 24.49 25.12 28.8 16.3 28.8 16.63"/>
      <polygon class="cls-35" points="28.8 16.96 24.81 25.12 24.65 25.12 28.8 16.63 28.8 16.96"/>
      <polygon class="cls-145" points="28.8 17.3 24.98 25.12 24.81 25.12 28.8 16.96 28.8 17.3"/>
      <polygon class="cls-115" points="28.8 17.63 25.14 25.12 24.98 25.12 28.8 17.3 28.8 17.63"/>
      <polygon class="cls-109" points="28.8 17.96 25.3 25.12 25.14 25.12 28.8 17.63 28.8 17.96"/>
      <polygon class="cls-45" points="28.8 18.3 25.47 25.12 25.3 25.12 28.8 17.96 28.8 18.3"/>
      <polygon class="cls-18" points="28.8 18.63 25.63 25.12 25.47 25.12 28.8 18.3 28.8 18.63"/>
      <polygon class="cls-17" points="28.8 18.96 25.79 25.12 25.63 25.12 28.8 18.63 28.8 18.96"/>
      <polygon class="cls-153" points="28.8 19.3 25.95 25.12 25.79 25.12 28.8 18.96 28.8 19.3"/>
      <polygon class="cls-150" points="28.8 19.63 26.12 25.12 25.95 25.12 28.8 19.3 28.8 19.63"/>
      <polygon class="cls-66" points="28.8 19.97 26.28 25.12 26.12 25.12 28.8 19.63 28.8 19.97"/>
      <polygon class="cls-129" points="28.8 20.3 26.44 25.12 26.28 25.12 28.8 19.97 28.8 20.3"/>
      <polygon class="cls-34" points="28.8 20.63 26.61 25.12 26.44 25.12 28.8 20.3 28.8 20.63"/>
      <polygon class="cls-173" points="28.8 20.97 26.77 25.12 26.61 25.12 28.8 20.63 28.8 20.97"/>
      <polygon class="cls-39" points="28.8 21.3 26.93 25.12 26.77 25.12 28.8 20.97 28.8 21.3"/>
      <polygon class="cls-118" points="28.8 21.63 27.1 25.12 26.93 25.12 28.8 21.3 28.8 21.63"/>
      <polygon class="cls-108" points="28.8 21.97 27.26 25.12 27.1 25.12 28.8 21.63 28.8 21.97"/>
      <polygon class="cls-78" points="28.8 22.3 27.42 25.12 27.26 25.12 28.8 21.97 28.8 22.3"/>
      <polygon class="cls-75" points="28.8 22.63 27.59 25.12 27.42 25.12 28.8 22.3 28.8 22.63"/>
      <polygon class="cls-41" points="28.8 22.97 27.75 25.12 27.59 25.12 28.8 22.63 28.8 22.97"/>
      <polygon class="cls-41" points="28.8 23.27 27.9 25.12 27.75 25.12 28.8 22.97 28.8 23.27"/>
      <polygon class="cls-156" points="28.8 23.58 28.05 25.12 27.9 25.12 28.8 23.27 28.8 23.58"/>
      <polygon class="cls-128" points="28.8 23.88 28.2 25.12 28.05 25.12 28.8 23.58 28.8 23.88"/>
      <polygon class="cls-136" points="28.8 24.19 28.34 25.12 28.2 25.12 28.8 23.88 28.8 24.19"/>
      <polygon class="cls-92" points="28.8 24.49 28.49 25.12 28.34 25.12 28.8 24.19 28.8 24.49"/>
      <polygon class="cls-69" points="28.8 24.8 28.64 25.12 28.49 25.12 28.8 24.49 28.8 24.8"/>
      <polygon class="cls-69" points="28.64 25.12 28.8 24.8 28.8 25.12 28.64 25.12"/>
      <polygon class="cls-186" points="8.16 1.82 8.11 1.92 8.11 1.82 8.16 1.82"/>
      <polygon class="cls-152" points="8.54 1.82 8.11 2.68 8.11 1.92 8.16 1.82 8.54 1.82"/>
      <polygon class="cls-138" points="8.91 1.82 8.11 3.45 8.11 2.68 8.54 1.82 8.91 1.82"/>
      <polygon class="cls-140" points="9.28 1.82 8.11 4.21 8.11 3.45 8.91 1.82 9.28 1.82"/>
      <polygon class="cls-15" points="9.66 1.82 8.11 4.97 8.11 4.21 9.28 1.82 9.66 1.82"/>
      <polygon class="cls-54" points="10.03 1.82 8.11 5.74 8.11 4.97 9.66 1.82 10.03 1.82"/>
      <polygon class="cls-102" points="10.4 1.82 8.11 6.5 8.11 5.74 10.03 1.82 10.4 1.82"/>
      <polygon class="cls-97" points="10.77 1.82 8.47 6.54 8.11 6.54 8.11 6.5 10.4 1.82 10.77 1.82"/>
      <polygon class="cls-77" points="11.15 1.82 8.84 6.54 8.47 6.54 10.77 1.82 11.15 1.82"/>
      <polygon class="cls-107" points="11.52 1.82 9.21 6.54 8.84 6.54 11.15 1.82 11.52 1.82"/>
      <polygon class="cls-167" points="11.89 1.82 9.59 6.54 9.21 6.54 11.52 1.82 11.89 1.82"/>
      <polygon class="cls-2" points="12.27 1.82 9.96 6.54 9.59 6.54 11.89 1.82 12.27 1.82"/>
      <polygon class="cls-94" points="12.64 1.82 10.33 6.54 9.96 6.54 12.27 1.82 12.64 1.82"/>
      <polygon class="cls-125" points="12.84 2.18 10.7 6.54 10.33 6.54 12.64 1.82 12.84 1.82 12.84 2.18"/>
      <polygon class="cls-169" points="12.84 2.94 11.08 6.54 10.7 6.54 12.84 2.18 12.84 2.94"/>
      <polygon class="cls-99" points="12.84 3.7 11.45 6.54 11.08 6.54 12.84 2.94 12.84 3.7"/>
      <polygon class="cls-172" points="12.84 4.47 11.82 6.54 11.45 6.54 12.84 3.7 12.84 4.47"/>
      <polygon class="cls-172" points="12.84 4.97 12.07 6.54 11.82 6.54 12.84 4.47 12.84 4.97"/>
      <polygon class="cls-117" points="12.84 5.48 12.32 6.54 12.07 6.54 12.84 4.97 12.84 5.48"/>
      <polygon class="cls-184" points="12.84 5.98 12.56 6.54 12.32 6.54 12.84 5.48 12.84 5.98"/>
      <polygon class="cls-160" points="12.84 6.49 12.81 6.54 12.56 6.54 12.84 5.98 12.84 6.49"/>
      <polygon class="cls-171" points="12.81 6.54 12.84 6.49 12.84 6.54 12.81 6.54"/>
      <polygon class="cls-127" points="3.1 .2 2.83 .77 2.83 .2 3.1 .2"/>
      <polygon class="cls-30" points="3.54 .2 2.83 1.66 2.83 .77 3.1 .2 3.54 .2"/>
      <polygon class="cls-87" points="3.98 .2 2.83 2.55 2.83 1.66 3.54 .2 3.98 .2"/>
      <polygon class="cls-175" points="4.41 .2 2.83 3.45 2.83 2.55 3.98 .2 4.41 .2"/>
      <polygon class="cls-100" points="4.85 .2 2.83 4.34 2.83 3.45 4.41 .2 4.85 .2"/>
      <polygon class="cls-100" points="5.22 .2 2.83 5.1 2.83 4.34 4.85 .2 5.22 .2"/>
      <polygon class="cls-11" points="5.6 .2 2.83 5.87 2.83 5.1 5.22 .2 5.6 .2"/>
      <polygon class="cls-177" points="5.97 .2 2.83 6.63 2.83 5.87 5.6 .2 5.97 .2"/>
      <polygon class="cls-49" points="6.34 .2 2.83 7.39 2.83 6.63 5.97 .2 6.34 .2"/>
      <polygon class="cls-48" points="6.72 .2 2.83 8.16 2.83 7.39 6.34 .2 6.72 .2"/>
      <polygon class="cls-146" points="7.09 .2 2.83 8.92 2.83 8.16 6.72 .2 7.09 .2"/>
      <polygon class="cls-181" points="7.46 .2 2.83 9.68 2.83 8.92 7.09 .2 7.46 .2"/>
      <polygon class="cls-53" points="7.84 .2 2.83 10.44 2.83 9.68 7.46 .2 7.84 .2"/>
      <polygon class="cls-142" points="8.21 .2 2.83 11.21 2.83 10.44 7.84 .2 8.21 .2"/>
      <polygon class="cls-74" points="8.58 .2 2.83 11.97 2.83 11.21 8.21 .2 8.58 .2"/>
      <polygon class="cls-186" points="8.95 .2 2.83 12.73 2.83 11.97 8.58 .2 8.95 .2"/>
      <polygon class="cls-152" points="9.33 .2 2.83 13.5 2.83 12.73 8.95 .2 9.33 .2"/>
      <polygon class="cls-138" points="9.7 .2 2.83 14.26 2.83 13.5 9.33 .2 9.7 .2"/>
      <polygon class="cls-140" points="10.07 .2 2.83 15.02 2.83 14.26 9.7 .2 10.07 .2"/>
      <polygon class="cls-15" points="10.45 .2 2.83 15.79 2.83 15.02 10.07 .2 10.45 .2"/>
      <polygon class="cls-54" points="10.82 .2 2.83 16.55 2.83 15.79 10.45 .2 10.82 .2"/>
      <polygon class="cls-102" points="11.19 .2 2.83 17.31 2.83 16.55 10.82 .2 11.19 .2"/>
      <polygon class="cls-97" points="11.56 .2 2.83 18.07 2.83 17.31 11.19 .2 11.56 .2"/>
      <polygon class="cls-77" points="11.94 .2 2.83 18.84 2.83 18.07 11.56 .2 11.94 .2"/>
      <polygon class="cls-107" points="12.31 .2 2.83 19.6 2.83 18.84 11.94 .2 12.31 .2"/>
      <polygon class="cls-167" points="12.68 .2 2.83 20.36 2.83 19.6 12.31 .2 12.68 .2"/>
      <polygon class="cls-2" points="13.06 .2 2.83 21.13 2.83 20.36 12.68 .2 13.06 .2"/>
      <polygon class="cls-94" points="13.43 .2 2.83 21.89 2.83 21.13 13.06 .2 13.43 .2"/>
      <polygon class="cls-125" points="13.8 .2 2.83 22.65 2.83 21.89 13.43 .2 13.8 .2"/>
      <polygon class="cls-169" points="14.18 .2 2.83 23.42 2.83 22.65 13.8 .2 14.18 .2"/>
      <polygon class="cls-99" points="14.55 .2 2.83 24.18 2.83 23.42 14.18 .2 14.55 .2"/>
      <polygon class="cls-172" points="14.92 .2 2.83 24.94 2.83 24.18 14.55 .2 14.92 .2"/>
      <polygon class="cls-172" points="15.17 .2 2.83 25.45 2.83 24.94 14.92 .2 15.17 .2"/>
      <polygon class="cls-117" points="15.42 .2 2.83 25.95 2.83 25.45 15.17 .2 15.42 .2"/>
      <polygon class="cls-184" points="15.66 .2 2.83 26.46 2.83 25.95 15.42 .2 15.66 .2"/>
      <polygon class="cls-160" points="15.91 .2 2.83 26.96 2.83 26.46 15.66 .2 15.91 .2"/>
      <polygon class="cls-171" points="16.16 .2 2.83 27.47 2.83 26.96 15.91 .2 16.16 .2"/>
      <polygon class="cls-25" points="16.4 .2 2.83 27.98 2.83 27.47 16.16 .2 16.4 .2"/>
      <polygon class="cls-174" points="16.65 .2 2.83 28.48 2.83 27.98 16.4 .2 16.65 .2"/>
      <polygon class="cls-32" points="16.9 .2 2.83 28.99 2.83 28.48 16.65 .2 16.9 .2"/>
      <polygon class="cls-147" points="17.15 .2 2.83 29.49 2.83 28.99 16.9 .2 17.15 .2"/>
      <polygon class="cls-126" points="17.39 .2 2.83 30 2.83 29.49 17.15 .2 17.39 .2"/>
      <polygon class="cls-155" points="17.64 .2 2.83 30.5 2.83 30 17.39 .2 17.64 .2"/>
      <polygon class="cls-4" points="17.89 .2 2.83 31.01 2.83 30.5 17.64 .2 17.89 .2"/>
      <polygon class="cls-180" points="18.13 .2 2.83 31.52 2.83 31.01 17.89 .2 18.13 .2"/>
      <polygon class="cls-101" points="18.38 .2 2.83 32.02 2.83 31.52 18.13 .2 18.38 .2"/>
      <polygon class="cls-123" points="18.63 .2 2.83 32.53 2.83 32.02 18.38 .2 18.63 .2"/>
      <polygon class="cls-3" points="18.88 .2 2.83 33.03 2.83 32.53 18.63 .2 18.88 .2"/>
      <polygon class="cls-164" points="19.12 .2 2.97 33.26 2.83 33.19 2.83 33.03 18.88 .2 19.12 .2"/>
      <polygon class="cls-182" points="19.37 .2 3.17 33.35 2.97 33.26 19.12 .2 19.37 .2"/>
      <polygon class="cls-20" points="19.62 .2 3.37 33.45 3.17 33.35 19.37 .2 19.62 .2"/>
      <polygon class="cls-14" points="19.86 .2 3.57 33.55 3.37 33.45 19.62 .2 19.86 .2"/>
      <polygon class="cls-112" points="20.11 .2 3.76 33.65 3.57 33.55 19.86 .2 20.11 .2"/>
      <polygon class="cls-43" points="20.36 .2 3.96 33.74 3.76 33.65 20.11 .2 20.36 .2"/>
      <polygon class="cls-67" points="20.61 .2 4.18 33.8 4.08 33.8 3.96 33.74 20.36 .2 20.61 .2"/>
      <polygon class="cls-121" points="20.85 .2 4.43 33.8 4.18 33.8 20.61 .2 20.85 .2"/>
      <polygon class="cls-89" points="21.1 .2 4.68 33.8 4.43 33.8 20.85 .2 21.1 .2"/>
      <polygon class="cls-33" points="21.35 .2 4.93 33.8 4.68 33.8 21.1 .2 21.35 .2"/>
      <polygon class="cls-57" points="21.59 .2 5.17 33.8 4.93 33.8 21.35 .2 21.59 .2"/>
      <polygon class="cls-51" points="21.84 .2 5.42 33.8 5.17 33.8 21.59 .2 21.84 .2"/>
      <polygon class="cls-64" points="22.09 .2 5.67 33.8 5.42 33.8 21.84 .2 22.09 .2"/>
      <polygon class="cls-47" points="22.34 .2 5.91 33.8 5.67 33.8 22.09 .2 22.34 .2"/>
      <polygon class="cls-80" points="22.58 .2 6.16 33.8 5.91 33.8 22.34 .2 22.58 .2"/>
      <polygon class="cls-163" points="22.83 .2 6.41 33.8 6.16 33.8 22.58 .2 22.83 .2"/>
      <polygon class="cls-19" points="23.08 .2 6.66 33.8 6.41 33.8 22.83 .2 23.08 .2"/>
      <polygon class="cls-139" points="23.32 .2 6.9 33.8 6.66 33.8 23.08 .2 23.32 .2"/>
      <polygon class="cls-165" points="23.57 .2 7.15 33.8 6.9 33.8 23.32 .2 23.57 .2"/>
      <polygon class="cls-52" points="23.82 .2 7.4 33.8 7.15 33.8 23.57 .2 23.82 .2"/>
      <polygon class="cls-82" points="24.07 .2 7.64 33.8 7.4 33.8 23.82 .2 24.07 .2"/>
      <polygon class="cls-16" points="24.31 .2 7.89 33.8 7.64 33.8 24.07 .2 24.31 .2"/>
      <polygon class="cls-16" points="24.44 .2 8.02 33.8 7.89 33.8 24.31 .2 24.44 .2"/>
      <polygon class="cls-50" points="24.56 .2 8.14 33.8 8.02 33.8 24.44 .2 24.56 .2"/>
      <polygon class="cls-134" points="24.69 .2 8.27 33.8 8.14 33.8 24.56 .2 24.69 .2"/>
      <polygon class="cls-65" points="24.82 .2 8.39 33.8 8.27 33.8 24.69 .2 24.82 .2"/>
      <polygon class="cls-131" points="24.94 .2 8.52 33.8 8.39 33.8 24.82 .2 24.94 .2"/>
      <polygon class="cls-124" points="25.07 .2 8.65 33.8 8.52 33.8 24.94 .2 25.07 .2"/>
      <polygon class="cls-60" points="25.19 .2 8.77 33.8 8.65 33.8 25.07 .2 25.19 .2"/>
      <polygon class="cls-95" points="25.32 .2 8.9 33.8 8.77 33.8 25.19 .2 25.32 .2"/>
      <polygon class="cls-8" points="25.44 .2 9.02 33.8 8.9 33.8 25.32 .2 25.44 .2"/>
      <polygon class="cls-157" points="25.57 .2 9.15 33.8 9.02 33.8 25.44 .2 25.57 .2"/>
      <polygon class="cls-56" points="25.7 .2 9.27 33.8 9.15 33.8 25.57 .2 25.7 .2"/>
      <polygon class="cls-7" points="25.82 .2 9.4 33.8 9.27 33.8 25.7 .2 25.82 .2"/>
      <polygon class="cls-111" points="25.95 .2 9.53 33.8 9.4 33.8 25.82 .2 25.95 .2"/>
      <polygon class="cls-185" points="26.07 .2 9.65 33.8 9.53 33.8 25.95 .2 26.07 .2"/>
      <polygon class="cls-59" points="26.2 .2 9.78 33.8 9.65 33.8 26.07 .2 26.2 .2"/>
      <polygon class="cls-84" points="26.32 .2 9.9 33.8 9.78 33.8 26.2 .2 26.32 .2"/>
      <polygon class="cls-132" points="26.45 .2 10.03 33.8 9.9 33.8 26.32 .2 26.45 .2"/>
      <polygon class="cls-73" points="26.58 .2 10.15 33.8 10.03 33.8 26.45 .2 26.58 .2"/>
      <polygon class="cls-178" points="26.7 .2 10.28 33.8 10.15 33.8 26.58 .2 26.7 .2"/>
      <polygon class="cls-130" points="26.83 .2 10.41 33.8 10.28 33.8 26.7 .2 26.83 .2"/>
      <polygon class="cls-106" points="26.95 .2 10.53 33.8 10.41 33.8 26.83 .2 26.95 .2"/>
      <polygon class="cls-104" points="27.08 .2 10.66 33.8 10.53 33.8 26.95 .2 27.08 .2"/>
      <polygon class="cls-37" points="27.2 .2 10.78 33.8 10.66 33.8 27.08 .2 27.2 .2"/>
      <polygon class="cls-79" points="27.33 .2 10.91 33.8 10.78 33.8 27.2 .2 27.33 .2"/>
      <polygon class="cls-72" points="27.46 .2 11.03 33.8 10.91 33.8 27.33 .2 27.46 .2"/>
      <polygon class="cls-133" points="27.58 .2 11.16 33.8 11.03 33.8 27.46 .2 27.58 .2"/>
      <polygon class="cls-21" points="27.71 .2 11.29 33.8 11.16 33.8 27.58 .2 27.71 .2"/>
      <polygon class="cls-103" points="27.83 .2 11.41 33.8 11.29 33.8 27.71 .2 27.83 .2"/>
      <polygon class="cls-135" points="27.96 .2 11.54 33.8 11.41 33.8 27.83 .2 27.96 .2"/>
      <polygon class="cls-158" points="28.08 .2 11.66 33.8 11.54 33.8 27.96 .2 28.08 .2"/>
      <polygon class="cls-12" points="28.21 .2 11.79 33.8 11.66 33.8 28.08 .2 28.21 .2"/>
      <polygon class="cls-61" points="28.34 .2 11.91 33.8 11.79 33.8 28.21 .2 28.34 .2"/>
      <polygon class="cls-119" points="28.46 .2 12.04 33.8 11.91 33.8 28.34 .2 28.46 .2"/>
      <polygon class="cls-27" points="28.59 .2 12.17 33.8 12.04 33.8 28.46 .2 28.59 .2"/>
      <polygon class="cls-44" points="28.71 .2 12.29 33.8 12.17 33.8 28.59 .2 28.71 .2"/>
      <polygon class="cls-42" points="28.84 .2 12.42 33.8 12.29 33.8 28.71 .2 28.84 .2"/>
      <polygon class="cls-83" points="28.96 .2 12.54 33.8 12.42 33.8 28.84 .2 28.96 .2"/>
      <polygon class="cls-159" points="29.09 .2 12.67 33.8 12.54 33.8 28.96 .2 29.09 .2"/>
      <polygon class="cls-137" points="29.22 .2 12.79 33.8 12.67 33.8 29.09 .2 29.22 .2"/>
      <polygon class="cls-5" points="29.34 .2 12.92 33.8 12.79 33.8 29.22 .2 29.34 .2"/>
      <polygon class="cls-88" points="29.47 .2 13.05 33.8 12.92 33.8 29.34 .2 29.47 .2"/>
      <polygon class="cls-141" points="29.59 .2 13.17 33.8 13.05 33.8 29.47 .2 29.59 .2"/>
      <polygon class="cls-70" points="29.72 .2 13.3 33.8 13.17 33.8 29.59 .2 29.72 .2"/>
      <polygon class="cls-91" points="29.79 .2 29.83 .22 13.42 33.8 13.3 33.8 29.72 .2 29.79 .2"/>
      <polygon class="cls-144" points="29.83 .22 29.94 .27 13.55 33.8 13.42 33.8 29.83 .22"/>
      <polygon class="cls-170" points="29.94 .27 30.04 .32 13.67 33.8 13.55 33.8 29.94 .27"/>
      <polygon class="cls-38" points="30.04 .32 30.14 .37 13.8 33.8 13.67 33.8 30.04 .32"/>
      <polygon class="cls-28" points="30.14 .37 30.24 .42 13.93 33.8 13.8 33.8 30.14 .37"/>
      <polygon class="cls-151" points="30.24 .42 30.34 .47 14.05 33.8 13.93 33.8 30.24 .42"/>
      <polygon class="cls-151" points="30.34 .47 30.47 .53 14.22 33.8 14.05 33.8 30.34 .47"/>
      <polygon class="cls-161" points="30.47 .53 30.61 .6 14.38 33.8 14.22 33.8 30.47 .53"/>
      <polygon class="cls-23" points="30.61 .6 30.74 .66 14.54 33.8 14.38 33.8 30.61 .6"/>
      <polygon class="cls-36" points="30.74 .66 30.87 .73 14.7 33.8 14.54 33.8 30.74 .66"/>
      <polygon class="cls-183" points="30.87 .73 31 .79 14.87 33.8 14.7 33.8 30.87 .73"/>
      <polygon class="cls-62" points="31 .79 31.13 .86 15.03 33.8 14.87 33.8 31 .79"/>
      <polygon class="cls-76" points="31.13 .86 31.26 .92 15.19 33.8 15.03 33.8 31.13 .86"/>
      <polygon class="cls-22" points="31.26 .92 31.4 .98 15.36 33.8 15.19 33.8 31.26 .92"/>
      <polygon class="cls-63" points="31.4 .98 31.53 1.05 15.52 33.8 15.36 33.8 31.4 .98"/>
      <polygon class="cls-81" points="31.53 1.05 31.66 1.11 15.68 33.8 15.52 33.8 31.53 1.05"/>
      <polygon class="cls-86" points="31.66 1.11 31.79 1.18 15.85 33.8 15.68 33.8 31.66 1.11"/>
      <polygon class="cls-55" points="31.79 1.18 31.92 1.24 16.01 33.8 15.85 33.8 31.79 1.18"/>
      <polygon class="cls-162" points="31.92 1.24 32.05 1.31 16.17 33.8 16.01 33.8 31.92 1.24"/>
      <polygon class="cls-1" points="32.05 1.31 32.18 1.37 16.33 33.8 16.17 33.8 32.05 1.31"/>
      <polygon class="cls-176" points="32.18 1.37 32.32 1.43 16.5 33.8 16.33 33.8 32.18 1.37"/>
      <polygon class="cls-40" points="32.32 1.43 32.45 1.5 16.66 33.8 16.5 33.8 32.32 1.43"/>
      <polygon class="cls-116" points="32.45 1.5 32.58 1.56 16.82 33.8 16.66 33.8 32.45 1.5"/>
      <polygon class="cls-85" points="32.58 1.56 32.71 1.63 16.99 33.8 16.82 33.8 32.58 1.56"/>
      <polygon class="cls-29" points="32.71 1.63 32.84 1.69 17.15 33.8 16.99 33.8 32.71 1.63"/>
      <polygon class="cls-13" points="32.84 1.69 32.97 1.76 17.31 33.8 17.15 33.8 32.84 1.69"/>
      <polygon class="cls-9" points="32.97 1.76 33.11 1.82 17.48 33.8 17.31 33.8 32.97 1.76"/>
      <polygon class="cls-96" points="33.11 1.82 33.17 1.85 33.17 2.02 17.64 33.8 17.48 33.8 33.11 1.82"/>
      <polygon class="cls-26" points="33.17 2.35 17.8 33.8 17.64 33.8 33.17 2.02 33.17 2.35"/>
      <polygon class="cls-168" points="33.17 2.69 17.97 33.8 17.8 33.8 33.17 2.35 33.17 2.69"/>
      <polygon class="cls-113" points="33.17 3.02 18.13 33.8 17.97 33.8 33.17 2.69 33.17 3.02"/>
      <polygon class="cls-154" points="33.17 3.35 18.29 33.8 18.13 33.8 33.17 3.02 33.17 3.35"/>
      <polygon class="cls-58" points="33.17 3.69 18.45 33.8 18.29 33.8 33.17 3.35 33.17 3.69"/>
      <polygon class="cls-149" points="33.17 4.02 18.62 33.8 18.45 33.8 33.17 3.69 33.17 4.02"/>
      <polygon class="cls-166" points="33.17 4.36 18.78 33.8 18.62 33.8 33.17 4.02 33.17 4.36"/>
      <polygon class="cls-110" points="33.17 4.69 18.94 33.8 18.78 33.8 33.17 4.36 33.17 4.69"/>
      <polygon class="cls-46" points="33.17 5.02 19.11 33.8 18.94 33.8 33.17 4.69 33.17 5.02"/>
      <polygon class="cls-90" points="33.17 5.36 19.27 33.8 19.11 33.8 33.17 5.02 33.17 5.36"/>
      <polygon class="cls-143" points="33.17 5.69 19.43 33.8 19.27 33.8 33.17 5.36 33.17 5.69"/>
      <polygon class="cls-98" points="33.17 6.02 19.6 33.8 19.43 33.8 33.17 5.69 33.17 6.02"/>
      <polygon class="cls-24" points="33.17 6.36 19.76 33.8 19.6 33.8 33.17 6.02 33.17 6.36"/>
      <polygon class="cls-114" points="33.17 6.69 19.92 33.8 19.76 33.8 33.17 6.36 33.17 6.69"/>
      <polygon class="cls-93" points="33.17 7.02 20.08 33.8 19.92 33.8 33.17 6.69 33.17 7.02"/>
      <polygon class="cls-6" points="33.17 7.36 20.25 33.8 20.08 33.8 33.17 7.02 33.17 7.36"/>
      <polygon class="cls-148" points="33.17 7.69 20.41 33.8 20.25 33.8 33.17 7.36 33.17 7.69"/>
      <polygon class="cls-35" points="33.17 8.03 20.57 33.8 20.41 33.8 33.17 7.69 33.17 8.03"/>
      <polygon class="cls-145" points="33.17 8.36 20.74 33.8 20.57 33.8 33.17 8.03 33.17 8.36"/>
      <polygon class="cls-115" points="33.17 8.69 20.9 33.8 20.74 33.8 33.17 8.36 33.17 8.69"/>
      <polygon class="cls-109" points="33.17 9.03 21.06 33.8 20.9 33.8 33.17 8.69 33.17 9.03"/>
      <polygon class="cls-45" points="33.17 9.36 21.23 33.8 21.06 33.8 33.17 9.03 33.17 9.36"/>
      <polygon class="cls-18" points="33.17 9.69 21.39 33.8 21.23 33.8 33.17 9.36 33.17 9.69"/>
      <polygon class="cls-17" points="33.17 10.03 21.55 33.8 21.39 33.8 33.17 9.69 33.17 10.03"/>
      <polygon class="cls-153" points="33.17 10.36 21.72 33.8 21.55 33.8 33.17 10.03 33.17 10.36"/>
      <polygon class="cls-150" points="33.17 10.69 21.88 33.8 21.72 33.8 33.17 10.36 33.17 10.69"/>
      <polygon class="cls-66" points="33.17 11.03 22.04 33.8 21.88 33.8 33.17 10.69 33.17 11.03"/>
      <polygon class="cls-129" points="33.17 11.36 22.2 33.8 22.04 33.8 33.17 11.03 33.17 11.36"/>
      <polygon class="cls-34" points="33.17 11.69 22.37 33.8 22.2 33.8 33.17 11.36 33.17 11.69"/>
      <polygon class="cls-173" points="33.17 12.03 22.53 33.8 22.37 33.8 33.17 11.69 33.17 12.03"/>
      <polygon class="cls-39" points="33.17 12.36 22.69 33.8 22.53 33.8 33.17 12.03 33.17 12.36"/>
      <polygon class="cls-118" points="33.17 12.7 22.86 33.8 22.69 33.8 33.17 12.36 33.17 12.7"/>
      <polygon class="cls-108" points="33.17 13.03 23.02 33.8 22.86 33.8 33.17 12.7 33.17 13.03"/>
      <polygon class="cls-78" points="33.17 13.36 23.18 33.8 23.02 33.8 33.17 13.03 33.17 13.36"/>
      <polygon class="cls-75" points="33.17 13.7 23.35 33.8 23.18 33.8 33.17 13.36 33.17 13.7"/>
      <polygon class="cls-41" points="33.17 14.03 23.51 33.8 23.35 33.8 33.17 13.7 33.17 14.03"/>
      <polygon class="cls-41" points="33.17 14.33 23.66 33.8 23.51 33.8 33.17 14.03 33.17 14.33"/>
      <polygon class="cls-156" points="33.17 14.64 23.81 33.8 23.66 33.8 33.17 14.33 33.17 14.64"/>
      <polygon class="cls-128" points="33.17 14.94 23.96 33.8 23.81 33.8 33.17 14.64 33.17 14.94"/>
      <polygon class="cls-136" points="33.17 15.25 24.1 33.8 23.96 33.8 33.17 14.94 33.17 15.25"/>
      <polygon class="cls-92" points="33.17 15.55 24.25 33.8 24.1 33.8 33.17 15.25 33.17 15.55"/>
      <polygon class="cls-69" points="33.17 15.86 24.4 33.8 24.25 33.8 33.17 15.55 33.17 15.86"/>
      <polygon class="cls-69" points="24.4 33.8 33.17 15.86 33.17 33.8 24.4 33.8"/>
    </g>
    <path class="cls-10" d="M30.84,9.17l-.95-.65V2.96c0-1.58-1.28-2.86-2.86-2.86h-12.6c-.91,0-1.77.36-2.42,1l-4.61,4.61c-.65.65-1,1.51-1,2.42v.18l-1.23.85c-1.49,1.03-2.4,2.74-2.44,4.57v14.51c0,3.12,2.54,5.66,5.66,5.66h19.23c1.01,0,2-.27,2.87-.78.14-.08.23-.21.27-.36.04-.15.02-.31-.06-.45-.17-.28-.53-.38-.81-.21-.68.4-1.47.61-2.26.61H8.38c-2.46,0-4.47-2.01-4.47-4.47v-11.14c.35.46.77.85,1.25,1.18l9.62,6.66c.94.65,2.06,1,3.22,1s2.27-.34,3.22-1l9.62-6.66c.47-.33.9-.73,1.25-1.18v11.14c0,.99-.31,1.92-.91,2.7-.2.26-.15.63.11.83.25.19.64.14.84-.11.76-.99,1.15-2.18,1.15-3.42v-14.42c0-1.86-.91-3.6-2.44-4.65ZM12.68,2.12c0,.08-.01.15-.01.23v2.35c0,.92-.75,1.67-1.67,1.67h-2.35c-.08,0-.16,0-.23.01l4.27-4.27ZM28.7,18.32l-8.16,5.65c-1.52,1.05-3.56,1.05-5.09,0l-7.87-5.45v-5.49c0-.33-.27-.59-.59-.59s-.59.26-.59.59v4.67l-.55-.38c-1.18-.81-1.89-2.15-1.92-3.57.03-1.43.75-2.77,1.92-3.58l.55-.38v1.29c0,.33.27.59.59.59s.59-.27.59-.59v-2.43c0-.59.48-1.06,1.06-1.06h2.35c1.57,0,2.86-1.29,2.86-2.86v-2.35c0-.58.48-1.06,1.06-1.06h12.12c.92,0,1.67.75,1.67,1.67v15.36ZM30.16,17.31l-.27.19v-7.53l.27.19c1.17.81,1.89,2.15,1.92,3.57-.03,1.43-.74,2.77-1.92,3.59Z"/>
  </g>
  <g>
    <g class="cls-189">
      <polygon class="cls-182" points="6.56 26.42 6.37 26.8 6.37 26.42 6.56 26.42"/>
      <polygon class="cls-20" points="6.8 26.42 6.37 27.31 6.37 26.8 6.56 26.42 6.8 26.42"/>
      <polygon class="cls-14" points="7.05 26.42 6.37 27.81 6.37 27.31 6.8 26.42 7.05 26.42"/>
      <polygon class="cls-112" points="7.3 26.42 6.37 28.32 6.37 27.81 7.05 26.42 7.3 26.42"/>
      <polygon class="cls-43" points="7.55 26.42 6.37 28.82 6.37 28.32 7.3 26.42 7.55 26.42"/>
      <polygon class="cls-67" points="7.79 26.42 6.37 29.33 6.37 28.82 7.55 26.42 7.79 26.42"/>
      <polygon class="cls-121" points="8.04 26.42 6.37 29.83 6.37 29.33 7.79 26.42 8.04 26.42"/>
      <polygon class="cls-89" points="8.29 26.42 6.37 30.34 6.37 29.83 8.04 26.42 8.29 26.42"/>
      <polygon class="cls-33" points="8.53 26.42 6.37 30.84 6.37 30.34 8.29 26.42 8.53 26.42"/>
      <polygon class="cls-57" points="8.78 26.42 6.47 31.14 6.37 31.14 6.37 30.84 8.53 26.42 8.78 26.42"/>
      <polygon class="cls-51" points="9.03 26.42 6.72 31.14 6.47 31.14 8.78 26.42 9.03 26.42"/>
      <polygon class="cls-64" points="9.28 26.42 6.97 31.14 6.72 31.14 9.03 26.42 9.28 26.42"/>
      <polygon class="cls-47" points="9.52 26.42 7.22 31.14 6.97 31.14 9.28 26.42 9.52 26.42"/>
      <polygon class="cls-80" points="9.77 26.42 7.46 31.14 7.22 31.14 9.52 26.42 9.77 26.42"/>
      <polygon class="cls-163" points="10.02 26.42 7.71 31.14 7.46 31.14 9.77 26.42 10.02 26.42"/>
      <polygon class="cls-19" points="10.26 26.42 7.96 31.14 7.71 31.14 10.02 26.42 10.26 26.42"/>
      <polygon class="cls-139" points="10.51 26.42 8.2 31.14 7.96 31.14 10.26 26.42 10.51 26.42"/>
      <polygon class="cls-165" points="10.76 26.42 8.45 31.14 8.2 31.14 10.51 26.42 10.76 26.42"/>
      <polygon class="cls-52" points="11.01 26.42 8.7 31.14 8.45 31.14 10.76 26.42 11.01 26.42"/>
      <polygon class="cls-82" points="11.25 26.42 8.95 31.14 8.7 31.14 11.01 26.42 11.25 26.42"/>
      <polygon class="cls-16" points="11.5 26.42 9.19 31.14 8.95 31.14 11.25 26.42 11.5 26.42"/>
      <polygon class="cls-16" points="11.63 26.42 9.32 31.14 9.19 31.14 11.5 26.42 11.63 26.42"/>
      <polygon class="cls-50" points="11.75 26.42 9.44 31.14 9.32 31.14 11.63 26.42 11.75 26.42"/>
      <polygon class="cls-134" points="11.88 26.42 9.57 31.14 9.44 31.14 11.75 26.42 11.88 26.42"/>
      <polygon class="cls-65" points="12 26.42 9.7 31.14 9.57 31.14 11.88 26.42 12 26.42"/>
      <polygon class="cls-131" points="12.13 26.42 9.82 31.14 9.7 31.14 12 26.42 12.13 26.42"/>
      <polygon class="cls-124" points="12.25 26.42 9.95 31.14 9.82 31.14 12.13 26.42 12.25 26.42"/>
      <polygon class="cls-60" points="12.38 26.42 10.07 31.14 9.95 31.14 12.25 26.42 12.38 26.42"/>
      <polygon class="cls-95" points="12.51 26.42 10.2 31.14 10.07 31.14 12.38 26.42 12.51 26.42"/>
      <polygon class="cls-8" points="12.63 26.42 10.32 31.14 10.2 31.14 12.51 26.42 12.63 26.42"/>
      <polygon class="cls-157" points="12.76 26.42 10.45 31.14 10.32 31.14 12.63 26.42 12.76 26.42"/>
      <polygon class="cls-56" points="12.88 26.42 10.58 31.14 10.45 31.14 12.76 26.42 12.88 26.42"/>
      <polygon class="cls-7" points="13.01 26.42 10.7 31.14 10.58 31.14 12.88 26.42 13.01 26.42"/>
      <polygon class="cls-111" points="13.13 26.42 10.83 31.14 10.7 31.14 13.01 26.42 13.13 26.42"/>
      <polygon class="cls-185" points="13.26 26.42 10.95 31.14 10.83 31.14 13.13 26.42 13.26 26.42"/>
      <polygon class="cls-59" points="13.39 26.42 11.08 31.14 10.95 31.14 13.26 26.42 13.39 26.42"/>
      <polygon class="cls-84" points="13.51 26.42 11.2 31.14 11.08 31.14 13.39 26.42 13.51 26.42"/>
      <polygon class="cls-132" points="13.64 26.42 11.33 31.14 11.2 31.14 13.51 26.42 13.64 26.42"/>
      <polygon class="cls-73" points="13.76 26.42 11.46 31.14 11.33 31.14 13.64 26.42 13.76 26.42"/>
      <polygon class="cls-178" points="13.89 26.42 11.58 31.14 11.46 31.14 13.76 26.42 13.89 26.42"/>
      <polygon class="cls-130" points="14.01 26.42 11.71 31.14 11.58 31.14 13.89 26.42 14.01 26.42"/>
      <polygon class="cls-106" points="14.14 26.42 11.83 31.14 11.71 31.14 14.01 26.42 14.14 26.42"/>
      <polygon class="cls-104" points="14.27 26.42 11.96 31.14 11.83 31.14 14.14 26.42 14.27 26.42"/>
      <polygon class="cls-37" points="14.39 26.42 12.08 31.14 11.96 31.14 14.27 26.42 14.39 26.42"/>
      <polygon class="cls-79" points="14.52 26.42 12.21 31.14 12.08 31.14 14.39 26.42 14.52 26.42"/>
      <polygon class="cls-72" points="14.64 26.42 12.34 31.14 12.21 31.14 14.52 26.42 14.64 26.42"/>
      <polygon class="cls-133" points="14.77 26.42 12.46 31.14 12.34 31.14 14.64 26.42 14.77 26.42"/>
      <polygon class="cls-21" points="14.89 26.42 12.59 31.14 12.46 31.14 14.77 26.42 14.89 26.42"/>
      <polygon class="cls-103" points="15.02 26.42 12.71 31.14 12.59 31.14 14.89 26.42 15.02 26.42"/>
      <polygon class="cls-135" points="15.15 26.42 12.84 31.14 12.71 31.14 15.02 26.42 15.15 26.42"/>
      <polygon class="cls-158" points="15.27 26.42 12.96 31.14 12.84 31.14 15.15 26.42 15.27 26.42"/>
      <polygon class="cls-12" points="15.4 26.42 13.09 31.14 12.96 31.14 15.27 26.42 15.4 26.42"/>
      <polygon class="cls-61" points="15.52 26.42 13.22 31.14 13.09 31.14 15.4 26.42 15.52 26.42"/>
      <polygon class="cls-119" points="15.65 26.42 13.34 31.14 13.22 31.14 15.52 26.42 15.65 26.42"/>
      <polygon class="cls-27" points="15.68 26.62 13.47 31.14 13.34 31.14 15.65 26.42 15.68 26.42 15.68 26.62"/>
      <polygon class="cls-44" points="15.68 26.88 13.59 31.14 13.47 31.14 15.68 26.62 15.68 26.88"/>
      <polygon class="cls-42" points="15.68 27.13 13.72 31.14 13.59 31.14 15.68 26.88 15.68 27.13"/>
      <polygon class="cls-83" points="15.68 27.39 13.84 31.14 13.72 31.14 15.68 27.13 15.68 27.39"/>
      <polygon class="cls-159" points="15.68 27.65 13.97 31.14 13.84 31.14 15.68 27.39 15.68 27.65"/>
      <polygon class="cls-137" points="15.68 27.9 14.1 31.14 13.97 31.14 15.68 27.65 15.68 27.9"/>
      <polygon class="cls-5" points="15.68 28.16 14.22 31.14 14.1 31.14 15.68 27.9 15.68 28.16"/>
      <polygon class="cls-88" points="15.68 28.42 14.35 31.14 14.22 31.14 15.68 28.16 15.68 28.42"/>
      <polygon class="cls-141" points="15.68 28.68 14.47 31.14 14.35 31.14 15.68 28.42 15.68 28.68"/>
      <polygon class="cls-70" points="15.68 28.93 14.6 31.14 14.47 31.14 15.68 28.68 15.68 28.93"/>
      <polygon class="cls-91" points="15.68 29.19 14.72 31.14 14.6 31.14 15.68 28.93 15.68 29.19"/>
      <polygon class="cls-144" points="15.68 29.45 14.85 31.14 14.72 31.14 15.68 29.19 15.68 29.45"/>
      <polygon class="cls-170" points="15.68 29.7 14.98 31.14 14.85 31.14 15.68 29.45 15.68 29.7"/>
      <polygon class="cls-38" points="15.68 29.96 15.1 31.14 14.98 31.14 15.68 29.7 15.68 29.96"/>
      <polygon class="cls-28" points="15.68 30.22 15.23 31.14 15.1 31.14 15.68 29.96 15.68 30.22"/>
      <polygon class="cls-151" points="15.68 30.48 15.35 31.14 15.23 31.14 15.68 30.22 15.68 30.48"/>
      <polygon class="cls-151" points="15.68 30.81 15.52 31.14 15.35 31.14 15.68 30.48 15.68 30.81"/>
      <polygon class="cls-161" points="15.52 31.14 15.68 30.81 15.68 31.14 15.52 31.14"/>
    </g>
    <path class="cls-105" d="M15.67,27.19c-.06.15-.17.26-.31.33l-8.19,3.67c-.08.03-.16.05-.24.05-.23,0-.44-.14-.54-.35-.06-.14-.07-.31-.01-.46.05-.15.17-.26.31-.33l8.19-3.67c.14-.07.31-.07.46-.01.15.06.26.17.33.31.07.14.07.31.01.46Z"/>
  </g>
  <g>
    <g class="cls-187">
      <polygon class="cls-116" points="20.43 26.42 20.32 26.64 20.32 26.42 20.43 26.42"/>
      <polygon class="cls-85" points="20.6 26.42 20.32 26.97 20.32 26.64 20.43 26.42 20.6 26.42"/>
      <polygon class="cls-29" points="20.76 26.42 20.32 27.31 20.32 26.97 20.6 26.42 20.76 26.42"/>
      <polygon class="cls-13" points="20.92 26.42 20.32 27.64 20.32 27.31 20.76 26.42 20.92 26.42"/>
      <polygon class="cls-9" points="21.08 26.42 20.37 27.89 20.32 27.87 20.32 27.64 20.92 26.42 21.08 26.42"/>
      <polygon class="cls-96" points="21.25 26.42 20.5 27.95 20.37 27.89 21.08 26.42 21.25 26.42"/>
      <polygon class="cls-26" points="21.41 26.42 20.63 28.02 20.5 27.95 21.25 26.42 21.41 26.42"/>
      <polygon class="cls-168" points="21.57 26.42 20.76 28.08 20.63 28.02 21.41 26.42 21.57 26.42"/>
      <polygon class="cls-113" points="21.74 26.42 20.89 28.15 20.76 28.08 21.57 26.42 21.74 26.42"/>
      <polygon class="cls-154" points="21.9 26.42 21.02 28.21 20.89 28.15 21.74 26.42 21.9 26.42"/>
      <polygon class="cls-58" points="22.06 26.42 21.15 28.27 21.02 28.21 21.9 26.42 22.06 26.42"/>
      <polygon class="cls-149" points="22.23 26.42 21.29 28.34 21.15 28.27 22.06 26.42 22.23 26.42"/>
      <polygon class="cls-166" points="22.39 26.42 21.42 28.4 21.29 28.34 22.23 26.42 22.39 26.42"/>
      <polygon class="cls-110" points="22.55 26.42 21.55 28.47 21.42 28.4 22.39 26.42 22.55 26.42"/>
      <polygon class="cls-46" points="22.71 26.42 21.68 28.53 21.55 28.47 22.55 26.42 22.71 26.42"/>
      <polygon class="cls-90" points="22.8 26.42 22.86 26.45 21.81 28.6 21.68 28.53 22.71 26.42 22.8 26.42"/>
      <rect class="cls-143" x="21.21" y="27.48" width="2.39" height=".15" transform="translate(-12.19 35.58) rotate(-63.95)"/>
      <rect class="cls-98" x="21.34" y="27.54" width="2.39" height=".15" transform="translate(-12.17 35.74) rotate(-63.95)"/>
      <rect class="cls-24" x="21.47" y="27.61" width="2.39" height=".15" transform="translate(-12.16 35.89) rotate(-63.95)"/>
      <rect class="cls-114" x="21.6" y="27.67" width="2.39" height=".15" transform="translate(-12.14 36.05) rotate(-63.95)"/>
      <rect class="cls-93" x="21.73" y="27.74" width="2.39" height=".15" transform="translate(-12.13 36.2) rotate(-63.95)"/>
      <rect class="cls-6" x="21.87" y="27.8" width="2.39" height=".15" transform="translate(-12.11 36.35) rotate(-63.95)"/>
      <rect class="cls-148" x="22" y="27.87" width="2.39" height=".15" transform="translate(-12.09 36.51) rotate(-63.95)"/>
      <rect class="cls-35" x="22.13" y="27.93" width="2.39" height=".15" transform="translate(-12.08 36.66) rotate(-63.95)"/>
      <rect class="cls-145" x="22.26" y="27.99" width="2.39" height=".15" transform="translate(-12.06 36.82) rotate(-63.95)"/>
      <rect class="cls-115" x="22.39" y="28.06" width="2.39" height=".15" transform="translate(-12.04 36.97) rotate(-63.95)"/>
      <rect class="cls-109" x="22.52" y="28.12" width="2.39" height=".15" transform="translate(-12.03 37.13) rotate(-63.95)"/>
      <rect class="cls-45" x="22.66" y="28.19" width="2.39" height=".15" transform="translate(-12.01 37.28) rotate(-63.95)"/>
      <rect class="cls-18" x="22.79" y="28.25" width="2.39" height=".15" transform="translate(-12 37.43) rotate(-63.95)"/>
      <rect class="cls-17" x="22.92" y="28.32" width="2.39" height=".15" transform="translate(-11.98 37.59) rotate(-63.95)"/>
      <rect class="cls-153" x="23.05" y="28.38" width="2.39" height=".15" transform="translate(-11.96 37.74) rotate(-63.95)"/>
      <rect class="cls-150" x="23.18" y="28.45" width="2.39" height=".15" transform="translate(-11.95 37.9) rotate(-63.95)"/>
      <rect class="cls-66" x="23.31" y="28.51" width="2.39" height=".15" transform="translate(-11.93 38.05) rotate(-63.95)"/>
      <rect class="cls-129" x="23.45" y="28.57" width="2.39" height=".15" transform="translate(-11.92 38.21) rotate(-63.95)"/>
      <rect class="cls-34" x="23.58" y="28.64" width="2.39" height=".15" transform="translate(-11.9 38.36) rotate(-63.95)"/>
      <rect class="cls-173" x="23.71" y="28.7" width="2.39" height=".15" transform="translate(-11.88 38.51) rotate(-63.95)"/>
      <rect class="cls-39" x="23.84" y="28.77" width="2.39" height=".15" transform="translate(-11.87 38.67) rotate(-63.95)"/>
      <rect class="cls-118" x="23.97" y="28.83" width="2.39" height=".15" transform="translate(-11.85 38.82) rotate(-63.95)"/>
      <rect class="cls-108" x="24.1" y="28.9" width="2.39" height=".15" transform="translate(-11.84 38.98) rotate(-63.95)"/>
      <rect class="cls-78" x="24.23" y="28.96" width="2.39" height=".15" transform="translate(-11.82 39.13) rotate(-63.95)"/>
      <rect class="cls-75" x="24.37" y="29.02" width="2.39" height=".15" transform="translate(-11.8 39.29) rotate(-63.95)"/>
      <rect class="cls-41" x="24.5" y="29.09" width="2.39" height=".15" transform="translate(-11.79 39.44) rotate(-63.95)"/>
      <rect class="cls-41" x="24.62" y="29.16" width="2.39" height=".13" transform="translate(-11.77 39.59) rotate(-63.95)"/>
      <rect class="cls-156" x="24.74" y="29.22" width="2.39" height=".13" transform="translate(-11.76 39.73) rotate(-63.95)"/>
      <rect class="cls-128" x="24.86" y="29.27" width="2.39" height=".13" transform="translate(-11.74 39.87) rotate(-63.95)"/>
      <rect class="cls-136" x="24.98" y="29.33" width="2.39" height=".13" transform="translate(-11.73 40.01) rotate(-63.95)"/>
      <rect class="cls-92" x="25.1" y="29.39" width="2.39" height=".13" transform="translate(-11.71 40.15) rotate(-63.95)"/>
      <rect class="cls-69" x="25.23" y="29.45" width="2.39" height=".13" transform="translate(-11.7 40.29) rotate(-63.95)"/>
      <polygon class="cls-69" points="27.01 28.47 29.63 29.75 29.63 31.14 27.02 31.14 25.96 30.62 27.01 28.47"/>
    </g>
    <path class="cls-122" d="M29.61,30.89c-.1.21-.31.35-.54.35-.08,0-.16-.02-.24-.05l-8.18-3.67c-.3-.13-.43-.49-.3-.79.13-.3.49-.43.79-.3l8.19,3.67c.14.07.25.18.31.33.06.15.05.31-.01.46Z"/>
  </g>
  <g>
    <g class="cls-192">
      <polygon class="cls-164" points="11.06 16.69 10.9 17.02 10.9 16.69 11.06 16.69"/>
      <polygon class="cls-182" points="11.31 16.69 10.9 17.53 10.9 17.02 11.06 16.69 11.31 16.69"/>
      <polygon class="cls-20" points="11.56 16.69 10.9 18.03 10.9 17.53 11.31 16.69 11.56 16.69"/>
      <polygon class="cls-14" points="11.8 16.69 10.9 18.54 10.9 18.03 11.56 16.69 11.8 16.69"/>
      <polygon class="cls-112" points="12.05 16.69 10.9 19.04 10.9 18.54 11.8 16.69 12.05 16.69"/>
      <polygon class="cls-43" points="12.3 16.69 11.13 19.08 10.9 19.08 10.9 19.04 12.05 16.69 12.3 16.69"/>
      <polygon class="cls-67" points="12.54 16.69 11.38 19.08 11.13 19.08 12.3 16.69 12.54 16.69"/>
      <polygon class="cls-121" points="12.79 16.69 11.63 19.08 11.38 19.08 12.54 16.69 12.79 16.69"/>
      <polygon class="cls-89" points="13.04 16.69 11.88 19.08 11.63 19.08 12.79 16.69 13.04 16.69"/>
      <polygon class="cls-33" points="13.28 16.7 12.12 19.08 11.88 19.08 13.04 16.69 13.28 16.69 13.28 16.7"/>
      <polygon class="cls-57" points="13.28 17.21 12.37 19.08 12.12 19.08 13.28 16.7 13.28 17.21"/>
      <polygon class="cls-51" points="13.28 17.71 12.62 19.08 12.37 19.08 13.28 17.21 13.28 17.71"/>
      <polygon class="cls-64" points="13.28 18.22 12.86 19.08 12.62 19.08 13.28 17.71 13.28 18.22"/>
      <polygon class="cls-47" points="13.28 18.72 13.11 19.08 12.86 19.08 13.28 18.22 13.28 18.72"/>
      <polygon class="cls-80" points="13.11 19.08 13.28 18.72 13.28 19.08 13.11 19.08"/>
      <polygon class="cls-155" points="10.06 15.71 9.92 16 9.92 15.71 10.06 15.71"/>
      <polygon class="cls-4" points="10.31 15.71 9.92 16.51 9.92 16 10.06 15.71 10.31 15.71"/>
      <polygon class="cls-180" points="10.55 15.71 9.92 17.01 9.92 16.51 10.31 15.71 10.55 15.71"/>
      <polygon class="cls-101" points="10.8 15.71 9.92 17.52 9.92 17.01 10.55 15.71 10.8 15.71"/>
      <polygon class="cls-123" points="11.05 15.71 9.92 18.02 9.92 17.52 10.8 15.71 11.05 15.71"/>
      <polygon class="cls-3" points="11.3 15.71 9.92 18.53 9.92 18.02 11.05 15.71 11.3 15.71"/>
      <polygon class="cls-164" points="11.54 15.71 9.92 19.04 9.92 18.53 11.3 15.71 11.54 15.71"/>
      <polygon class="cls-182" points="11.79 15.71 9.92 19.54 9.92 19.04 11.54 15.71 11.79 15.71"/>
      <polygon class="cls-20" points="12.04 15.71 9.92 20.05 9.92 19.54 11.79 15.71 12.04 15.71"/>
      <polygon class="cls-14" points="12.28 15.71 9.92 20.55 9.92 20.05 12.04 15.71 12.28 15.71"/>
      <polygon class="cls-112" points="12.53 15.71 10.08 20.72 9.92 20.64 9.92 20.55 12.28 15.71 12.53 15.71"/>
      <polygon class="cls-43" points="12.78 15.71 10.28 20.82 10.08 20.72 12.53 15.71 12.78 15.71"/>
      <polygon class="cls-67" points="13.03 15.71 10.48 20.92 10.28 20.82 12.78 15.71 13.03 15.71"/>
      <polygon class="cls-121" points="13.27 15.71 10.68 21.02 10.48 20.92 13.03 15.71 13.27 15.71"/>
      <polygon class="cls-89" points="13.52 15.71 10.88 21.11 10.68 21.02 13.27 15.71 13.52 15.71"/>
      <polygon class="cls-33" points="13.77 15.71 11.08 21.21 10.88 21.11 13.52 15.71 13.77 15.71"/>
      <polygon class="cls-57" points="14.01 15.71 11.28 21.31 11.08 21.21 13.77 15.71 14.01 15.71"/>
      <polygon class="cls-51" points="14.26 15.71 11.48 21.41 11.28 21.31 14.01 15.71 14.26 15.71"/>
      <polygon class="cls-64" points="14.51 15.71 11.68 21.5 11.48 21.41 14.26 15.71 14.51 15.71"/>
      <polygon class="cls-47" points="14.76 15.71 11.88 21.6 11.68 21.5 14.51 15.71 14.76 15.71"/>
      <polygon class="cls-80" points="14.98 15.71 15 15.72 12.08 21.7 11.88 21.6 14.76 15.71 14.98 15.71"/>
      <polygon class="cls-163" points="15 15.72 15.2 15.82 12.28 21.79 12.26 21.79 12.08 21.7 15 15.72"/>
      <polygon class="cls-19" points="15.2 15.82 15.4 15.91 12.53 21.79 12.28 21.79 15.2 15.82"/>
      <polygon class="cls-139" points="15.4 15.91 15.6 16.01 12.77 21.79 12.53 21.79 15.4 15.91"/>
      <polygon class="cls-165" points="15.6 16.01 15.8 16.11 13.02 21.79 12.77 21.79 15.6 16.01"/>
      <polygon class="cls-52" points="15.8 16.11 16 16.21 13.27 21.79 13.02 21.79 15.8 16.11"/>
      <polygon class="cls-82" points="16 16.21 16.2 16.3 13.51 21.79 13.27 21.79 16 16.21"/>
      <polygon class="cls-16" points="16.2 16.3 16.4 16.4 13.76 21.79 13.51 21.79 16.2 16.3"/>
      <polygon class="cls-16" points="16.4 16.4 16.5 16.45 13.89 21.79 13.76 21.79 16.4 16.4"/>
      <polygon class="cls-50" points="16.5 16.45 16.6 16.5 14.01 21.79 13.89 21.79 16.5 16.45"/>
      <polygon class="cls-134" points="16.6 16.5 16.7 16.55 14.14 21.79 14.01 21.79 16.6 16.5"/>
      <polygon class="cls-65" points="16.7 16.55 16.8 16.6 14.26 21.79 14.14 21.79 16.7 16.55"/>
      <polygon class="cls-131" points="16.8 16.6 16.9 16.65 14.39 21.79 14.26 21.79 16.8 16.6"/>
      <polygon class="cls-124" points="16.9 16.65 17 16.7 14.52 21.79 14.39 21.79 16.9 16.65"/>
      <polygon class="cls-60" points="17 16.7 17.11 16.75 14.64 21.79 14.52 21.79 17 16.7"/>
      <polygon class="cls-95" points="17.11 16.75 17.21 16.8 14.77 21.79 14.64 21.79 17.11 16.75"/>
      <polygon class="cls-8" points="17.21 16.8 17.31 16.85 14.89 21.79 14.77 21.79 17.21 16.8"/>
      <polygon class="cls-157" points="17.31 16.85 17.41 16.9 15.02 21.79 14.89 21.79 17.31 16.85"/>
      <polygon class="cls-56" points="17.41 16.9 17.51 16.95 15.14 21.79 15.02 21.79 17.41 16.9"/>
      <polygon class="cls-7" points="17.51 16.95 17.61 17 15.27 21.79 15.14 21.79 17.51 16.95"/>
      <polygon class="cls-111" points="17.61 17 17.71 17.05 15.4 21.79 15.27 21.79 17.61 17"/>
      <polygon class="cls-185" points="17.71 17.05 17.82 17.1 15.52 21.79 15.4 21.79 17.71 17.05"/>
      <polygon class="cls-59" points="17.82 17.1 17.92 17.14 15.65 21.79 15.52 21.79 17.82 17.1"/>
      <polygon class="cls-84" points="17.92 17.14 18.02 17.19 15.77 21.79 15.65 21.79 17.92 17.14"/>
      <polygon class="cls-132" points="18.02 17.19 18.12 17.24 15.9 21.79 15.77 21.79 18.02 17.19"/>
      <polygon class="cls-73" points="18.12 17.24 18.22 17.29 16.02 21.79 15.9 21.79 18.12 17.24"/>
      <polygon class="cls-178" points="18.22 17.29 18.32 17.34 16.15 21.79 16.02 21.79 18.22 17.29"/>
      <polygon class="cls-130" points="18.32 17.34 18.42 17.39 16.28 21.79 16.15 21.79 18.32 17.34"/>
      <polygon class="cls-106" points="18.42 17.39 18.53 17.44 16.4 21.79 16.28 21.79 18.42 17.39"/>
      <polygon class="cls-104" points="18.53 17.44 18.63 17.49 16.53 21.79 16.4 21.79 18.53 17.44"/>
      <polygon class="cls-37" points="18.63 17.49 18.63 17.5 18.63 17.74 16.65 21.79 16.53 21.79 18.63 17.49"/>
      <polygon class="cls-79" points="18.63 17.99 16.78 21.79 16.65 21.79 18.63 17.74 18.63 17.99"/>
      <polygon class="cls-72" points="18.63 18.25 16.9 21.79 16.78 21.79 18.63 17.99 18.63 18.25"/>
      <polygon class="cls-133" points="18.63 18.51 17.03 21.79 16.9 21.79 18.63 18.25 18.63 18.51"/>
      <polygon class="cls-21" points="18.63 18.76 17.16 21.79 17.03 21.79 18.63 18.51 18.63 18.76"/>
      <polygon class="cls-103" points="18.63 19.02 17.28 21.79 17.16 21.79 18.63 18.76 18.63 19.02"/>
      <polygon class="cls-135" points="18.63 19.28 17.41 21.79 17.28 21.79 18.63 19.02 18.63 19.28"/>
      <polygon class="cls-158" points="18.63 19.54 17.53 21.79 17.41 21.79 18.63 19.28 18.63 19.54"/>
      <polygon class="cls-12" points="18.63 19.79 17.66 21.79 17.53 21.79 18.63 19.54 18.63 19.79"/>
      <polygon class="cls-61" points="18.63 20.05 17.79 21.79 17.66 21.79 18.63 19.79 18.63 20.05"/>
      <polygon class="cls-119" points="18.63 20.31 17.91 21.79 17.79 21.79 18.63 20.05 18.63 20.31"/>
      <polygon class="cls-27" points="18.63 20.56 18.04 21.79 17.91 21.79 18.63 20.31 18.63 20.56"/>
      <polygon class="cls-44" points="18.63 20.82 18.16 21.79 18.04 21.79 18.63 20.56 18.63 20.82"/>
      <polygon class="cls-42" points="18.63 21.08 18.29 21.79 18.16 21.79 18.63 20.82 18.63 21.08"/>
      <polygon class="cls-83" points="18.63 21.34 18.41 21.79 18.29 21.79 18.63 21.08 18.63 21.34"/>
      <polygon class="cls-159" points="18.63 21.59 18.54 21.79 18.41 21.79 18.63 21.34 18.63 21.59"/>
      <polygon class="cls-137" points="18.54 21.79 18.63 21.59 18.63 21.79 18.54 21.79"/>
    </g>
    <path class="cls-179" d="M18.14,20.02h-.41c-.31,0-.55-.25-.55-.55v-1.17c0-.74-.6-1.34-1.35-1.34s-1.35.6-1.35,1.34v.51c0,.07-.05.14-.12.15v-1.08c0-1.26-1.02-2.28-2.28-2.28s-2.28,1.02-2.28,2.28,1.02,2.28,2.28,2.28h1.09v1.14c0,.33.26.59.59.59s.59-.26.59-.59v-1.14c.73-.02,1.31-.61,1.31-1.34v-.51c0-.08.07-.16.16-.16s.16.07.16.16v1.17c0,.96.78,1.74,1.74,1.74h.41c.33,0,.59-.27.59-.59s-.27-.59-.59-.59ZM13.18,18.97h-1.09c-.6,0-1.09-.49-1.09-1.09s.49-1.09,1.09-1.09,1.09.49,1.09,1.09v1.09Z"/>
  </g>
  <g>
    <g class="cls-190">
      <polygon class="cls-184" points="10.92 9.9 10.69 10.38 10.69 9.9 10.92 9.9"/>
      <polygon class="cls-160" points="11.17 9.9 10.69 10.88 10.69 10.38 10.92 9.9 11.17 9.9"/>
      <polygon class="cls-171" points="11.42 9.9 10.94 10.88 10.69 10.88 10.69 10.88 11.17 9.9 11.42 9.9"/>
      <polygon class="cls-25" points="11.66 9.9 11.18 10.88 10.94 10.88 11.42 9.9 11.66 9.9"/>
      <polygon class="cls-174" points="11.91 9.9 11.43 10.88 11.18 10.88 11.66 9.9 11.91 9.9"/>
      <polygon class="cls-32" points="12.16 9.9 11.68 10.88 11.43 10.88 11.91 9.9 12.16 9.9"/>
      <polygon class="cls-147" points="12.41 9.9 11.92 10.88 11.68 10.88 12.16 9.9 12.41 9.9"/>
      <polygon class="cls-126" points="12.65 9.9 12.17 10.88 11.92 10.88 12.41 9.9 12.65 9.9"/>
      <polygon class="cls-155" points="12.9 9.9 12.42 10.88 12.17 10.88 12.65 9.9 12.9 9.9"/>
      <polygon class="cls-4" points="13.15 9.9 12.67 10.88 12.42 10.88 12.9 9.9 13.15 9.9"/>
      <polygon class="cls-180" points="13.39 9.9 12.91 10.88 12.67 10.88 13.15 9.9 13.39 9.9"/>
      <polygon class="cls-101" points="13.64 9.9 13.16 10.88 12.91 10.88 13.39 9.9 13.64 9.9"/>
      <polygon class="cls-123" points="13.89 9.9 13.41 10.88 13.16 10.88 13.64 9.9 13.89 9.9"/>
      <polygon class="cls-3" points="14.14 9.9 13.65 10.88 13.41 10.88 13.89 9.9 14.14 9.9"/>
      <polygon class="cls-164" points="14.38 9.9 13.9 10.88 13.65 10.88 14.14 9.9 14.38 9.9"/>
      <polygon class="cls-182" points="14.63 9.9 14.15 10.88 13.9 10.88 14.38 9.9 14.63 9.9"/>
      <polygon class="cls-20" points="14.88 9.9 14.4 10.88 14.15 10.88 14.63 9.9 14.88 9.9"/>
      <polygon class="cls-14" points="15.12 9.9 14.64 10.88 14.4 10.88 14.88 9.9 15.12 9.9"/>
      <polygon class="cls-112" points="15.37 9.9 14.89 10.88 14.64 10.88 15.12 9.9 15.37 9.9"/>
      <polygon class="cls-43" points="15.62 9.9 15.14 10.88 14.89 10.88 15.37 9.9 15.62 9.9"/>
      <polygon class="cls-67" points="15.87 9.9 15.38 10.88 15.14 10.88 15.62 9.9 15.87 9.9"/>
      <polygon class="cls-121" points="16.11 9.9 15.63 10.88 15.38 10.88 15.87 9.9 16.11 9.9"/>
      <polygon class="cls-89" points="16.36 9.9 15.88 10.88 15.63 10.88 16.11 9.9 16.36 9.9"/>
      <polygon class="cls-33" points="16.61 9.9 16.13 10.88 15.88 10.88 16.36 9.9 16.61 9.9"/>
      <polygon class="cls-57" points="16.85 9.9 16.37 10.88 16.13 10.88 16.61 9.9 16.85 9.9"/>
      <polygon class="cls-51" points="17.1 9.9 16.62 10.88 16.37 10.88 16.85 9.9 17.1 9.9"/>
      <polygon class="cls-64" points="17.35 9.9 16.87 10.88 16.62 10.88 17.1 9.9 17.35 9.9"/>
      <polygon class="cls-47" points="17.6 9.9 17.11 10.88 16.87 10.88 17.35 9.9 17.6 9.9"/>
      <polygon class="cls-80" points="17.84 9.9 17.36 10.88 17.11 10.88 17.6 9.9 17.84 9.9"/>
      <polygon class="cls-163" points="18.09 9.9 17.61 10.88 17.36 10.88 17.84 9.9 18.09 9.9"/>
      <polygon class="cls-19" points="18.34 9.9 17.86 10.88 17.61 10.88 18.09 9.9 18.34 9.9"/>
      <polygon class="cls-139" points="18.58 9.9 18.1 10.88 17.86 10.88 18.34 9.9 18.58 9.9"/>
      <polygon class="cls-165" points="18.83 9.9 18.35 10.88 18.1 10.88 18.58 9.9 18.83 9.9"/>
      <polygon class="cls-52" points="19.08 9.9 18.6 10.88 18.35 10.88 18.83 9.9 19.08 9.9"/>
      <polygon class="cls-82" points="19.33 9.9 18.85 10.88 18.6 10.88 19.08 9.9 19.33 9.9"/>
      <polygon class="cls-16" points="19.57 9.9 19.09 10.88 18.85 10.88 19.33 9.9 19.57 9.9"/>
      <polygon class="cls-16" points="19.7 9.9 19.22 10.88 19.09 10.88 19.57 9.9 19.7 9.9"/>
      <polygon class="cls-50" points="19.82 9.9 19.34 10.88 19.22 10.88 19.7 9.9 19.82 9.9"/>
      <polygon class="cls-134" points="19.95 9.9 19.47 10.88 19.34 10.88 19.82 9.9 19.95 9.9"/>
      <polygon class="cls-65" points="20.08 9.9 19.6 10.88 19.47 10.88 19.95 9.9 20.08 9.9"/>
      <polygon class="cls-131" points="20.2 9.9 19.72 10.88 19.6 10.88 20.08 9.9 20.2 9.9"/>
      <polygon class="cls-124" points="20.33 9.9 19.85 10.88 19.72 10.88 20.2 9.9 20.33 9.9"/>
      <polygon class="cls-60" points="20.45 9.9 19.97 10.88 19.85 10.88 20.33 9.9 20.45 9.9"/>
      <polygon class="cls-95" points="20.58 9.9 20.1 10.88 19.97 10.88 20.45 9.9 20.58 9.9"/>
      <polygon class="cls-8" points="20.7 9.9 20.22 10.88 20.1 10.88 20.58 9.9 20.7 9.9"/>
      <polygon class="cls-157" points="20.83 9.9 20.35 10.88 20.22 10.88 20.7 9.9 20.83 9.9"/>
      <polygon class="cls-56" points="20.96 9.9 20.48 10.88 20.35 10.88 20.83 9.9 20.96 9.9"/>
      <polygon class="cls-7" points="21.08 9.9 20.6 10.88 20.48 10.88 20.96 9.9 21.08 9.9"/>
      <polygon class="cls-111" points="21.21 9.9 20.73 10.88 20.6 10.88 21.08 9.9 21.21 9.9"/>
      <polygon class="cls-185" points="21.33 9.9 20.85 10.88 20.73 10.88 21.21 9.9 21.33 9.9"/>
      <polygon class="cls-59" points="21.46 9.9 20.98 10.88 20.85 10.88 21.33 9.9 21.46 9.9"/>
      <polygon class="cls-84" points="21.58 9.9 21.1 10.88 20.98 10.88 21.46 9.9 21.58 9.9"/>
      <polygon class="cls-132" points="21.71 9.9 21.23 10.88 21.1 10.88 21.58 9.9 21.71 9.9"/>
      <polygon class="cls-73" points="21.84 9.9 21.36 10.88 21.23 10.88 21.71 9.9 21.84 9.9"/>
      <polygon class="cls-178" points="21.96 9.9 21.48 10.88 21.36 10.88 21.84 9.9 21.96 9.9"/>
      <polygon class="cls-130" points="22.09 9.9 21.61 10.88 21.48 10.88 21.96 9.9 22.09 9.9"/>
      <polygon class="cls-106" points="22.21 9.9 21.73 10.88 21.61 10.88 22.09 9.9 22.21 9.9"/>
      <polygon class="cls-104" points="22.34 9.9 21.86 10.88 21.73 10.88 22.21 9.9 22.34 9.9"/>
      <polygon class="cls-37" points="22.46 9.9 21.98 10.88 21.86 10.88 22.34 9.9 22.46 9.9"/>
      <polygon class="cls-79" points="22.59 9.9 22.11 10.88 21.98 10.88 22.46 9.9 22.59 9.9"/>
      <polygon class="cls-72" points="22.72 9.9 22.24 10.88 22.11 10.88 22.59 9.9 22.72 9.9"/>
      <polygon class="cls-133" points="22.84 9.9 22.36 10.88 22.24 10.88 22.72 9.9 22.84 9.9"/>
      <polygon class="cls-21" points="22.97 9.9 22.49 10.88 22.36 10.88 22.84 9.9 22.97 9.9"/>
      <polygon class="cls-103" points="23.09 9.9 22.61 10.88 22.49 10.88 22.97 9.9 23.09 9.9"/>
      <polygon class="cls-135" points="23.22 9.9 22.74 10.88 22.61 10.88 23.09 9.9 23.22 9.9"/>
      <polygon class="cls-158" points="23.34 9.9 22.86 10.88 22.74 10.88 23.22 9.9 23.34 9.9"/>
      <polygon class="cls-12" points="23.47 9.9 22.99 10.88 22.86 10.88 23.34 9.9 23.47 9.9"/>
      <polygon class="cls-61" points="23.6 9.9 23.12 10.88 22.99 10.88 23.47 9.9 23.6 9.9"/>
      <polygon class="cls-119" points="23.72 9.9 23.24 10.88 23.12 10.88 23.6 9.9 23.72 9.9"/>
      <polygon class="cls-27" points="23.85 9.9 23.37 10.88 23.24 10.88 23.72 9.9 23.85 9.9"/>
      <polygon class="cls-44" points="23.97 9.9 23.49 10.88 23.37 10.88 23.85 9.9 23.97 9.9"/>
      <polygon class="cls-42" points="24.1 9.9 23.62 10.88 23.49 10.88 23.97 9.9 24.1 9.9"/>
      <polygon class="cls-83" points="24.22 9.9 23.74 10.88 23.62 10.88 24.1 9.9 24.22 9.9"/>
      <polygon class="cls-159" points="24.35 9.9 23.87 10.88 23.74 10.88 24.22 9.9 24.35 9.9"/>
      <polygon class="cls-137" points="24.48 9.9 24 10.88 23.87 10.88 24.35 9.9 24.48 9.9"/>
      <polygon class="cls-5" points="24.6 9.9 24.12 10.88 24 10.88 24.48 9.9 24.6 9.9"/>
      <polygon class="cls-88" points="24.73 9.9 24.25 10.88 24.12 10.88 24.6 9.9 24.73 9.9"/>
      <polygon class="cls-141" points="24.85 9.9 24.37 10.88 24.25 10.88 24.73 9.9 24.85 9.9"/>
      <polygon class="cls-70" points="24.98 9.9 24.5 10.88 24.37 10.88 24.85 9.9 24.98 9.9"/>
      <polygon class="cls-91" points="25.1 9.9 24.62 10.88 24.5 10.88 24.98 9.9 25.1 9.9"/>
      <polygon class="cls-144" points="25.23 9.9 24.75 10.88 24.62 10.88 25.1 9.9 25.23 9.9"/>
      <polygon class="cls-170" points="25.31 10 24.88 10.88 24.75 10.88 25.23 9.9 25.31 9.9 25.31 10"/>
      <polygon class="cls-38" points="25.31 10.25 25 10.88 24.88 10.88 25.31 10 25.31 10.25"/>
      <polygon class="cls-28" points="25.31 10.51 25.13 10.88 25 10.88 25.31 10.25 25.31 10.51"/>
      <polygon class="cls-151" points="25.31 10.77 25.25 10.88 25.13 10.88 25.31 10.51 25.31 10.77"/>
      <polygon class="cls-151" points="25.25 10.88 25.31 10.77 25.31 10.88 25.25 10.88"/>
    </g>
    <path class="cls-68" d="M25.41,10.39c0,.33-.27.59-.59.59h-13.63c-.33,0-.59-.27-.59-.59s.26-.59.59-.59h13.63c.33,0,.59.27.59.59Z"/>
  </g>
  <g>
    <g class="cls-193">
      <polygon class="cls-126" points="10.93 13.42 10.69 13.91 10.69 13.42 10.93 13.42"/>
      <polygon class="cls-155" points="11.18 13.42 10.7 14.4 10.69 14.4 10.69 13.91 10.93 13.42 11.18 13.42"/>
      <polygon class="cls-4" points="11.43 13.42 10.95 14.4 10.7 14.4 11.18 13.42 11.43 13.42"/>
      <polygon class="cls-180" points="11.67 13.42 11.19 14.4 10.95 14.4 11.43 13.42 11.67 13.42"/>
      <polygon class="cls-101" points="11.92 13.42 11.44 14.4 11.19 14.4 11.67 13.42 11.92 13.42"/>
      <polygon class="cls-123" points="12.17 13.42 11.69 14.4 11.44 14.4 11.92 13.42 12.17 13.42"/>
      <polygon class="cls-3" points="12.42 13.42 11.93 14.4 11.69 14.4 12.17 13.42 12.42 13.42"/>
      <polygon class="cls-164" points="12.66 13.42 12.18 14.4 11.93 14.4 12.42 13.42 12.66 13.42"/>
      <polygon class="cls-182" points="12.91 13.42 12.43 14.4 12.18 14.4 12.66 13.42 12.91 13.42"/>
      <polygon class="cls-20" points="13.16 13.42 12.68 14.4 12.43 14.4 12.91 13.42 13.16 13.42"/>
      <polygon class="cls-14" points="13.4 13.42 12.92 14.4 12.68 14.4 13.16 13.42 13.4 13.42"/>
      <polygon class="cls-112" points="13.65 13.42 13.17 14.4 12.92 14.4 13.4 13.42 13.65 13.42"/>
      <polygon class="cls-43" points="13.9 13.42 13.42 14.4 13.17 14.4 13.65 13.42 13.9 13.42"/>
      <polygon class="cls-67" points="14.15 13.42 13.66 14.4 13.42 14.4 13.9 13.42 14.15 13.42"/>
      <polygon class="cls-121" points="14.39 13.42 13.91 14.4 13.66 14.4 14.15 13.42 14.39 13.42"/>
      <polygon class="cls-89" points="14.64 13.42 14.16 14.4 13.91 14.4 14.39 13.42 14.64 13.42"/>
      <polygon class="cls-33" points="14.89 13.42 14.41 14.4 14.16 14.4 14.64 13.42 14.89 13.42"/>
      <polygon class="cls-57" points="15.13 13.42 14.65 14.4 14.41 14.4 14.89 13.42 15.13 13.42"/>
      <polygon class="cls-51" points="15.38 13.42 14.9 14.4 14.65 14.4 15.13 13.42 15.38 13.42"/>
      <polygon class="cls-64" points="15.63 13.42 15.15 14.4 14.9 14.4 15.38 13.42 15.63 13.42"/>
      <polygon class="cls-47" points="15.88 13.42 15.39 14.4 15.15 14.4 15.63 13.42 15.88 13.42"/>
      <polygon class="cls-80" points="16.12 13.42 15.64 14.4 15.39 14.4 15.88 13.42 16.12 13.42"/>
      <polygon class="cls-163" points="16.37 13.42 15.89 14.4 15.64 14.4 16.12 13.42 16.37 13.42"/>
      <polygon class="cls-19" points="16.62 13.42 16.14 14.4 15.89 14.4 16.37 13.42 16.62 13.42"/>
      <polygon class="cls-139" points="16.86 13.42 16.38 14.4 16.14 14.4 16.62 13.42 16.86 13.42"/>
      <polygon class="cls-165" points="17.11 13.42 16.63 14.4 16.38 14.4 16.86 13.42 17.11 13.42"/>
      <polygon class="cls-52" points="17.36 13.42 16.88 14.4 16.63 14.4 17.11 13.42 17.36 13.42"/>
      <polygon class="cls-82" points="17.61 13.42 17.12 14.4 16.88 14.4 17.36 13.42 17.61 13.42"/>
      <polygon class="cls-16" points="17.85 13.42 17.37 14.4 17.12 14.4 17.61 13.42 17.85 13.42"/>
      <polygon class="cls-16" points="17.98 13.42 17.5 14.4 17.37 14.4 17.85 13.42 17.98 13.42"/>
      <polygon class="cls-50" points="18.1 13.42 17.62 14.4 17.5 14.4 17.98 13.42 18.1 13.42"/>
      <polygon class="cls-134" points="18.23 13.42 17.75 14.4 17.62 14.4 18.1 13.42 18.23 13.42"/>
      <polygon class="cls-65" points="18.36 13.42 17.87 14.4 17.75 14.4 18.23 13.42 18.36 13.42"/>
      <polygon class="cls-131" points="18.48 13.42 18 14.4 17.87 14.4 18.36 13.42 18.48 13.42"/>
      <polygon class="cls-124" points="18.61 13.42 18.13 14.4 18 14.4 18.48 13.42 18.61 13.42"/>
      <polygon class="cls-60" points="18.73 13.42 18.25 14.4 18.13 14.4 18.61 13.42 18.73 13.42"/>
      <polygon class="cls-95" points="18.86 13.42 18.38 14.4 18.25 14.4 18.73 13.42 18.86 13.42"/>
      <polygon class="cls-8" points="18.98 13.42 18.5 14.4 18.38 14.4 18.86 13.42 18.98 13.42"/>
      <polygon class="cls-157" points="19.11 13.42 18.63 14.4 18.5 14.4 18.98 13.42 19.11 13.42"/>
      <polygon class="cls-56" points="19.24 13.42 18.75 14.4 18.63 14.4 19.11 13.42 19.24 13.42"/>
      <polygon class="cls-7" points="19.36 13.42 18.88 14.4 18.75 14.4 19.24 13.42 19.36 13.42"/>
      <polygon class="cls-111" points="19.49 13.42 19.01 14.4 18.88 14.4 19.36 13.42 19.49 13.42"/>
      <polygon class="cls-185" points="19.61 13.42 19.13 14.4 19.01 14.4 19.49 13.42 19.61 13.42"/>
      <polygon class="cls-59" points="19.74 13.42 19.26 14.4 19.13 14.4 19.61 13.42 19.74 13.42"/>
      <polygon class="cls-84" points="19.86 13.42 19.38 14.4 19.26 14.4 19.74 13.42 19.86 13.42"/>
      <polygon class="cls-132" points="19.99 13.42 19.51 14.4 19.38 14.4 19.86 13.42 19.99 13.42"/>
      <polygon class="cls-73" points="20.12 13.42 19.63 14.4 19.51 14.4 19.99 13.42 20.12 13.42"/>
      <polygon class="cls-178" points="20.24 13.42 19.76 14.4 19.63 14.4 20.12 13.42 20.24 13.42"/>
      <polygon class="cls-130" points="20.37 13.42 19.89 14.4 19.76 14.4 20.24 13.42 20.37 13.42"/>
      <polygon class="cls-106" points="20.49 13.42 20.01 14.4 19.89 14.4 20.37 13.42 20.49 13.42"/>
      <polygon class="cls-104" points="20.62 13.42 20.14 14.4 20.01 14.4 20.49 13.42 20.62 13.42"/>
      <polygon class="cls-37" points="20.74 13.42 20.26 14.4 20.14 14.4 20.62 13.42 20.74 13.42"/>
      <polygon class="cls-79" points="20.87 13.42 20.39 14.4 20.26 14.4 20.74 13.42 20.87 13.42"/>
      <polygon class="cls-72" points="21 13.42 20.51 14.4 20.39 14.4 20.87 13.42 21 13.42"/>
      <polygon class="cls-133" points="21.12 13.42 20.64 14.4 20.51 14.4 21 13.42 21.12 13.42"/>
      <polygon class="cls-21" points="21.25 13.42 20.77 14.4 20.64 14.4 21.12 13.42 21.25 13.42"/>
      <polygon class="cls-103" points="21.37 13.42 20.89 14.4 20.77 14.4 21.25 13.42 21.37 13.42"/>
      <polygon class="cls-135" points="21.5 13.42 21.02 14.4 20.89 14.4 21.37 13.42 21.5 13.42"/>
      <polygon class="cls-158" points="21.62 13.42 21.14 14.4 21.02 14.4 21.5 13.42 21.62 13.42"/>
      <polygon class="cls-12" points="21.75 13.42 21.27 14.4 21.14 14.4 21.62 13.42 21.75 13.42"/>
      <polygon class="cls-61" points="21.88 13.42 21.39 14.4 21.27 14.4 21.75 13.42 21.88 13.42"/>
      <polygon class="cls-119" points="22 13.42 21.52 14.4 21.39 14.4 21.88 13.42 22 13.42"/>
      <polygon class="cls-27" points="22.13 13.42 21.65 14.4 21.52 14.4 22 13.42 22.13 13.42"/>
      <polygon class="cls-44" points="22.21 13.52 21.77 14.4 21.65 14.4 22.13 13.42 22.21 13.42 22.21 13.52"/>
      <polygon class="cls-42" points="22.21 13.77 21.9 14.4 21.77 14.4 22.21 13.52 22.21 13.77"/>
      <polygon class="cls-83" points="22.21 14.03 22.02 14.4 21.9 14.4 22.21 13.77 22.21 14.03"/>
      <polygon class="cls-159" points="22.21 14.29 22.15 14.4 22.02 14.4 22.21 14.03 22.21 14.29"/>
      <polygon class="cls-137" points="22.15 14.4 22.21 14.29 22.21 14.4 22.15 14.4"/>
    </g>
    <path class="cls-31" d="M22.31,13.91c0,.33-.27.59-.59.59h-10.53c-.33,0-.59-.27-.59-.59s.26-.59.59-.59h10.53c.33,0,.59.27.59.59Z"/>
  </g>
  <g>
    <g class="cls-188">
      <polygon class="cls-174" points="14.57 4.47 14.46 4.69 14.46 4.47 14.57 4.47"/>
      <polygon class="cls-32" points="14.81 4.47 14.46 5.19 14.46 4.69 14.57 4.47 14.81 4.47"/>
      <polygon class="cls-147" points="15.06 4.47 14.58 5.45 14.46 5.45 14.46 5.19 14.81 4.47 15.06 4.47"/>
      <polygon class="cls-126" points="15.31 4.47 14.83 5.45 14.58 5.45 15.06 4.47 15.31 4.47"/>
      <polygon class="cls-155" points="15.56 4.47 15.07 5.45 14.83 5.45 15.31 4.47 15.56 4.47"/>
      <polygon class="cls-4" points="15.8 4.47 15.32 5.45 15.07 5.45 15.56 4.47 15.8 4.47"/>
      <polygon class="cls-180" points="16.05 4.47 15.57 5.45 15.32 5.45 15.8 4.47 16.05 4.47"/>
      <polygon class="cls-101" points="16.3 4.47 15.82 5.45 15.57 5.45 16.05 4.47 16.3 4.47"/>
      <polygon class="cls-123" points="16.54 4.47 16.06 5.45 15.82 5.45 16.3 4.47 16.54 4.47"/>
      <polygon class="cls-3" points="16.79 4.47 16.31 5.45 16.06 5.45 16.54 4.47 16.79 4.47"/>
      <polygon class="cls-164" points="17.04 4.47 16.56 5.45 16.31 5.45 16.79 4.47 17.04 4.47"/>
      <polygon class="cls-182" points="17.29 4.47 16.8 5.45 16.56 5.45 17.04 4.47 17.29 4.47"/>
      <polygon class="cls-20" points="17.53 4.47 17.05 5.45 16.8 5.45 17.29 4.47 17.53 4.47"/>
      <polygon class="cls-14" points="17.78 4.47 17.3 5.45 17.05 5.45 17.53 4.47 17.78 4.47"/>
      <polygon class="cls-112" points="18.03 4.47 17.55 5.45 17.3 5.45 17.78 4.47 18.03 4.47"/>
      <polygon class="cls-43" points="18.27 4.47 17.79 5.45 17.55 5.45 18.03 4.47 18.27 4.47"/>
      <polygon class="cls-67" points="18.52 4.47 18.04 5.45 17.79 5.45 18.27 4.47 18.52 4.47"/>
      <polygon class="cls-121" points="18.77 4.47 18.29 5.45 18.04 5.45 18.52 4.47 18.77 4.47"/>
      <polygon class="cls-89" points="19.02 4.47 18.54 5.45 18.29 5.45 18.77 4.47 19.02 4.47"/>
      <polygon class="cls-33" points="19.26 4.47 18.78 5.45 18.54 5.45 19.02 4.47 19.26 4.47"/>
      <polygon class="cls-57" points="19.51 4.47 19.03 5.45 18.78 5.45 19.26 4.47 19.51 4.47"/>
      <polygon class="cls-51" points="19.76 4.47 19.28 5.45 19.03 5.45 19.51 4.47 19.76 4.47"/>
      <polygon class="cls-64" points="20 4.47 19.52 5.45 19.28 5.45 19.76 4.47 20 4.47"/>
      <polygon class="cls-47" points="20.25 4.47 19.77 5.45 19.52 5.45 20 4.47 20.25 4.47"/>
      <polygon class="cls-80" points="20.5 4.47 20.02 5.45 19.77 5.45 20.25 4.47 20.5 4.47"/>
      <polygon class="cls-163" points="20.75 4.47 20.27 5.45 20.02 5.45 20.5 4.47 20.75 4.47"/>
      <polygon class="cls-19" points="20.99 4.47 20.51 5.45 20.27 5.45 20.75 4.47 20.99 4.47"/>
      <polygon class="cls-139" points="21.24 4.47 20.76 5.45 20.51 5.45 20.99 4.47 21.24 4.47"/>
      <polygon class="cls-165" points="21.49 4.47 21.01 5.45 20.76 5.45 21.24 4.47 21.49 4.47"/>
      <polygon class="cls-52" points="21.54 4.86 21.25 5.45 21.01 5.45 21.49 4.47 21.54 4.47 21.54 4.86"/>
      <polygon class="cls-82" points="21.54 5.37 21.5 5.45 21.25 5.45 21.54 4.86 21.54 5.37"/>
      <polygon class="cls-16" points="21.5 5.45 21.54 5.37 21.54 5.45 21.5 5.45"/>
    </g>
    <path class="cls-120" d="M21.64,4.96c0,.33-.27.59-.59.59h-6.1c-.33,0-.59-.27-.59-.59s.26-.59.59-.59h6.1c.33,0,.59.27.59.59Z"/>
  </g>
</svg>