<?xml version="1.0" encoding="UTF-8"?>
<svg id="Layer_1" data-name="Layer 1" xmlns="http://www.w3.org/2000/svg" xmlns:xlink="http://www.w3.org/1999/xlink" viewBox="0 0 36 34">
  <defs>
    <style>
      .cls-1 {
        fill: url(#linear-gradient);
      }

      .cls-1, .cls-2, .cls-3 {
        stroke-width: 0px;
      }

      .cls-2 {
        fill: url(#linear-gradient-3);
      }

      .cls-2, .cls-3 {
        fill-rule: evenodd;
      }

      .cls-3 {
        fill: url(#linear-gradient-2);
      }
    </style>
    <linearGradient id="linear-gradient" x1="-.02" y1="6.55" x2="26.55" y2="21.96" gradientUnits="userSpaceOnUse">
      <stop offset="0" stop-color="#0049e7"/>
      <stop offset=".11" stop-color="#0648e7"/>
      <stop offset=".26" stop-color="#1647e9"/>
      <stop offset=".46" stop-color="#3144eb"/>
      <stop offset=".66" stop-color="#5740ee"/>
      <stop offset=".79" stop-color="#883bf3"/>
      <stop offset=".98" stop-color="#c236f7"/>
      <stop offset="1" stop-color="#c835f8"/>
    </linearGradient>
    <linearGradient id="linear-gradient-2" x1="-.02" y1="6.55" x2="26.55" y2="21.96" xlink:href="#linear-gradient"/>
    <linearGradient id="linear-gradient-3" x1="-.02" y1="6.55" x2="26.55" y2="21.96" xlink:href="#linear-gradient"/>
  </defs>
  <path class="cls-1" d="M20.9,3l7.77,4.48c-.24.29-.44.62-.56.97l-7.77-4.48c.12-.14.23-.29.33-.46.1-.17.17-.34.24-.51h0ZM31.58,12.52v8.97c-.37-.07-.75-.07-1.13,0v-8.97c.18.03.37.05.57.05s.38-.02.57-.05h0ZM28.67,26.52l-7.77,4.48c-.12-.36-.31-.69-.56-.98l7.77-4.48c.06.17.14.35.24.51.1.17.21.32.33.46h0ZM15.09,31l-7.77-4.48c.24-.29.44-.62.57-.98l7.77,4.48c-.12.14-.23.29-.32.46-.1.17-.18.34-.24.51h0ZM4.42,21.49v-8.97c.37.07.76.07,1.13,0v8.97c-.18-.03-.37-.05-.57-.05s-.38.02-.57.05h0ZM7.33,7.49l7.77-4.48c.12.35.31.69.56.98l-7.77,4.48c-.06-.18-.14-.35-.24-.51s-.2-.32-.33-.46h0Z"/>
  <g>
    <path class="cls-3" d="M18.56,8.88c2.57.18,4.82,1.55,6.18,3.57,0,0,.01,0,.02,0l3.34-1.93c.13.36.32.69.56.97l-3.34,1.93s0,0-.02,0c.53,1.08.83,2.29.83,3.57s-.3,2.49-.83,3.57c0,0,.01,0,.02,0l3.34,1.93c-.25.29-.44.62-.56.98l-3.34-1.93s-.01,0-.02,0c-1.36,2.02-3.61,3.39-6.18,3.57v3.88c-.38-.07-.76-.07-1.13,0v-3.88c-2.57-.18-4.82-1.55-6.18-3.57,0,0-.01,0-.02,0l-3.34,1.93c-.13-.36-.32-.69-.57-.98l3.34-1.93s0,0,.02,0c-.53-1.08-.82-2.29-.82-3.57s.3-2.49.82-3.57c0,0-.01,0-.02,0l-3.34-1.93c.25-.29.44-.62.56-.98l3.34,1.93s.01,0,.02,0c1.36-2.02,3.61-3.39,6.18-3.57v-3.88c.38.07.76.07,1.13,0v3.88h0ZM13.92,15.9c.07.08.15.15.25.2.35.22.86.35,1.4.43h4.86c.54-.08,1.04-.21,1.4-.43.09-.06.18-.13.25-.2v-1.59h-8.15v1.59ZM19.35,13.17h0c0-.16-.06-.29-.16-.39-.1-.1-.23-.16-.38-.16h-1.62c-.15,0-.29.06-.38.16-.1.1-.16.23-.16.38h0s2.71,0,2.71,0h0ZM20.49,13.17h0s2.36,0,2.36,0c.31,0,.57.25.57.57v1.6c0,.35-.07.65-.2.9v4.23c0,.31-.25.57-.57.57h-9.28c-.31,0-.57-.25-.57-.57v-4.23c-.13-.26-.2-.56-.2-.9v-1.6c0-.31.25-.57.57-.57h2.36c0-.47.19-.89.49-1.19s.72-.49,1.18-.49h1.62c.46,0,.88.19,1.18.49s.49.72.49,1.18h0ZM13.92,17.24v2.66h8.15v-2.66c-.44.2-.96.33-1.49.41-.04,0-.07.01-.11.01h-4.94s-.05,0-.08,0c-.54-.08-1.07-.21-1.52-.41h0Z"/>
    <path class="cls-2" d="M19.69,33c.54-.93.22-2.12-.71-2.66-.93-.54-2.12-.22-2.66.71-.54.93-.22,2.13.71,2.66.93.54,2.12.22,2.66-.71ZM16.31,1c-.54.93-.22,2.13.71,2.66.93.54,2.13.22,2.66-.71s.22-2.12-.71-2.66c-.93-.54-2.12-.22-2.66.71h0ZM3.3,10.46c.54.93,1.73,1.25,2.66.71.93-.54,1.25-1.73.71-2.66-.54-.93-1.73-1.25-2.66-.71-.93.54-1.25,1.73-.71,2.66h0ZM31.01,7.54c-1.08,0-1.95.87-1.95,1.95s.87,1.95,1.95,1.95,1.95-.87,1.95-1.95-.87-1.95-1.95-1.95ZM32.7,23.54c-.54-.93-1.73-1.25-2.66-.71-.93.54-1.25,1.73-.71,2.66.54.93,1.73,1.25,2.66.71.93-.54,1.25-1.73.71-2.66h0ZM4.99,26.46c1.08,0,1.95-.87,1.95-1.95s-.87-1.95-1.95-1.95-1.95.87-1.95,1.95.87,1.95,1.95,1.95Z"/>
  </g>
</svg>