<?xml version="1.0" encoding="UTF-8"?>
<svg id="Layer_1" data-name="Layer 1" xmlns="http://www.w3.org/2000/svg" xmlns:xlink="http://www.w3.org/1999/xlink" viewBox="0 0 36 34">
  <defs>
    <style>
      .cls-1 {
        fill: url(#linear-gradient-12);
      }

      .cls-1, .cls-2, .cls-3, .cls-4, .cls-5, .cls-6, .cls-7, .cls-8, .cls-9, .cls-10, .cls-11, .cls-12 {
        stroke-width: 0px;
      }

      .cls-2 {
        fill: url(#linear-gradient);
      }

      .cls-3 {
        fill: url(#linear-gradient-6);
      }

      .cls-4 {
        fill: url(#linear-gradient-11);
      }

      .cls-5 {
        fill: url(#linear-gradient-5);
      }

      .cls-6 {
        fill: url(#linear-gradient-2);
      }

      .cls-7 {
        fill: url(#linear-gradient-7);
      }

      .cls-8 {
        fill: url(#linear-gradient-3);
      }

      .cls-9 {
        fill: url(#linear-gradient-9);
      }

      .cls-10 {
        fill: url(#linear-gradient-8);
      }

      .cls-11 {
        fill: url(#linear-gradient-10);
      }

      .cls-12 {
        fill: url(#linear-gradient-4);
      }
    </style>
    <linearGradient id="linear-gradient" x1="4.32" y1="1.26" x2="28.71" y2="29.31" gradientUnits="userSpaceOnUse">
      <stop offset="0" stop-color="#0049e7"/>
      <stop offset=".11" stop-color="#0648e7"/>
      <stop offset=".26" stop-color="#1647e9"/>
      <stop offset=".46" stop-color="#3144eb"/>
      <stop offset=".66" stop-color="#5740ee"/>
      <stop offset=".79" stop-color="#883bf3"/>
      <stop offset=".98" stop-color="#c236f7"/>
      <stop offset="1" stop-color="#c835f8"/>
    </linearGradient>
    <linearGradient id="linear-gradient-2" x1="11.83" y1="-5.27" x2="36.22" y2="22.77" xlink:href="#linear-gradient"/>
    <linearGradient id="linear-gradient-3" x1=".52" y1="4.57" x2="24.91" y2="32.61" xlink:href="#linear-gradient"/>
    <linearGradient id="linear-gradient-4" x1="-2.43" y1="7.13" x2="21.96" y2="35.18" xlink:href="#linear-gradient"/>
    <linearGradient id="linear-gradient-5" x1="7.3" y1="-1.33" x2="31.69" y2="26.71" xlink:href="#linear-gradient"/>
    <linearGradient id="linear-gradient-6" x1="3.73" y1="1.78" x2="28.12" y2="29.82" xlink:href="#linear-gradient"/>
    <linearGradient id="linear-gradient-7" x1="5.91" y1="-.12" x2="30.3" y2="27.92" xlink:href="#linear-gradient"/>
    <linearGradient id="linear-gradient-8" x1="3.88" y1="1.65" x2="28.27" y2="29.69" xlink:href="#linear-gradient"/>
    <linearGradient id="linear-gradient-9" x1="5.27" y1=".43" x2="29.66" y2="28.48" xlink:href="#linear-gradient"/>
    <linearGradient id="linear-gradient-10" x1="1.85" y1="3.41" x2="26.24" y2="31.45" xlink:href="#linear-gradient"/>
    <linearGradient id="linear-gradient-11" x1="9.34" y1="-3.1" x2="33.73" y2="24.94" xlink:href="#linear-gradient"/>
    <linearGradient id="linear-gradient-12" x1="11.31" y1="-4.82" x2="35.7" y2="23.23" xlink:href="#linear-gradient"/>
  </defs>
  <path class="cls-2" d="M30.5.66c-.43-.42-.98-.66-1.58-.66H9.94c-1.22,0-2.22.99-2.22,2.22v.65h-.64c-1.22,0-2.22.99-2.22,2.22v26.7c0,1.22.99,2.22,2.22,2.22h18.98c1.22,0,2.22-.99,2.22-2.22v-.64h.64c1.22,0,2.22-.99,2.22-2.22V2.22c0-.59-.22-1.14-.64-1.56ZM26.96,31.78c0,.5-.4.89-.89.89H7.08c-.5,0-.89-.4-.89-.89V5.08c0-.5.4-.89.89-.89h.64v24.74c0,1.22.99,2.22,2.22,2.22h17.02v.64ZM29.81,29.02c-.04.45-.43.81-.88.81H9.94c-.5,0-.89-.41-.89-.89V2.22c0-.5.4-.89.89-.89h18.98c.5,0,.89.4.89.89v26.8Z"/>
  <path class="cls-6" d="M27.48,6.97v-1.37c0-1.65-1.34-2.99-2.99-2.99s-2.99,1.34-2.99,2.99v1.37c-.63.17-1.06.73-1.06,1.38v3.98c0,.8.65,1.44,1.44,1.44h5.23c.8,0,1.44-.65,1.44-1.44v-3.98c0-.66-.45-1.21-1.06-1.38ZM22.82,5.6c0-.45.17-.86.49-1.18.32-.32.74-.5,1.18-.5.92,0,1.67.76,1.67,1.68v1.32h-3.34v-1.32ZM27.23,12.33c0,.07-.06.12-.12.12h-5.23c-.06,0-.12-.05-.12-.12v-3.98c0-.07.05-.12.12-.12h5.23c.07,0,.12.05.12.12v3.98Z"/>
  <path class="cls-8" d="M16.41,19.13l-3.27,3.27c-.13.12-.3.19-.47.19-.18,0-.34-.07-.47-.19l-1.69-1.7c-.26-.26-.26-.68,0-.93.25-.26.67-.26.92,0l1.23,1.23,2.79-2.8c.26-.26.68-.25.94,0,.25.25.25.67,0,.92Z"/>
  <path class="cls-12" d="M16.41,25.09l-3.27,3.26c-.13.12-.29.19-.47.19s-.34-.07-.47-.19l-1.69-1.7c-.26-.26-.26-.67,0-.92.25-.26.67-.26.92,0l1.23,1.22,2.79-2.8c.26-.25.68-.25.94,0,.25.26.25.68,0,.93Z"/>
  <path class="cls-5" d="M19.42,7.37c0,.37-.3.66-.66.66h-7.78c-.37,0-.67-.29-.67-.66s.3-.66.67-.66h7.78c.36,0,.66.29.66.66Z"/>
  <path class="cls-3" d="M21.13,15.57c0,.37-.3.67-.67.67h-9.48c-.37,0-.67-.3-.67-.67s.3-.66.67-.66h9.48c.37,0,.67.3.67.66Z"/>
  <path class="cls-7" d="M28.54,19.67c0,.37-.29.67-.66.67h-9.48c-.37,0-.67-.3-.67-.67s.3-.66.67-.66h9.48c.37,0,.66.3.66.66Z"/>
  <path class="cls-10" d="M28.54,23.78c0,.37-.29.67-.66.67h-9.48c-.37,0-.67-.3-.67-.67s.3-.66.67-.66h9.48c.37,0,.66.3.66.66Z"/>
  <path class="cls-9" d="M19.42,11.46c0,.37-.3.67-.66.67h-7.78c-.37,0-.67-.3-.67-.67s.3-.66.67-.66h7.78c.36,0,.66.3.66.66Z"/>
  <path class="cls-11" d="M28.54,27.89c0,.36-.29.66-.66.66h-9.48c-.37,0-.67-.3-.67-.66s.3-.67.67-.67h9.48c.37,0,.66.3.66.67Z"/>
  <path class="cls-4" d="M19.42,3.26c0,.37-.3.66-.66.66h-7.78c-.37,0-.67-.29-.67-.66s.3-.66.67-.66h7.78c.36,0,.66.29.66.66Z"/>
  <path class="cls-1" d="M25.15,10.02v.64c0,.37-.29.67-.66.67s-.66-.3-.66-.67v-.64c0-.37.29-.66.66-.66s.66.29.66.66Z"/>
</svg>