<?xml version="1.0" encoding="UTF-8"?>
<svg id="Layer_1" data-name="Layer 1" xmlns="http://www.w3.org/2000/svg" xmlns:xlink="http://www.w3.org/1999/xlink" viewBox="0 0 36 34">
  <defs>
    <style>
      .cls-1 {
        fill: url(#linear-gradient);
        fill-rule: evenodd;
        stroke-width: 0px;
      }
    </style>
    <linearGradient id="linear-gradient" x1="-5.46" y1="-1.16" x2="31.48" y2="27.43" gradientUnits="userSpaceOnUse">
      <stop offset="0" stop-color="#0049e7"/>
      <stop offset=".11" stop-color="#0648e7"/>
      <stop offset=".26" stop-color="#1647e9"/>
      <stop offset=".46" stop-color="#3144eb"/>
      <stop offset=".66" stop-color="#5740ee"/>
      <stop offset=".79" stop-color="#883bf3"/>
      <stop offset=".98" stop-color="#c236f7"/>
      <stop offset="1" stop-color="#c835f8"/>
    </linearGradient>
  </defs>
  <path class="cls-1" d="M1.09.09v7.87h7.87V.09H1.09ZM7.54,6.02H2.51c-.24,0-.43-.19-.43-.43s.19-.43.43-.43h5.02c.24,0,.43.19.43.43s-.19.43-.43.43ZM7.54,2.97H2.56c-.24,0-.43-.19-.43-.43s.19-.43.43-.43h4.98c.24,0,.43.19.43.43,0,.24-.19.43-.43.43ZM21.03,3.59l-1.35-1.35c-.17-.17-.17-.44,0-.61s.44-.17.61,0l2.09,2.09c.17.17.17.44,0,.61l-2.09,2.09c-.08.08-.2.13-.31.13s-.22-.04-.31-.13c-.17-.17-.17-.44,0-.61l1.35-1.35h-7c-.24,0-.43-.19-.43-.43s.19-.43.43-.43h7ZM7.54,15.31c-.08.08-.2.13-.31.13s-.22-.04-.31-.13l-1.35-1.35v7c0,.24-.19.43-.43.43s-.43-.19-.43-.43v-7l-1.35,1.35c-.17.17-.44.17-.61,0-.17-.17-.17-.44,0-.61l2.09-2.09c.17-.17.44-.17.61,0l2.09,2.09c.17.17.17.44,0,.61h0ZM18,10.47c-3.6,0-6.53,2.93-6.53,6.53,0,1.91.83,3.64,2.14,4.83v-.43c0-1.82,1.48-3.3,3.3-3.3h2.18c1.82,0,3.3,1.48,3.3,3.3v.43c1.32-1.2,2.14-2.92,2.14-4.83,0-3.6-2.93-6.53-6.53-6.53h0ZM18,17.07c-1.37,0-2.48-1.11-2.48-2.48s1.11-2.48,2.48-2.48,2.48,1.11,2.48,2.48-1.11,2.48-2.48,2.48ZM21.52,21.41v1.09c-1.02.65-2.23,1.03-3.52,1.03s-2.51-.38-3.52-1.03v-1.09c0-1.34,1.09-2.43,2.44-2.43h2.18c1.34,0,2.44,1.09,2.44,2.43ZM18,12.98c.89,0,1.61.72,1.61,1.61s-.72,1.61-1.61,1.61-1.61-.72-1.61-1.61.72-1.61,1.61-1.61ZM27.04,7.96h7.88V.09h-7.88v7.87ZM33.49,6.02h-5.02c-.24,0-.43-.19-.43-.43s.19-.43.43-.43h5.02c.24,0,.43.19.43.43s-.19.43-.43.43ZM33.49,2.97h-4.98c-.24,0-.43-.19-.43-.43s.19-.43.43-.43h4.98c.24,0,.43.19.43.43s-.19.43-.43.43ZM31.4,12.91v7l1.35-1.35c.17-.17.45-.17.62,0,.17.17.17.44,0,.61l-2.09,2.09c-.08.08-.2.13-.31.13s-.22-.04-.3-.13l-2.09-2.09c-.17-.17-.17-.44,0-.61.17-.17.44-.17.61,0l1.35,1.35v-7c0-.24.2-.43.43-.43s.43.19.43.43h0ZM33.49,28.92h-4.98c-.24,0-.43-.19-.43-.43s.19-.43.43-.43h4.98c.24,0,.43.19.43.43s-.19.43-.43.43ZM34.91,26.04h-7.88v7.87h7.88v-7.87h0ZM28.46,31.1h5.02c.24,0,.43.19.43.43s-.19.43-.43.43h-5.02c-.24,0-.43-.19-.43-.43,0-.24.19-.43.43-.43ZM22.08,30.28h-7l1.35,1.35c.17.17.17.44,0,.61-.08.08-.2.13-.31.13s-.22-.04-.31-.13l-2.09-2.09c-.17-.17-.17-.44,0-.61l2.09-2.09c.17-.17.44-.17.61,0,.17.17.17.44,0,.61l-1.35,1.35h7c.24,0,.43.19.43.43,0,.24-.19.43-.43.43h0ZM8.96,33.91v-7.87H1.09v7.87h7.87ZM2.51,31.1h5.02c.24,0,.43.19.43.43s-.19.43-.43.43H2.51c-.24,0-.43-.19-.43-.43,0-.24.2-.43.43-.43ZM7.54,28.92H2.56c-.24,0-.43-.19-.43-.43s.19-.43.43-.43h4.98c.24,0,.43.19.43.43,0,.24-.19.43-.43.43Z"/>
</svg>