<?xml version="1.0" encoding="UTF-8"?>
<svg id="Layer_1" data-name="Layer 1" xmlns="http://www.w3.org/2000/svg" xmlns:xlink="http://www.w3.org/1999/xlink" viewBox="0 0 36 34">
  <defs>
    <style>
      .cls-1 {
        fill: url(#linear-gradient-8);
      }

      .cls-1, .cls-2, .cls-3, .cls-4, .cls-5, .cls-6, .cls-7, .cls-8, .cls-9, .cls-10, .cls-11, .cls-12, .cls-13, .cls-14, .cls-15, .cls-16, .cls-17, .cls-18, .cls-19 {
        fill-rule: evenodd;
        stroke-width: 0px;
      }

      .cls-2 {
        fill: url(#linear-gradient-11);
      }

      .cls-3 {
        fill: url(#linear-gradient-7);
      }

      .cls-4 {
        fill: url(#linear-gradient-16);
      }

      .cls-5 {
        fill: url(#linear-gradient-9);
      }

      .cls-6 {
        fill: url(#linear-gradient-18);
      }

      .cls-7 {
        fill: url(#linear-gradient-3);
      }

      .cls-8 {
        fill: url(#linear-gradient-17);
      }

      .cls-9 {
        fill: url(#linear-gradient);
      }

      .cls-10 {
        fill: url(#linear-gradient-13);
      }

      .cls-11 {
        fill: url(#linear-gradient-2);
      }

      .cls-12 {
        fill: url(#linear-gradient-15);
      }

      .cls-13 {
        fill: url(#linear-gradient-5);
      }

      .cls-14 {
        fill: url(#linear-gradient-19);
      }

      .cls-15 {
        fill: url(#linear-gradient-12);
      }

      .cls-16 {
        fill: url(#linear-gradient-14);
      }

      .cls-17 {
        fill: url(#linear-gradient-6);
      }

      .cls-18 {
        fill: url(#linear-gradient-4);
      }

      .cls-19 {
        fill: url(#linear-gradient-10);
      }
    </style>
    <linearGradient id="linear-gradient" x1="-7.77" y1="6.58" x2="26.49" y2="30.7" gradientUnits="userSpaceOnUse">
      <stop offset="0" stop-color="#0049e7"/>
      <stop offset=".11" stop-color="#0648e7"/>
      <stop offset=".26" stop-color="#1647e9"/>
      <stop offset=".46" stop-color="#3144eb"/>
      <stop offset=".66" stop-color="#5740ee"/>
      <stop offset=".79" stop-color="#883bf3"/>
      <stop offset=".98" stop-color="#c236f7"/>
      <stop offset="1" stop-color="#c835f8"/>
    </linearGradient>
    <linearGradient id="linear-gradient-2" x1="-2.17" y1="-1.37" x2="32.08" y2="22.76" xlink:href="#linear-gradient"/>
    <linearGradient id="linear-gradient-3" x1="-7.06" y1="5.58" x2="27.19" y2="29.7" xlink:href="#linear-gradient"/>
    <linearGradient id="linear-gradient-4" x1="-10.53" y1="10.5" x2="23.73" y2="34.62" xlink:href="#linear-gradient"/>
    <linearGradient id="linear-gradient-5" x1="-2.85" y1="-.4" x2="31.41" y2="23.72" xlink:href="#linear-gradient"/>
    <linearGradient id="linear-gradient-6" x1="-5.03" y1="2.7" x2="29.22" y2="26.82" xlink:href="#linear-gradient"/>
    <linearGradient id="linear-gradient-7" x1="-7.21" y1="5.8" x2="27.04" y2="29.92" xlink:href="#linear-gradient"/>
    <linearGradient id="linear-gradient-8" x1="-9.4" y1="8.9" x2="24.86" y2="33.02" xlink:href="#linear-gradient"/>
    <linearGradient id="linear-gradient-9" x1="-11.58" y1="12" x2="22.67" y2="36.12" xlink:href="#linear-gradient"/>
    <linearGradient id="linear-gradient-10" x1="-13.76" y1="15.1" x2="20.49" y2="39.22" xlink:href="#linear-gradient"/>
    <linearGradient id="linear-gradient-11" x1="-14.44" y1="16.06" x2="19.81" y2="40.18" xlink:href="#linear-gradient"/>
    <linearGradient id="linear-gradient-12" x1="-12.9" y1="13.88" x2="21.35" y2="38" xlink:href="#linear-gradient"/>
    <linearGradient id="linear-gradient-13" x1="-11.37" y1="11.7" x2="22.88" y2="35.82" xlink:href="#linear-gradient"/>
    <linearGradient id="linear-gradient-14" x1="-9.83" y1="9.51" x2="24.42" y2="33.63" xlink:href="#linear-gradient"/>
    <linearGradient id="linear-gradient-15" x1="-8.29" y1="7.33" x2="25.96" y2="31.45" xlink:href="#linear-gradient"/>
    <linearGradient id="linear-gradient-16" x1="-6.75" y1="5.15" x2="27.5" y2="29.27" xlink:href="#linear-gradient"/>
    <linearGradient id="linear-gradient-17" x1="-2.58" y1="-.78" x2="31.67" y2="23.34" xlink:href="#linear-gradient"/>
    <linearGradient id="linear-gradient-18" x1="1.75" y1="-6.92" x2="36" y2="17.2" xlink:href="#linear-gradient"/>
    <linearGradient id="linear-gradient-19" x1="-2.4" y1="-1.04" x2="31.85" y2="23.08" xlink:href="#linear-gradient"/>
  </defs>
  <g id="Layer_1-2" data-name="Layer_1">
    <path class="cls-9" d="M34.41,30.62H4.72c-.22,0-.4-.18-.4-.4V.53c0-.22.18-.4.4-.4s.4.18.4.4v29.29h29.29c.22,0,.4.18.4.4s-.18.4-.4.4h0Z"/>
    <path class="cls-11" d="M31.96,30.62h-6.36c-.22,0-.4-.18-.4-.4v-13.96h-2.17c-.15,0-.29-.09-.36-.22-.07-.14-.05-.3.04-.42l5.75-7.46c.15-.2.48-.2.63,0l5.72,7.42c.08.07.12.17.12.29,0,.22-.18.4-.4.4h-2.18s0,13.96,0,13.96c0,.22-.18.4-.4.4h0ZM27.74,28.42c-.22,0-.4-.18-.4-.4v-11.04c0-.22.18-.4.4-.4s.4.18.4.4v11.04c0,.22-.18.4-.4.4h0Z"/>
    <path class="cls-7" d="M22.54,30.62h-5.06c-.22,0-.4-.18-.4-.4v-11.16c0-.22.18-.4.4-.4h5.06c.22,0,.4.18.4.4v11.16c0,.22-.18.4-.4.4h0ZM20.89,24.13c-.22,0-.4-.18-.4-.4v-2.62h-1.1c-.22,0-.4-.18-.4-.4s.18-.4.4-.4h1.5c.22,0,.4.18.4.4v3.02c0,.22-.18.4-.4.4h0Z"/>
    <path class="cls-18" d="M14.42,30.62h-5.06c-.22,0-.4-.18-.4-.4v-7.85c0-.22.18-.4.4-.4h5.06c.22,0,.4.18.4.4v7.85c0,.22-.18.4-.4.4ZM12.77,27.43c-.22,0-.4-.18-.4-.4v-2.62h-1.1c-.22,0-.4-.18-.4-.4s.18-.4.4-.4h1.5c.22,0,.4.18.4.4v3.02c0,.22-.18.4-.4.4h0Z"/>
    <path class="cls-13" d="M4.72,4.17H1.46c-.22,0-.4-.18-.4-.4s.18-.4.4-.4h3.25c.22,0,.4.18.4.4s-.18.4-.4.4Z"/>
    <path class="cls-17" d="M4.72,8.81H1.46c-.22,0-.4-.18-.4-.4s.18-.4.4-.4h3.25c.22,0,.4.18.4.4s-.18.4-.4.4Z"/>
    <path class="cls-3" d="M4.72,13.45H1.46c-.22,0-.4-.18-.4-.4s.18-.4.4-.4h3.25c.22,0,.4.18.4.4s-.18.4-.4.4Z"/>
    <path class="cls-1" d="M4.72,18.09H1.46c-.22,0-.4-.18-.4-.4s.18-.4.4-.4h3.25c.22,0,.4.18.4.4s-.18.4-.4.4Z"/>
    <path class="cls-5" d="M4.72,22.73H1.46c-.22,0-.4-.18-.4-.4s.18-.4.4-.4h3.25c.22,0,.4.18.4.4s-.18.4-.4.4Z"/>
    <path class="cls-19" d="M4.72,27.36H1.46c-.22,0-.4-.18-.4-.4s.18-.4.4-.4h3.25c.22,0,.4.18.4.4s-.18.4-.4.4Z"/>
    <path class="cls-2" d="M7.97,33.87c-.22,0-.4-.18-.4-.4v-3.25c0-.22.18-.4.4-.4s.4.18.4.4v3.25c0,.22-.18.4-.4.4Z"/>
    <path class="cls-15" d="M12.61,33.87c-.22,0-.4-.18-.4-.4v-3.25c0-.22.18-.4.4-.4s.4.18.4.4v3.25c0,.22-.18.4-.4.4Z"/>
    <path class="cls-10" d="M17.24,33.87c-.22,0-.4-.18-.4-.4v-3.25c0-.22.18-.4.4-.4s.4.18.4.4v3.25c0,.22-.18.4-.4.4Z"/>
    <path class="cls-16" d="M21.88,33.87c-.22,0-.4-.18-.4-.4v-3.25c0-.22.18-.4.4-.4s.4.18.4.4v3.25c0,.22-.18.4-.4.4Z"/>
    <path class="cls-12" d="M26.52,33.87c-.22,0-.4-.18-.4-.4v-3.25c0-.22.18-.4.4-.4s.4.18.4.4v3.25c0,.22-.18.4-.4.4Z"/>
    <path class="cls-4" d="M31.16,33.87c-.22,0-.4-.18-.4-.4v-3.25c0-.22.18-.4.4-.4s.4.18.4.4v3.25c0,.22-.18.4-.4.4Z"/>
    <path class="cls-8" d="M8.73,18.34c-.2,0-.37-.15-.39-.35-.03-.22.13-.42.34-.44.12-.01,11.73-1.61,14.24-10.97.06-.21.27-.34.49-.28.21.06.34.27.28.49-2.65,9.87-14.78,11.53-14.91,11.55-.02,0-.03,0-.05,0h0Z"/>
    <path class="cls-6" d="M24.09,9.82c-.17,0-.33-.11-.38-.29l-.65-2.26-2.05,1.15c-.19.11-.43.04-.54-.15-.11-.19-.04-.43.15-.54l2.49-1.39c.11-.06.23-.07.34-.02.11.05.2.14.23.26l.79,2.74c.06.21-.06.43-.27.49-.04.01-.07.02-.11.02h0Z"/>
    <path class="cls-14" d="M11.99,14.01c-2.71,0-4.91-2.2-4.91-4.91s2.2-4.91,4.91-4.91,4.91,2.2,4.91,4.91-2.2,4.91-4.91,4.91h0ZM11.59,11.42c-.57-.17-.99-.7-.99-1.33,0-.22.18-.4.4-.4s.4.18.4.4c0,.33.27.6.6.6s.6-.27.6-.6c0-.42-.17-.48-.69-.61-.49-.12-1.3-.31-1.3-1.38,0-.63.42-1.16.99-1.33v-.19c0-.22.18-.4.4-.4s.4.18.4.4v.19c.57.17.99.7.99,1.33,0,.22-.18.4-.4.4s-.4-.18-.4-.4c0-.33-.27-.6-.6-.6h0c-.33,0-.6.27-.6.6,0,.42.17.48.69.61.49.12,1.3.31,1.3,1.38,0,.63-.42,1.16-.99,1.33v.19c0,.22-.18.4-.4.4s-.4-.18-.4-.4v-.19h0Z"/>
  </g>
</svg>