<?xml version="1.0" encoding="UTF-8"?>
<svg id="Layer_1" data-name="Layer 1" xmlns="http://www.w3.org/2000/svg" xmlns:xlink="http://www.w3.org/1999/xlink" viewBox="0 0 36 34">
  <defs>
    <style>
      .cls-1 {
        fill: url(#linear-gradient-12);
      }

      .cls-1, .cls-2, .cls-3, .cls-4, .cls-5, .cls-6, .cls-7, .cls-8, .cls-9, .cls-10, .cls-11, .cls-12, .cls-13, .cls-14, .cls-15, .cls-16, .cls-17, .cls-18, .cls-19 {
        stroke-width: 0px;
      }

      .cls-2 {
        fill: url(#linear-gradient-17);
      }

      .cls-3 {
        fill: url(#linear-gradient-19);
      }

      .cls-4 {
        fill: url(#linear-gradient);
      }

      .cls-5 {
        fill: url(#linear-gradient-6);
      }

      .cls-6 {
        fill: url(#linear-gradient-15);
      }

      .cls-7 {
        fill: url(#linear-gradient-11);
      }

      .cls-8 {
        fill: url(#linear-gradient-5);
      }

      .cls-9 {
        fill: url(#linear-gradient-13);
      }

      .cls-10 {
        fill: url(#linear-gradient-16);
      }

      .cls-11 {
        fill: url(#linear-gradient-14);
      }

      .cls-12 {
        fill: url(#linear-gradient-2);
      }

      .cls-13 {
        fill: url(#linear-gradient-7);
      }

      .cls-14 {
        fill: url(#linear-gradient-3);
      }

      .cls-15 {
        fill: url(#linear-gradient-9);
      }

      .cls-16 {
        fill: url(#linear-gradient-8);
      }

      .cls-17 {
        fill: url(#linear-gradient-18);
      }

      .cls-18 {
        fill: url(#linear-gradient-10);
      }

      .cls-19 {
        fill: url(#linear-gradient-4);
      }
    </style>
    <linearGradient id="linear-gradient" x1="-10.98" y1="-4.71" x2="32.74" y2="28.05" gradientUnits="userSpaceOnUse">
      <stop offset="0" stop-color="#0049e7"/>
      <stop offset=".11" stop-color="#0648e7"/>
      <stop offset=".26" stop-color="#1647e9"/>
      <stop offset=".46" stop-color="#3144eb"/>
      <stop offset=".66" stop-color="#5740ee"/>
      <stop offset=".79" stop-color="#883bf3"/>
      <stop offset=".98" stop-color="#c236f7"/>
      <stop offset="1" stop-color="#c835f8"/>
    </linearGradient>
    <linearGradient id="linear-gradient-2" x1="-5.15" y1="-12.49" x2="38.57" y2="20.27" xlink:href="#linear-gradient"/>
    <linearGradient id="linear-gradient-3" x1="-9.26" y1="-7" x2="34.46" y2="25.76" xlink:href="#linear-gradient"/>
    <linearGradient id="linear-gradient-4" x1="-8.5" y1="-8.02" x2="35.22" y2="24.75" xlink:href="#linear-gradient"/>
    <linearGradient id="linear-gradient-5" x1="-7.74" y1="-9.03" x2="35.98" y2="23.73" xlink:href="#linear-gradient"/>
    <linearGradient id="linear-gradient-6" x1="-10.35" y1="-5.56" x2="33.38" y2="27.2" xlink:href="#linear-gradient"/>
    <linearGradient id="linear-gradient-7" x1="-6.93" y1="-10.12" x2="36.8" y2="22.64" xlink:href="#linear-gradient"/>
    <linearGradient id="linear-gradient-8" x1="-13.76" y1="-1" x2="29.96" y2="31.76" xlink:href="#linear-gradient"/>
    <linearGradient id="linear-gradient-9" x1="-17.3" y1="3.72" x2="26.42" y2="36.48" xlink:href="#linear-gradient"/>
    <linearGradient id="linear-gradient-10" x1="-15.02" y1=".68" x2="28.7" y2="33.44" xlink:href="#linear-gradient"/>
    <linearGradient id="linear-gradient-11" x1="-16.41" y1="2.54" x2="27.31" y2="35.3" xlink:href="#linear-gradient"/>
    <linearGradient id="linear-gradient-12" x1="-12.48" y1="-2.71" x2="31.24" y2="30.05" xlink:href="#linear-gradient"/>
    <linearGradient id="linear-gradient-13" x1="-19.47" y1="6.61" x2="24.26" y2="39.38" xlink:href="#linear-gradient"/>
    <linearGradient id="linear-gradient-14" x1="-12.08" y1="-3.25" x2="31.64" y2="29.52" xlink:href="#linear-gradient"/>
    <linearGradient id="linear-gradient-15" x1="-9.76" y1="-6.35" x2="33.97" y2="26.42" xlink:href="#linear-gradient"/>
    <linearGradient id="linear-gradient-16" x1="-7.75" y1="-9.03" x2="35.98" y2="23.73" xlink:href="#linear-gradient"/>
    <linearGradient id="linear-gradient-17" x1="-6.12" y1="-11.19" x2="37.6" y2="21.57" xlink:href="#linear-gradient"/>
    <linearGradient id="linear-gradient-18" x1="-14.58" y1=".09" x2="29.14" y2="32.86" xlink:href="#linear-gradient"/>
    <linearGradient id="linear-gradient-19" x1="-12.96" y1="-2.07" x2="30.76" y2="30.69" xlink:href="#linear-gradient"/>
  </defs>
  <path class="cls-4" d="M32.26,33.97H3.74c-1.49,0-2.71-1.21-2.71-2.71V2.74C1.03,1.25,2.25.03,3.74.03h28.52c1.49,0,2.71,1.21,2.71,2.71v28.52c0,1.49-1.21,2.71-2.71,2.71ZM3.74,1.23c-.84,0-1.52.68-1.52,1.52v28.52c0,.84.68,1.52,1.52,1.52h28.52c.84,0,1.52-.68,1.52-1.52V2.74c0-.84-.68-1.52-1.52-1.52H3.74Z"/>
  <rect class="cls-12" x="1.63" y="4.26" width="32.74" height="1.19"/>
  <rect class="cls-14" x="3.21" y="2.44" width="1.06" height=".6"/>
  <rect class="cls-19" x="5.33" y="2.44" width="1.06" height=".6"/>
  <rect class="cls-8" x="7.44" y="2.44" width="1.06" height=".6"/>
  <path class="cls-5" d="M23.28,22.46h-10.56c-.25,0-.45-.2-.45-.45v-12.67c0-.25.2-.45.45-.45h10.56c.25,0,.45.2.45.45v12.67c0,.25-.2.45-.45.45ZM13.17,21.57h9.67v-11.78h-9.67v11.78Z"/>
  <path class="cls-13" d="M31.73,20.88h-8.45c-.25,0-.45-.2-.45-.45v-9.51c0-.25.2-.45.45-.45h8.45c.25,0,.45.2.45.45v9.51c0,.25-.2.45-.45.45ZM23.73,19.99h7.56v-8.61h-7.56v8.61Z"/>
  <path class="cls-16" d="M12.72,20.88H4.27c-.25,0-.45-.2-.45-.45v-9.51c0-.25.2-.45.45-.45h8.45c.25,0,.45.2.45.45v9.51c0,.25-.2.45-.45.45ZM4.72,19.99h7.56v-8.61h-7.56v8.61Z"/>
  <rect class="cls-15" x="12.19" y="25.92" width="1.06" height=".6"/>
  <rect class="cls-18" x="14.3" y="25.92" width="9.51" height=".6"/>
  <rect class="cls-7" x="12.19" y="28.03" width="11.62" height=".6"/>
  <path class="cls-1" d="M27.72,29.73l-.42-.42,1.9-1.9-1.9-1.9.42-.42,2.11,2.11c.06.06.09.13.09.21s-.03.15-.09.21l-2.11,2.11Z"/>
  <path class="cls-9" d="M8.28,29.73l-2.11-2.11c-.06-.06-.09-.13-.09-.21s.03-.15.09-.21l2.11-2.11.42.42-1.9,1.9,1.9,1.9-.42.42Z"/>
  <g>
    <path class="cls-11" d="M21.03,20.78h-6.05v-1.47c0-1.67,1.36-3.02,3.03-3.02s3.03,1.36,3.03,3.02v1.47ZM15.65,20.11h4.71v-.8c0-1.3-1.06-2.35-2.35-2.35s-2.35,1.06-2.35,2.35v.8Z"/>
    <path class="cls-6" d="M18,15.99c-.85,0-1.54-.69-1.54-1.54s.69-1.54,1.54-1.54,1.54.69,1.54,1.54-.69,1.54-1.54,1.54ZM18,13.58c-.48,0-.87.39-.87.87s.39.87.87.87.87-.39.87-.87-.39-.87-.87-.87Z"/>
  </g>
  <g>
    <path class="cls-10" d="M29.62,18.43h-4.22v-1.03c0-1.16.95-2.11,2.11-2.11s2.11.95,2.11,2.11v1.03ZM25.86,17.96h3.29v-.56c0-.91-.74-1.64-1.64-1.64s-1.64.74-1.64,1.64v.56Z"/>
    <path class="cls-2" d="M27.51,15.08c-.59,0-1.07-.48-1.07-1.07s.48-1.07,1.07-1.07,1.07.48,1.07,1.07-.48,1.07-1.07,1.07ZM27.51,13.4c-.33,0-.61.27-.61.61s.27.61.61.61.61-.27.61-.61-.27-.61-.61-.61Z"/>
  </g>
  <g>
    <path class="cls-17" d="M10.61,18.43h-4.22v-1.03c0-1.16.95-2.11,2.11-2.11s2.11.95,2.11,2.11v1.03ZM6.85,17.96h3.29v-.56c0-.91-.74-1.64-1.64-1.64s-1.64.74-1.64,1.64v.56Z"/>
    <path class="cls-3" d="M8.49,15.08c-.59,0-1.07-.48-1.07-1.07s.48-1.07,1.07-1.07,1.07.48,1.07,1.07-.48,1.07-1.07,1.07ZM8.49,13.4c-.33,0-.61.27-.61.61s.27.61.61.61.61-.27.61-.61-.27-.61-.61-.61Z"/>
  </g>
</svg>