<?xml version="1.0" encoding="UTF-8"?>
<svg id="Layer_1" data-name="Layer 1" xmlns="http://www.w3.org/2000/svg" xmlns:xlink="http://www.w3.org/1999/xlink" viewBox="0 0 36 34">
  <defs>
    <style>
      .cls-1 {
        fill: url(#linear-gradient);
      }

      .cls-1, .cls-2, .cls-3, .cls-4, .cls-5, .cls-6, .cls-7, .cls-8 {
        stroke-width: 0px;
      }

      .cls-2 {
        fill: url(#linear-gradient-6);
      }

      .cls-3 {
        fill: url(#linear-gradient-5);
      }

      .cls-4 {
        fill: url(#linear-gradient-2);
      }

      .cls-5 {
        fill: url(#linear-gradient-7);
      }

      .cls-6 {
        fill: url(#linear-gradient-3);
      }

      .cls-7 {
        fill: url(#linear-gradient-8);
      }

      .cls-8 {
        fill: url(#linear-gradient-4);
      }
    </style>
    <linearGradient id="linear-gradient" x1="-3.35" y1="9.04" x2="26.94" y2="30.06" gradientUnits="userSpaceOnUse">
      <stop offset="0" stop-color="#0049e7"/>
      <stop offset=".11" stop-color="#0648e7"/>
      <stop offset=".26" stop-color="#1647e9"/>
      <stop offset=".46" stop-color="#3144eb"/>
      <stop offset=".66" stop-color="#5740ee"/>
      <stop offset=".79" stop-color="#883bf3"/>
      <stop offset=".98" stop-color="#c236f7"/>
      <stop offset="1" stop-color="#c835f8"/>
    </linearGradient>
    <linearGradient id="linear-gradient-2" x1="-3.35" y1="9.04" x2="26.94" y2="30.06" xlink:href="#linear-gradient"/>
    <linearGradient id="linear-gradient-3" x1="-3.35" y1="9.04" x2="26.94" y2="30.06" xlink:href="#linear-gradient"/>
    <linearGradient id="linear-gradient-4" x1="-3.66" y1="9.49" x2="26.62" y2="30.51" xlink:href="#linear-gradient"/>
    <linearGradient id="linear-gradient-5" x1="4.95" y1="-2.92" x2="35.24" y2="18.11" xlink:href="#linear-gradient"/>
    <linearGradient id="linear-gradient-6" x1="2.52" y1=".59" x2="32.8" y2="21.61" xlink:href="#linear-gradient"/>
    <linearGradient id="linear-gradient-7" x1="4.75" y1="-2.62" x2="35.03" y2="18.4" xlink:href="#linear-gradient"/>
    <linearGradient id="linear-gradient-8" x1="6.98" y1="-5.84" x2="37.26" y2="15.19" xlink:href="#linear-gradient"/>
  </defs>
  <path class="cls-1" d="M30,33.97H6c-1.48,0-2.69-1.2-2.69-2.69v-14.85c0-1.48,1.2-2.69,2.69-2.69h24c1.48,0,2.69,1.2,2.69,2.69v14.85c0,1.48-1.2,2.69-2.69,2.69ZM6,14.54c-1.04,0-1.89.85-1.89,1.89v14.85c0,1.04.85,1.89,1.89,1.89h24c1.04,0,1.89-.85,1.89-1.89v-14.85c0-1.04-.85-1.89-1.89-1.89H6Z"/>
  <path class="cls-4" d="M28.86,31.68H7.14c-.85,0-1.54-.69-1.54-1.54v-12.57c0-.85.69-1.54,1.54-1.54h21.71c.85,0,1.54.69,1.54,1.54v12.57c0,.85-.69,1.54-1.54,1.54ZM7.14,16.83c-.41,0-.74.33-.74.74v12.57c0,.41.33.74.74.74h21.71c.41,0,.74-.33.74-.74v-12.57c0-.41-.33-.74-.74-.74H7.14Z"/>
  <path class="cls-6" d="M18,29.4c-3.06,0-5.54-2.49-5.54-5.54s2.49-5.54,5.54-5.54,5.54,2.49,5.54,5.54-2.49,5.54-5.54,5.54ZM18,19.11c-2.61,0-4.74,2.13-4.74,4.74s2.13,4.74,4.74,4.74,4.74-2.13,4.74-4.74-2.13-4.74-4.74-4.74Z"/>
  <path class="cls-8" d="M16.85,26.54c-.32,0-.64-.16-.82-.46-.09-.14-.14-.31-.14-.48v-3.49c.02-.54.46-.96.99-.95.17,0,.34.05.48.14l2.87,1.74c.21.12.36.33.43.57.06.24.03.49-.1.71-.08.14-.19.25-.33.33l-2.87,1.74c-.16.1-.33.14-.5.14ZM16.85,21.97c-.09,0-.16.07-.16.16v3.47s0,.05.02.07c.05.08.15.1.22.05l2.88-1.74s0,0,0,0c.02-.01.04-.03.05-.05.02-.04.02-.08.01-.1,0-.02-.02-.06-.06-.08l-2.88-1.74s-.06-.03-.09-.03h0Z"/>
  <path class="cls-3" d="M18,14.54c-.09,0-.18-.03-.25-.09l-2.54-2.04c-.13-.1-.3-.16-.46-.16h-7.03c-.85,0-1.54-.69-1.54-1.54V1.57C6.17.72,6.87.03,7.72.03h20.57c.85,0,1.54.69,1.54,1.54v9.14c0,.85-.69,1.54-1.54,1.54h-7.03c-.17,0-.33.06-.46.16l-2.54,2.03c-.07.06-.16.09-.25.09ZM7.72.83c-.41,0-.74.33-.74.74v9.14c0,.41.33.74.74.74h7.03c.35,0,.69.12.96.34l2.29,1.83,2.29-1.83c.27-.22.61-.34.96-.34h7.03c.41,0,.74-.33.74-.74V1.57c0-.41-.33-.74-.74-.74H7.72Z"/>
  <path class="cls-2" d="M12.39,8.83c-.11,0-.22-.03-.32-.08l-.93-.52-.93.51c-.32.17-.72.06-.89-.26-.07-.13-.1-.28-.07-.42l.19-1.14-.79-.81c-.12-.13-.19-.29-.19-.47s.07-.34.2-.46c.1-.1.22-.16.36-.18l1.07-.16.47-1c.16-.33.55-.47.88-.31.14.06.25.17.31.31,0,0,0,0,0,0l.47,1,1.07.16c.18.03.33.12.43.26.1.14.15.32.12.49-.02.14-.08.26-.18.36l-.79.81.19,1.14c.03.17-.01.35-.12.49-.1.14-.25.24-.43.26-.03,0-.07,0-.11,0ZM9.41,5.75l.65.67c.14.15.21.36.18.56l-.15.92.74-.41c.2-.11.44-.11.64,0l.74.41-.15-.92c-.03-.2.03-.42.18-.56l.65-.67-.87-.13c-.22-.03-.4-.17-.5-.37l-.37-.79-.37.79c-.09.2-.28.34-.49.37l-.87.13ZM9.49,6.98h0s0,0,0,0ZM12.24,4.91h0,0Z"/>
  <path class="cls-5" d="M19.25,8.83c-.11,0-.22-.03-.32-.08l-.93-.52-.93.51c-.32.17-.72.06-.89-.26-.07-.13-.1-.28-.07-.42l.19-1.14-.79-.81c-.12-.13-.19-.29-.19-.47s.07-.34.2-.46c.1-.1.22-.16.36-.18l1.07-.16.47-1c.16-.33.55-.47.88-.31.14.06.25.17.31.31,0,0,0,0,0,0l.47,1,1.07.16c.18.03.33.12.43.26.1.14.15.32.12.49-.02.13-.08.26-.18.36l-.79.82.19,1.14c.03.17-.01.35-.11.49-.1.14-.25.24-.43.26-.03,0-.07,0-.11,0ZM19.1,8.2h0s0,0,0,0ZM18,7.41c.11,0,.22.03.32.08l.74.41-.15-.92c-.03-.2.03-.41.18-.56l.65-.67-.87-.13c-.22-.03-.4-.17-.5-.37l-.37-.79-.37.79c-.09.2-.28.34-.49.37l-.87.13.65.67c.14.15.21.36.18.56l-.15.92.74-.41c.1-.06.21-.08.32-.08ZM16.34,6.98h0s0,0,0,0ZM19.7,6.86h0s0,0,0,0ZM19.1,4.91h0,0Z"/>
  <path class="cls-7" d="M26.1,8.83c-.11,0-.22-.03-.32-.08l-.93-.52-.93.51c-.32.18-.72.06-.89-.26-.07-.13-.1-.28-.07-.42l.19-1.14-.79-.81c-.12-.13-.19-.29-.19-.47,0-.18.07-.34.2-.46.1-.1.22-.16.36-.18l1.07-.16.47-1c.08-.16.21-.28.37-.34.17-.06.34-.05.5.03.14.06.25.17.31.31,0,0,0,0,0,0l.47,1,1.07.16c.18.03.33.12.43.26.1.14.15.32.12.49-.02.13-.08.26-.18.36l-.79.82.19,1.14c.03.17-.01.35-.11.49-.1.14-.25.24-.43.26-.03,0-.07,0-.11,0ZM23.12,5.75l.65.67c.14.15.21.36.18.57l-.15.92.74-.41c.2-.11.44-.11.64,0l.74.41-.15-.92c-.03-.2.03-.41.18-.56l.65-.67-.87-.13c-.22-.03-.4-.17-.5-.37l-.37-.79-.37.79c-.09.2-.28.34-.49.37l-.87.13ZM23.2,6.98s0,0,0,0h0ZM23.16,6.86s0,0,0,0h0ZM26.55,6.86h0s0,0,0,0ZM25.95,4.91h0,0Z"/>
</svg>