<?xml version="1.0" encoding="UTF-8"?>
<svg id="Layer_1" data-name="Layer 1" xmlns="http://www.w3.org/2000/svg" xmlns:xlink="http://www.w3.org/1999/xlink" viewBox="0 0 36 34">
  <defs>
    <style>
      .cls-1 {
        fill: url(#linear-gradient);
      }

      .cls-1, .cls-2, .cls-3, .cls-4, .cls-5, .cls-6, .cls-7, .cls-8 {
        stroke-width: 0px;
      }

      .cls-2 {
        fill: url(#linear-gradient-6);
      }

      .cls-3 {
        fill: url(#linear-gradient-5);
      }

      .cls-4 {
        fill: url(#linear-gradient-2);
      }

      .cls-5 {
        fill: url(#linear-gradient-7);
      }

      .cls-6 {
        fill: url(#linear-gradient-3);
      }

      .cls-7 {
        fill: url(#linear-gradient-8);
      }

      .cls-8 {
        fill: url(#linear-gradient-4);
      }
    </style>
    <linearGradient id="linear-gradient" x1="11.37" y1="-5.16" x2="36.03" y2="24.06" gradientUnits="userSpaceOnUse">
      <stop offset="0" stop-color="#0049e7"/>
      <stop offset=".11" stop-color="#0648e7"/>
      <stop offset=".26" stop-color="#1647e9"/>
      <stop offset=".46" stop-color="#3144eb"/>
      <stop offset=".66" stop-color="#5740ee"/>
      <stop offset=".79" stop-color="#883bf3"/>
      <stop offset=".98" stop-color="#c236f7"/>
      <stop offset="1" stop-color="#c835f8"/>
    </linearGradient>
    <linearGradient id="linear-gradient-2" x1="12.37" y1="-6" x2="37.02" y2="23.22" xlink:href="#linear-gradient"/>
    <linearGradient id="linear-gradient-3" x1="4.32" y1=".79" x2="28.97" y2="30.01" xlink:href="#linear-gradient"/>
    <linearGradient id="linear-gradient-4" x1="11.46" y1="-5.24" x2="36.12" y2="23.98" xlink:href="#linear-gradient"/>
    <linearGradient id="linear-gradient-5" x1="2.06" y1="2.7" x2="26.72" y2="31.91" xlink:href="#linear-gradient"/>
    <linearGradient id="linear-gradient-6" x1="1.05" y1="3.55" x2="25.7" y2="32.77" xlink:href="#linear-gradient"/>
    <linearGradient id="linear-gradient-7" x1=".03" y1="4.41" x2="24.68" y2="33.63" xlink:href="#linear-gradient"/>
    <linearGradient id="linear-gradient-8" x1="11.64" y1="-5.39" x2="36.3" y2="23.83" xlink:href="#linear-gradient"/>
  </defs>
  <path class="cls-1" d="M31.2,7.6c-.89-.88-2-1.47-3.2-1.69-.05-.01-.1-.02-.15-.03-.21-.05-.42-.07-.64-.08h-.05c-.14-.02-.28-.02-.42-.02-1.6.02-3.13.65-4.28,1.78-1.15,1.13-1.82,2.64-1.87,4.25-.03,1.11.23,2.21.76,3.18.01.01.02.04.02.07l-.11,1.96c-.01.19.05.38.19.52.13.13.31.21.5.21h2.45c.16-.01.38.13.53.17.71.23,1.48.33,2.23.27h.05c.22-.01.43-.03.64-.07.05-.01.1-.02.15-.03.41-.08.8-.19,1.18-.34.77-.33,1.47-.8,2.05-1.4,1.14-1.15,1.77-2.68,1.79-4.3.01-1.68-.64-3.26-1.82-4.45ZM30.66,15.8c-.77.78-1.74,1.3-2.79,1.52-.24.04-.47.08-.7.08-.09.01-.15.02-.24.02-.76.03-1.48-.11-2.17-.4-.13-.05-.26-.07-.4-.07h-2.29l.09-1.81c.02-.18-.02-.36-.11-.54-.47-.84-.7-1.8-.66-2.77.04-1.4.61-2.71,1.62-3.7s2.34-1.54,3.74-1.55c.14,0,.28,0,.42.01.23.01.46.04.7.09,1.04.2,2,.71,2.77,1.48,1.03,1.03,1.59,2.41,1.58,3.88,0,1.42-.56,2.75-1.56,3.76Z"/>
  <g>
    <path class="cls-4" d="M27.21,18.19c.22-.01.43-.03.64-.07.05-.01.1-.02.15-.03v-.27c-.26.05-.52.09-.79.1v.27ZM27.85,5.88c-.21-.05-.42-.07-.64-.08v.53c.27.01.53.05.79.1v-.52s-.1-.02-.15-.03Z"/>
    <path class="cls-6" d="M27.85,5.88c.05.01.1.02.15.03v-3.06C28,1.28,26.72,0,25.15,0h-14.3C9.28,0,8,1.28,8,2.85v28.3c0,1.57,1.28,2.85,2.85,2.85h14.3c1.57,0,2.85-1.28,2.85-2.85v-13.06s-.1.02-.15.03c-.21.04-.42.06-.64.07v11.86H8.79V2.85c0-1.14.92-2.06,2.06-2.06h14.3c1.14,0,2.06.92,2.06,2.06v2.95c.22.01.43.03.64.08ZM27.21,30.75v.4c0,1.13-.92,2.05-2.06,2.05h-14.3c-1.14,0-2.06-.92-2.06-2.05v-.4h18.42Z"/>
  </g>
  <rect class="cls-8" x="15.72" y="2.01" width="4.56" height=".99" rx=".5" ry=".5"/>
  <g>
    <rect class="cls-3" x="12.89" y="21.09" width="10.22" height=".99" rx=".5" ry=".5"/>
    <rect class="cls-2" x="12.89" y="23.15" width="10.22" height=".99" rx=".5" ry=".5"/>
    <rect class="cls-5" x="12.89" y="25.21" width="10.22" height=".99" rx=".5" ry=".5"/>
  </g>
  <path class="cls-7" d="M30.21,13.72c0,.11,0,.22-.03.33-.02.11-.05.22-.08.33-.08.24-.54.53-.54.53-.33.22-.72.32-1.11.29-.09,0-.18-.02-.27-.04-.15-.03-.23-.06-.23-.06-.07-.02-.27-.08-.27-.08-.19-.06-.23-.07-.23-.07-.29-.09-.57-.2-.84-.34-.62-.34-1.3-.94-1.3-.94-.4-.36-.76-.75-1.08-1.18-.17-.25-.31-.52-.43-.8-.02-.04-.1-.23-.1-.23-.08-.18-.11-.25-.11-.25-.03-.07-.08-.22-.08-.22-.03-.09-.05-.18-.07-.27-.02-.08-.03-.16-.03-.25-.02-.43.19-.88.19-.88.24-.49.46-.6.46-.6.1-.05.21-.08.32-.12.11-.03.22-.06.33-.07.03,0,.07,0,.1,0,.09.02.27.34.27.34.06.09.15.25.15.25.1.16.18.29.18.29.08.13.16.24.16.24.02.02.09.11.09.11.04.05.08.1.11.16.02.04.04.09.04.13,0,.09-.12.24-.12.24-.09.1-.18.19-.28.27-.1.08-.19.17-.28.26-.13.14-.12.22-.12.22,0,.04.01.07.03.1.03.06.05.09.05.09.02.03.07.11.07.11.05.08.06.09.06.09.25.39.54.74.88,1.06.48.43,1.15.75,1.15.75,0,0,.09.05.09.05.08.05.12.06.12.06.03.01.1.03.1.03.03.01.07.02.11.02.08,0,.21-.15.21-.15.08-.1.16-.2.23-.3.07-.11.15-.21.24-.3.13-.14.23-.15.23-.15.05,0,.09,0,.14.03.06.03.12.06.17.09.1.06.12.08.12.08.12.06.26.13.26.13.14.07.31.15.31.15.17.08.26.13.26.13.34.15.37.23.37.23.01.03.02.06.02.1Z"/>
</svg>